<?xml version="1.0" encoding="utf-8"?>
<!-- Generator: Adobe Illustrator 16.0.0, SVG Export Plug-In . SVG Version: 6.00 Build 0)  -->
<!DOCTYPE svg PUBLIC "-//W3C//DTD SVG 1.1//EN" "http://www.w3.org/Graphics/SVG/1.1/DTD/svg11.dtd">
<svg version="1.1" id="Main_Layer" xmlns="http://www.w3.org/2000/svg" xmlns:xlink="http://www.w3.org/1999/xlink" x="0px" y="0px"
	 width="1080px" height="1920px" viewBox="0 0 1080 1920" enable-background="new 0 0 1080 1920" xml:space="preserve">
<path id="Escapement_1_" fill="#B3B3B3" stroke="#000000" stroke-width="0.1" stroke-linecap="round" stroke-linejoin="round" stroke-miterlimit="10" d="
	M613.277,814.694l-16.992-9.044c0.014-2.291-0.088-4.555-0.303-6.787l17.444-1.638l-18.491-5.311
	c-0.461-2.238-1.035-4.431-1.713-6.58l16.719-5.228l-19.195-1.351c-0.914-2.084-1.93-4.111-3.047-6.077l15.272-8.591l-19.058,2.668
	c-1.324-1.842-2.734-3.619-4.236-5.314l13.146-11.574l-18.094,6.577c-1.672-1.525-3.425-2.962-5.248-4.311l10.46-14.065
	l-16.325,10.191c-1.949-1.143-3.959-2.191-6.03-3.133l7.302-15.922l-13.838,13.349c-2.141-0.708-4.327-1.317-6.559-1.808
	l3.829-17.082l-10.766,15.945c-2.128-0.235-4.284-0.375-6.469-0.402c-0.106-0.001-0.212,0.005-0.318,0.004l0.195-17.521
	l-7.217,17.84c-2.276,0.222-4.518,0.562-6.721,1.011l-3.451-17.173l-3.35,18.945c-2.172,0.691-4.294,1.491-6.363,2.394
	l-6.948-16.083l0.662,19.233c-1.973,1.125-3.885,2.346-5.725,3.662l-10.14-14.29l4.646,18.671c-1.693,1.506-3.303,3.106-4.834,4.779
	l-12.894-11.872l8.433,17.307c-1.341,1.82-2.591,3.71-3.743,5.667l-15.078-8.93l11.836,15.164c-0.931,2.056-1.766,4.166-2.487,6.329
	L451,778.75l14.719,12.363c-0.479,2.199-0.845,4.44-1.099,6.716l-17.398-2.023l16.991,9.044c-0.013,2.29,0.089,4.554,0.303,6.787
	l-17.443,1.638l18.491,5.311c0.459,2.236,1.033,4.431,1.713,6.579l-16.718,5.229l19.194,1.351c0.914,2.083,1.929,4.11,3.046,6.076
	l-15.271,8.592l19.056-2.67c1.324,1.842,2.734,3.619,4.238,5.313l-13.146,11.577l18.093-6.578c1.672,1.526,3.425,2.963,5.25,4.312
	l-10.46,14.066l16.325-10.192c1.949,1.143,3.959,2.19,6.03,3.133l-7.301,15.923l13.836-13.351c2.141,0.709,4.328,1.318,6.56,1.809
	l-3.829,17.082l10.765-15.946c2.128,0.234,4.284,0.374,6.469,0.402c0.106,0.001,0.211-0.006,0.317-0.004l-0.194,17.522l7.216-17.84
	c2.276-0.224,4.517-0.563,6.722-1.011l3.451,17.173l3.348-18.945c2.172-0.69,4.295-1.491,6.363-2.395l6.948,16.083l-0.663-19.234
	c1.973-1.125,3.886-2.344,5.726-3.66l10.141,14.29l-4.646-18.671c1.692-1.508,3.302-3.107,4.835-4.779l12.894,11.872l-8.434-17.308
	c1.341-1.82,2.591-3.711,3.744-5.669l15.078,8.932l-11.837-15.164c0.934-2.056,1.767-4.166,2.487-6.329l16.591,5.595l-14.72-12.363
	c0.479-2.199,0.845-4.44,1.099-6.717L613.277,814.694z M554.59,757.001l3.836-0.545l3.552,2.223l3.377,2.483l3.18,2.728l2.968,2.959
	l2.736,3.174l2.492,3.37l-1.336,2.136l-31.893,10.954l-4.103,0.192l-1.59-3.081L554.59,757.001z M535.252,810.434
	c-3.066,2.577-7.646,2.182-10.227-0.886c-2.581-3.067-2.186-7.652,0.886-10.232c3.071-2.58,7.653-2.179,10.229,0.893
	C538.717,803.28,538.317,807.857,535.252,810.434z M520.752,749.898l4.148-0.583l4.182-0.269l4.19,0.044l4.176,0.358l4.136,0.67
	l4.074,0.979l0.352,2.494l-17.366,28.893l-3.019,2.784l-3.202-1.334l-4.257-31.153L520.752,749.898z M487.69,769.097l2.803-3.112
	l3.028-2.896l3.237-2.659l3.425-2.409l3.6-2.147l3.748-1.87l1.875,1.683l5.287,33.294l-0.52,4.072l-3.31,1.038l-23.299-21.123
	L487.69,769.097z M474.857,800.859l0.46-4.163l0.769-4.117l1.077-4.047l1.375-3.956l1.669-3.841l2.517,0.086l25.466,22.103
	l2.223,3.452l-1.87,2.923l-31.439-1.21l-2.394-3.048L474.857,800.859z M491.655,841.713l-3.793-0.799l-2.576-3.299l-2.322-3.484
	l-2.055-3.647l-1.775-3.792l-1.486-3.913l-1.19-4.014l1.986-1.55l33.73,0.565l3.92,1.215l0.445,3.438L491.655,841.713z
	 M524.402,858.125l-3.421,1.826l-4.094-0.874l-4.017-1.178l-3.917-1.475l-3.796-1.765l-3.653-2.043l-3.49-2.311l0.529-2.463
	l26.222-21.244l3.786-1.59l2.548,2.352L524.402,858.125z M558.597,853.254l-3.698,1.962l-3.837,1.679l-3.95,1.387l-4.041,1.087
	l-4.114,0.782l-4.159,0.471l-1.177-2.226l6.457-33.131l1.879-3.649l3.462,0.165l14.629,27.875L558.597,853.254z M581.547,827.821
	l-1.86,3.752l-2.135,3.603l-2.4,3.434l-2.649,3.243l-2.885,3.037l-2.333-0.948l-16.333-29.535l-0.904-4.005l2.759-2.099
	l29.112,11.949l1.201,3.686L581.547,827.821z M586.186,810.441l-2.396,0.776l-31.48-12.125l-3.266-2.49l0.762-3.381l29.966-9.566
	l3.291,2.049l1.288,3.987l0.989,4.072l0.682,4.134l0.37,4.174l0.055,4.188L586.186,810.441z"/>
<path id="Escapement_Lever_1_" fill="#B3B3B3" stroke="#000000" stroke-width="0.1" stroke-linecap="round" stroke-linejoin="round" stroke-miterlimit="10" d="
	M598,712c-10.25-9.25-27.5-20-49-24c0,0,0.25-6.5-5-13s-17.75-5.25-21.25-3.5s-9.75,6.75-9,15.75c-10.75-0.25-45.5,15-58,29.5
	c0,0,10.5,23.25,14,31.25c1.25-2.5,5.25-23.5,2.5-32.75c15.75-16.5,46-17.75,58.25-18.25s31.75,5.25,40.25,9s30.5,15.5,37.75,32
	L584,748c0,0,22.75,4.25,40.5,0C620.25,733.75,608.25,721.25,598,712z M531.5,690.5c-1.933,0-3.5-1.567-3.5-3.5s1.567-3.5,3.5-3.5
	s3.5,1.567,3.5,3.5S533.433,690.5,531.5,690.5z"/>
<path id="Gear_64" fill="#B3B3B3" stroke="#000000" stroke-width="0.1" stroke-linecap="round" stroke-linejoin="round" stroke-miterlimit="10" d="
	M500.547,827.927l0.434-0.101l0.864-0.216l1.731-0.487l1.732-0.557l1.732-0.622l0.142-4.509l-1.69-0.73l-1.694-0.664l-1.696-0.595
	l-0.851-0.27l-0.425-0.127l-0.425-0.122l-0.083-4.738l0.42-0.137l0.42-0.142l0.84-0.3l1.675-0.654l1.669-0.724l1.664-0.789
	l-0.301-4.501l-1.754-0.561l-1.751-0.495l-1.747-0.426l-0.872-0.185l-0.435-0.085l-0.436-0.08l-0.548-4.707l0.405-0.177l0.404-0.183
	l0.806-0.38l1.603-0.816l1.592-0.884l1.578-0.948l-0.741-4.45l-1.8-0.386l-1.791-0.321l-1.781-0.253l-0.886-0.098l-0.441-0.042
	l-0.441-0.037l-1.006-4.631l0.385-0.216l0.386-0.222l0.764-0.457l1.516-0.969l1.496-1.035l1.478-1.099l-1.173-4.356l-1.829-0.208
	l-1.814-0.144l-1.797-0.076l-0.891-0.011l-0.444,0.001l-0.442,0.006l-1.454-4.509l0.361-0.253l0.361-0.258l0.716-0.531l1.413-1.112
	l1.388-1.177l1.363-1.238l-1.595-4.22l-1.842-0.028l-1.818,0.034l-1.796,0.1l-0.889,0.077l-0.44,0.045l-0.44,0.049l-1.89-4.345
	l0.336-0.287l0.334-0.293l0.661-0.598l1.297-1.245l1.265-1.308l1.235-1.365l-2.001-4.044l-1.834,0.153l-1.807,0.213l-1.778,0.275
	l-0.876,0.163l-0.436,0.088l-0.432,0.093l-2.307-4.139l0.306-0.319l0.303-0.324l0.6-0.66l1.169-1.366l1.131-1.426l1.095-1.48
	l-2.387-3.828l-1.812,0.332l-1.776,0.389l-1.742,0.449l-0.856,0.247l-0.424,0.131l-0.422,0.134l-2.701-3.893l0.273-0.347l0.27-0.352
	l0.532-0.715l1.029-1.475l0.985-1.53l0.945-1.58l-2.751-3.575l-1.769,0.508l-1.732,0.561l-1.688,0.617l-0.828,0.331l-0.409,0.171
	l-0.406,0.175l-3.07-3.609l0.238-0.373l0.234-0.377l0.459-0.764l0.88-1.568l0.831-1.619l0.786-1.665l-3.089-3.289l-1.711,0.679
	l-1.668,0.728l-1.62,0.78l-0.792,0.41l-0.391,0.21l-0.387,0.215l-3.409-3.291l0.2-0.395l0.196-0.397l0.382-0.806l0.722-1.647
	l0.669-1.692l0.618-1.734l-3.396-2.97l-1.637,0.843l-1.588,0.888l-1.537,0.935l-0.747,0.486l-0.368,0.247l-0.363,0.251l-3.716-2.941
	l0.16-0.412l0.157-0.415l0.301-0.839l0.558-1.71l0.499-1.749l0.444-1.787l-3.67-2.623l-1.546,1l-1.494,1.04l-1.437,1.08
	l-0.696,0.557l-0.342,0.282l-0.338,0.286l-3.986-2.562l0.12-0.426l0.115-0.429l0.218-0.864l0.386-1.756l0.326-1.791l0.269-1.821
	l-3.91-2.251l-1.441,1.147l-1.384,1.181l-1.325,1.216l-0.638,0.622l-0.313,0.315l-0.308,0.317l-4.217-2.159l0.077-0.436l0.071-0.437
	l0.132-0.882l0.214-1.786l0.147-1.813l0.088-1.839l-4.11-1.857l-1.321,1.282l-1.263,1.311l-1.199,1.341l-0.574,0.681l-0.28,0.344
	l-0.275,0.346l-4.409-1.735l0.035-0.441l0.028-0.443l0.046-0.89l0.035-1.798l-0.029-1.82l-0.093-1.838l-4.273-1.445l-1.189,1.406
	l-1.128,1.428l-1.062,1.451l-0.504,0.735l-0.245,0.37l-0.241,0.371l-4.558-1.295l-0.01-0.442l-0.014-0.444l-0.043-0.89l-0.14-1.793
	l-0.208-1.808l-0.272-1.821l-4.395-1.018l-1.046,1.515l-0.982,1.532l-0.914,1.549l-0.43,0.78l-0.208,0.392l-0.203,0.393
	l-4.663-0.842l-0.052-0.439l-0.059-0.44l-0.13-0.882l-0.314-1.77l-0.385-1.779l-0.449-1.785l-4.474-0.583l-0.892,1.61l-0.827,1.621
	l-0.759,1.631l-0.352,0.819l-0.168,0.41l-0.164,0.411l-4.723-0.381l-0.095-0.432l-0.102-0.432l-0.215-0.865l-0.486-1.731
	l-0.558-1.732l-0.622-1.733l-4.509-0.142l-0.73,1.691l-0.664,1.694l-0.595,1.697l-0.27,0.849l-0.127,0.425l-0.123,0.425
	l-4.737,0.084l-0.137-0.42l-0.144-0.421l-0.299-0.839l-0.653-1.675l-0.725-1.67l-0.79-1.663l-4.501,0.301l-0.56,1.753l-0.496,1.752
	l-0.425,1.747l-0.186,0.872l-0.085,0.435l-0.08,0.435l-4.707,0.548l-0.178-0.405l-0.182-0.404l-0.382-0.806l-0.814-1.603
	l-0.884-1.591l-0.948-1.578l-4.45,0.741l-0.387,1.8l-0.321,1.791l-0.252,1.781l-0.099,0.885l-0.042,0.442l-0.037,0.441l-4.63,1.006
	l-0.216-0.385l-0.222-0.385l-0.457-0.765l-0.969-1.515l-1.036-1.496l-1.098-1.478l-4.356,1.174l-0.208,1.829l-0.144,1.814
	l-0.076,1.797l-0.012,0.891l0.002,0.444l0.006,0.442l-4.509,1.455l-0.254-0.362l-0.258-0.361l-0.53-0.717l-1.112-1.413l-1.178-1.387
	l-1.238-1.363l-4.22,1.595l-0.027,1.841l0.034,1.819l0.1,1.796l0.076,0.888l0.045,0.441l0.05,0.44l-4.345,1.89l-0.288-0.336
	l-0.292-0.334l-0.598-0.661l-1.245-1.297l-1.308-1.266l-1.366-1.234l-4.043,2l0.153,1.835l0.213,1.807l0.275,1.777l0.163,0.877
	l0.088,0.435l0.092,0.432l-4.138,2.307l-0.32-0.306l-0.323-0.303l-0.66-0.6l-1.367-1.169l-1.425-1.131l-1.48-1.095l-3.828,2.388
	l0.332,1.81l0.389,1.778l0.448,1.742l0.248,0.856l0.13,0.424l0.135,0.421l-3.893,2.702l-0.348-0.273l-0.351-0.271l-0.716-0.531
	l-1.474-1.03l-1.53-0.986l-1.58-0.944l-3.575,2.751l0.508,1.769l0.561,1.731l0.617,1.69l0.33,0.827l0.171,0.41l0.175,0.406
	l-3.609,3.07l-0.372-0.238l-0.377-0.235l-0.764-0.459l-1.569-0.879l-1.618-0.832l-1.666-0.785l-3.288,3.088l0.679,1.712l0.728,1.667
	l0.78,1.621l0.41,0.791l0.21,0.391l0.214,0.387l-3.291,3.409l-0.394-0.2l-0.398-0.197l-0.805-0.382l-1.647-0.721l-1.693-0.669
	l-1.734-0.618l-2.97,3.395l0.844,1.637l0.888,1.588l0.934,1.537l0.486,0.747l0.248,0.368l0.251,0.364l-2.941,3.715l-0.412-0.16
	l-0.415-0.157l-0.839-0.301l-1.71-0.557l-1.75-0.499l-1.786-0.446l-2.623,3.671l1,1.546l1.039,1.493l1.081,1.438l0.557,0.696
	l0.282,0.342l0.286,0.338l-2.563,3.985l-0.426-0.119l-0.428-0.115l-0.864-0.218l-1.757-0.386l-1.79-0.326l-1.822-0.268l-2.25,3.91
	l1.146,1.44l1.181,1.385l1.217,1.324l0.622,0.639l0.315,0.312l0.317,0.308l-2.16,4.218l-0.435-0.077l-0.438-0.073l-0.881-0.131
	l-1.786-0.213l-1.814-0.148l-1.839-0.089l-1.856,4.112l1.282,1.321l1.311,1.262l1.34,1.199l0.682,0.574l0.344,0.281l0.346,0.275
	l-1.736,4.409l-0.441-0.034l-0.442-0.029l-0.89-0.045l-1.799-0.036l-1.819,0.03l-1.839,0.092l-1.444,4.274l1.405,1.189l1.429,1.127
	l1.451,1.062l0.735,0.505l0.369,0.245l0.372,0.24l-1.295,4.558l-0.443,0.01l-0.443,0.014l-0.89,0.043l-1.793,0.14l-1.808,0.208
	l-1.821,0.272l-1.018,4.395l1.515,1.045l1.532,0.982l1.548,0.915l0.781,0.43l0.392,0.208l0.393,0.203l-0.842,4.663l-0.439,0.052
	l-0.44,0.058l-0.882,0.13l-1.771,0.315L215,797.27l-1.786,0.449l-0.583,4.474l1.611,0.892l1.621,0.827l1.63,0.758l0.819,0.352
	l0.411,0.168l0.411,0.164l-0.381,4.723l-0.432,0.095l-0.432,0.1l-0.865,0.216l-1.731,0.487l-1.733,0.557l-1.732,0.622l-0.142,4.509
	l1.69,0.73l1.694,0.664l1.698,0.595l0.849,0.271l0.425,0.127l0.425,0.121l0.084,4.738l-0.421,0.137l-0.42,0.143l-0.839,0.3
	l-1.675,0.654l-1.67,0.724l-1.663,0.789l0.301,4.501l1.753,0.562l1.751,0.494l1.748,0.427l0.871,0.185l0.436,0.085l0.435,0.08
	l0.548,4.707l-0.405,0.177l-0.405,0.184l-0.806,0.38l-1.603,0.815l-1.59,0.885l-1.578,0.947l0.74,4.45l1.8,0.386l1.792,0.321
	l1.78,0.253l0.886,0.099l0.442,0.042l0.441,0.036l1.006,4.632l-0.386,0.216l-0.384,0.222l-0.765,0.457l-1.515,0.969l-1.497,1.035
	l-1.477,1.1l1.173,4.355l1.83,0.208l1.814,0.145l1.796,0.075l0.892,0.013l0.443-0.002l0.442-0.007l1.456,4.51l-0.363,0.253
	l-0.36,0.259l-0.717,0.53l-1.413,1.111l-1.388,1.179l-1.362,1.237l1.594,4.221l1.841,0.026l1.82-0.034l1.795-0.1l0.888-0.077
	l0.442-0.044l0.439-0.05l1.891,4.345l-0.336,0.287l-0.334,0.293l-0.661,0.599l-1.297,1.244l-1.266,1.309l-1.235,1.366l2.001,4.043
	l1.835-0.153l1.807-0.213l1.777-0.275l0.876-0.163l0.435-0.088l0.433-0.093l2.307,4.139l-0.306,0.319l-0.304,0.324l-0.599,0.66
	l-1.169,1.365l-1.131,1.427l-1.095,1.479l2.387,3.828l1.811-0.332l1.778-0.389l1.741-0.448l0.857-0.248l0.424-0.131l0.421-0.134
	l2.702,3.893l-0.274,0.347l-0.27,0.353l-0.532,0.715l-1.029,1.475l-0.986,1.53l-0.945,1.58l2.751,3.575l1.77-0.508l1.731-0.562
	l1.689-0.617l0.828-0.33l0.409-0.172l0.406-0.175l3.071,3.609l-0.238,0.373l-0.235,0.377l-0.459,0.764l-0.88,1.568l-0.831,1.619
	l-0.785,1.665l3.088,3.288l1.711-0.679l1.668-0.728l1.621-0.78l0.791-0.41l0.391-0.21l0.387-0.215l3.409,3.291l-0.201,0.395
	l-0.196,0.397l-0.382,0.806l-0.722,1.647l-0.668,1.691l-0.619,1.734l3.396,2.97l1.636-0.843l1.589-0.888l1.536-0.936l0.748-0.484
	l0.368-0.248l0.364-0.251l3.715,2.94l-0.161,0.412l-0.156,0.415l-0.301,0.839l-0.557,1.71l-0.5,1.75l-0.445,1.786l3.67,2.623
	l1.546-1l1.494-1.039l1.437-1.081l0.697-0.557l0.342-0.282l0.337-0.286l3.986,2.563l-0.119,0.425l-0.116,0.429l-0.217,0.864
	l-0.387,1.757l-0.325,1.79l-0.268,1.821l3.91,2.251l1.44-1.147l1.385-1.181l1.324-1.216l0.638-0.622l0.313-0.315l0.308-0.316
	l4.218,2.159l-0.077,0.436l-0.073,0.437l-0.132,0.883l-0.212,1.785l-0.149,1.813l-0.088,1.839l4.112,1.857l1.321-1.282l1.262-1.312
	l1.199-1.341l0.574-0.681l0.28-0.344l0.276-0.347l4.409,1.735l-0.034,0.441l-0.029,0.442l-0.045,0.891l-0.037,1.798l0.03,1.819
	l0.093,1.84l4.273,1.443l1.19-1.406l1.127-1.428l1.062-1.451l0.505-0.734l0.245-0.37l0.24-0.371l4.558,1.295l0.009,0.442
	l0.015,0.443l0.042,0.891l0.14,1.793l0.208,1.808l0.273,1.821l4.394,1.018l1.046-1.515l0.982-1.532l0.915-1.549l0.43-0.78
	l0.207-0.392l0.203-0.394l4.663,0.843l0.054,0.438l0.057,0.44l0.13,0.882l0.315,1.77l0.385,1.779l0.449,1.785l4.473,0.583
	l0.893-1.61l0.827-1.621l0.759-1.631l0.351-0.819l0.169-0.409l0.163-0.411l4.723,0.381l0.097,0.432l0.1,0.433l0.216,0.864
	l0.487,1.731l0.556,1.732l0.623,1.732l4.509,0.143l0.73-1.69l0.664-1.695l0.595-1.696l0.27-0.85l0.128-0.425l0.122-0.425
	l4.737-0.084l0.138,0.42l0.142,0.421l0.3,0.839l0.654,1.675l0.724,1.67l0.789,1.663l4.501-0.301l0.562-1.753l0.495-1.751
	l0.426-1.748l0.184-0.872l0.086-0.435l0.08-0.436l4.706-0.548l0.178,0.405l0.184,0.403l0.38,0.808l0.815,1.602l0.884,1.591
	l0.949,1.578l4.449-0.74l0.387-1.801l0.32-1.791l0.252-1.78l0.1-0.886l0.042-0.441l0.037-0.441l4.63-1.006l0.217,0.385l0.221,0.386
	l0.458,0.765l0.968,1.515l1.036,1.496l1.1,1.479l4.355-1.175l0.207-1.828l0.145-1.814l0.077-1.797l0.011-0.891l-0.001-0.443
	l-0.007-0.443l4.51-1.455l0.253,0.362l0.258,0.361l0.53,0.717l1.113,1.413l1.177,1.387l1.238,1.363l4.22-1.595l0.027-1.842
	l-0.034-1.818l-0.101-1.796l-0.076-0.889l-0.045-0.44l-0.049-0.439l4.345-1.891l0.287,0.336l0.292,0.334l0.599,0.661l1.246,1.297
	l1.308,1.266l1.365,1.234l4.044-2l-0.153-1.835l-0.213-1.808l-0.276-1.776l-0.162-0.877l-0.088-0.435l-0.093-0.433l4.139-2.307
	l0.319,0.306l0.324,0.303l0.659,0.601l1.367,1.169l1.426,1.131l1.479,1.095l3.827-2.387l-0.332-1.812l-0.388-1.777l-0.449-1.742
	l-0.248-0.856l-0.13-0.424l-0.134-0.421l3.892-2.702l0.349,0.273l0.352,0.271l0.715,0.531l1.476,1.03l1.528,0.985l1.581,0.944
	l3.575-2.751l-0.508-1.769l-0.562-1.731l-0.616-1.69l-0.331-0.826l-0.172-0.41l-0.175-0.406l3.609-3.07l0.373,0.238l0.376,0.235
	l0.764,0.459l1.569,0.879l1.619,0.832l1.665,0.785l3.288-3.089l-0.68-1.711l-0.728-1.668l-0.779-1.621l-0.41-0.791l-0.211-0.391
	l-0.214-0.387l3.291-3.409l0.395,0.2l0.397,0.197l0.805,0.382l1.648,0.722l1.692,0.668l1.733,0.618l2.97-3.396l-0.843-1.637
	l-0.888-1.588l-0.936-1.537l-0.485-0.747l-0.247-0.368l-0.251-0.363l2.939-3.716l0.412,0.16l0.416,0.157l0.838,0.301l1.71,0.558
	l1.75,0.499l1.787,0.445l2.623-3.671l-1-1.546l-1.04-1.493l-1.081-1.438l-0.556-0.696l-0.283-0.342l-0.285-0.338l2.563-3.985
	l0.426,0.119l0.429,0.115l0.864,0.218l1.756,0.386l1.791,0.326l1.821,0.268l2.251-3.909l-1.147-1.44l-1.181-1.385l-1.216-1.324
	l-0.622-0.639l-0.315-0.313l-0.316-0.308l2.159-4.218l0.436,0.076l0.438,0.073l0.882,0.131l1.785,0.213l1.813,0.149l1.839,0.088
	l1.856-4.112l-1.282-1.32l-1.311-1.263l-1.341-1.198l-0.682-0.574l-0.344-0.281l-0.347-0.274l1.736-4.409l0.441,0.034l0.442,0.028
	l0.891,0.045l1.798,0.036l1.819-0.029l1.839-0.093l1.444-4.273l-1.405-1.189l-1.429-1.127l-1.452-1.062l-0.733-0.505l-0.37-0.245
	l-0.371-0.24l1.295-4.559l0.442-0.01l0.442-0.014l0.892-0.043l1.793-0.14l1.807-0.208l1.821-0.272l1.019-4.395l-1.515-1.046
	l-1.532-0.981l-1.549-0.915l-0.781-0.43l-0.392-0.208l-0.393-0.203l0.843-4.663l0.438-0.052l0.44-0.059l0.881-0.13l1.771-0.314
	l1.779-0.385l1.785-0.448l0.583-4.475l-1.61-0.892l-1.621-0.827l-1.631-0.758l-0.818-0.353l-0.41-0.168l-0.412-0.163l0.382-4.724
	L500.547,827.927z M336.781,693.406l8.271-1.213l8.334-0.669l8.358-0.123l8.35,0.425l8.304,0.971l8.222,1.512l8.106,2.046
	l7.954,2.573l7.769,3.088l7.55,3.59l7.299,4.076l7.018,4.545l6.704,4.995l6.362,5.423l5.994,5.827l5.601,6.207l-0.855,5.941
	l-75.869,51.561l-7.731-0.105l-3.536-1.554l-3.714-1.056l-6.025-4.848l-25.592-88.089L336.781,693.406z M366.521,819.05
	c0,3.913-3.174,7.086-7.087,7.086s-7.086-3.173-7.086-7.086c0-3.915,3.173-7.087,7.086-7.087S366.521,815.135,366.521,819.05z
	 M234.343,793.526l1.939-8.132l2.467-7.988l2.984-7.81l3.489-7.597l3.978-7.353l4.452-7.076l4.905-6.77l5.337-6.435l5.747-6.071
	l6.133-5.682l6.491-5.269l6.821-4.832l7.124-4.376l7.395-3.9l7.634-3.408l5.386,2.649l25.592,88.089l-2.489,7.321l-2.571,2.883
	l-2.152,3.206l-6.473,4.232l-91.685-2.881l-3.906-4.558L234.343,793.526z M309.452,931.705l-5.541,2.307l-7.405-3.881l-7.136-4.357
	l-6.834-4.814l-6.505-5.251l-6.148-5.666l-5.763-6.056l-5.355-6.42l-4.923-6.757l-4.47-7.065l-3.998-7.342l-3.509-7.588
	l-3.005-7.801l-2.488-7.982l-1.96-8.127l-1.424-8.238l-0.882-8.313l4.184-4.304l91.685,2.881l6.194,4.63l1.947,3.336l2.384,3.038
	l2.025,7.463L309.452,931.705z M445.633,913.224l-6.348,5.439l-6.69,5.013l-7.006,4.563l-7.287,4.096l-7.54,3.61L403,939.054
	l-7.947,2.594l-8.101,2.069l-8.218,1.532l-8.301,0.993l-8.349,0.447l-8.359-0.1l-8.335-0.647l-8.275-1.191l-8.179-1.73l-2.8-5.31
	l31.073-86.307l6.317-4.461l3.774-0.821l3.626-1.328l7.724,0.381l72.48,56.223l0.481,5.983L445.633,913.224z M486.503,831.402
	l-1.081,8.29l-1.62,8.201l-2.154,8.078l-2.679,7.919l-3.191,7.727l-3.69,7.502l-4.173,7.244L462,887.387l-72.481-56.224l-2.29-7.386
	l0.386-3.843l-0.144-3.859l2.749-7.228l75.868-51.561l5.84,1.392l3.71,7.492l3.211,7.719l2.699,7.912l2.177,8.072l1.643,8.197
	l1.104,8.287l0.558,8.342l0.011,8.36L486.503,831.402z"/>
<path id="Gear_12" fill="#B3B3B3" stroke="#000000" stroke-width="0.1" stroke-linecap="round" stroke-linejoin="round" stroke-miterlimit="10" d="
	M560.59,805.368l-0.449-0.281l-0.453-0.261l-0.455-0.24l-0.457-0.22l-0.458-0.197l-0.459-0.173l-0.459-0.148l-0.459-0.12
	l-0.458-0.087l-0.456-0.042l-0.453,0.003l-0.228-0.017l-0.229-0.033l-0.229-0.053l-0.116-0.037l-0.116-0.046l-0.118-0.059
	l-0.118-0.076l-0.121-0.11l-0.381-2.208l-0.367-2.21l0.08-0.144l0.086-0.111l0.092-0.093l0.095-0.082l0.097-0.073l0.2-0.126
	l0.205-0.107l0.21-0.09l0.43-0.147l0.416-0.189l0.404-0.233l0.395-0.264l0.385-0.291l0.376-0.315l0.368-0.337l0.359-0.357
	l0.35-0.377l0.342-0.395l0.333-0.414l0.323-0.431l-1.758-3.839l-0.537-0.037l-0.53-0.018h-0.522l-0.515,0.019l-0.506,0.039
	l-0.495,0.058l-0.484,0.079l-0.472,0.102l-0.457,0.125l-0.44,0.153l-0.416,0.193l-0.391,0.229l-0.206,0.099l-0.215,0.086
	l-0.226,0.069l-0.119,0.026l-0.123,0.018l-0.131,0.008l-0.142-0.007l-0.159-0.034l-1.435-1.721l-1.422-1.732l-0.005-0.163
	l0.021-0.14l0.032-0.127l0.041-0.118l0.048-0.112l0.11-0.209l0.123-0.195l0.138-0.183l0.298-0.342l0.268-0.372l0.232-0.404
	l0.209-0.426l0.188-0.444l0.168-0.461l0.15-0.475l0.133-0.489l0.115-0.502l0.098-0.513l0.082-0.525l0.065-0.535l-3.442-2.446
	l-0.483,0.237l-0.47,0.25l-0.452,0.261l-0.435,0.274l-0.42,0.286l-0.398,0.298l-0.381,0.311l-0.357,0.323l-0.333,0.338l-0.306,0.353
	l-0.262,0.374l-0.226,0.394l-0.129,0.189l-0.142,0.182l-0.162,0.172l-0.09,0.082l-0.099,0.078l-0.108,0.072l-0.125,0.065
	l-0.157,0.05l-2.103-0.774l-2.097-0.788l-0.085-0.14l-0.053-0.13l-0.035-0.127l-0.024-0.123l-0.014-0.12l-0.01-0.236l0.011-0.231
	l0.026-0.227l0.088-0.445l0.045-0.456v-0.466l-0.032-0.473l-0.06-0.479l-0.084-0.483l-0.108-0.487l-0.13-0.49l-0.151-0.492
	l-0.171-0.494l-0.192-0.495l-0.211-0.496l-4.204-0.397l-0.301,0.447l-0.281,0.451l-0.261,0.453l-0.241,0.455l-0.219,0.457
	l-0.197,0.458l-0.173,0.458l-0.149,0.459l-0.12,0.459l-0.087,0.458l-0.041,0.456l0.002,0.454l-0.016,0.228l-0.033,0.229l-0.054,0.23
	l-0.037,0.115l-0.046,0.117l-0.058,0.117l-0.077,0.119l-0.109,0.121l-2.208,0.381l-2.211,0.367l-0.143-0.079l-0.111-0.087
	l-0.094-0.092l-0.082-0.094l-0.073-0.097l-0.126-0.2l-0.106-0.205l-0.091-0.21l-0.147-0.43l-0.189-0.417l-0.233-0.403l-0.264-0.394
	l-0.291-0.385l-0.315-0.376l-0.336-0.368l-0.358-0.359l-0.376-0.351l-0.396-0.342l-0.413-0.333l-0.431-0.323l-3.84,1.757
	l-0.036,0.538l-0.019,0.531l0.001,0.523l0.019,0.514l0.038,0.505l0.059,0.495l0.079,0.484l0.101,0.472l0.126,0.457l0.153,0.441
	l0.192,0.415l0.229,0.392l0.1,0.206l0.086,0.214l0.068,0.226l0.026,0.119l0.019,0.124l0.008,0.131l-0.007,0.14l-0.034,0.16
	l-1.722,1.434l-1.731,1.423l-0.164,0.004l-0.139-0.02l-0.127-0.033l-0.119-0.041l-0.111-0.047l-0.209-0.11l-0.195-0.125
	l-0.184-0.136l-0.341-0.299l-0.373-0.266l-0.403-0.234l-0.426-0.208l-0.444-0.188l-0.461-0.169l-0.475-0.15l-0.49-0.132
	l-0.501-0.116l-0.514-0.098l-0.524-0.081l-0.535-0.065l-2.446,3.442l0.237,0.484l0.249,0.468l0.262,0.453l0.274,0.436l0.286,0.418
	l0.298,0.4l0.31,0.379l0.324,0.358l0.337,0.334l0.353,0.304l0.374,0.264l0.395,0.225l0.189,0.128l0.181,0.143l0.173,0.161
	l0.082,0.09l0.077,0.098l0.073,0.109l0.064,0.126l0.051,0.155l-0.774,2.103l-0.788,2.098l-0.14,0.085l-0.131,0.052l-0.126,0.036
	l-0.123,0.023l-0.121,0.015l-0.236,0.009l-0.231-0.01l-0.227-0.027l-0.445-0.087l-0.456-0.045h-0.466l-0.473,0.032l-0.479,0.059
	l-0.483,0.085l-0.487,0.108l-0.489,0.129l-0.492,0.151l-0.494,0.172l-0.495,0.192l-0.496,0.211l-0.398,4.204l0.448,0.301l0.45,0.281
	l0.453,0.262l0.455,0.239l0.457,0.221l0.458,0.196l0.459,0.174l0.459,0.147l0.459,0.12l0.458,0.088l0.456,0.041l0.453-0.003
	l0.228,0.017l0.229,0.033l0.23,0.053l0.116,0.037l0.116,0.046l0.118,0.06l0.118,0.076l0.122,0.109l0.381,2.208l0.366,2.21
	l-0.079,0.145l-0.087,0.11l-0.091,0.094l-0.095,0.082l-0.097,0.072l-0.2,0.126l-0.205,0.107l-0.21,0.09l-0.429,0.147l-0.417,0.188
	l-0.404,0.233l-0.394,0.265l-0.385,0.29l-0.376,0.315l-0.367,0.337l-0.36,0.356l-0.35,0.377l-0.342,0.396l-0.333,0.414l-0.324,0.431
	l1.758,3.839l0.538,0.037l0.53,0.019h0.523l0.515-0.02l0.505-0.039l0.495-0.058l0.484-0.079l0.472-0.102l0.457-0.125l0.44-0.153
	l0.416-0.193l0.391-0.229l0.206-0.1l0.215-0.086l0.226-0.068l0.119-0.026l0.123-0.018l0.131-0.009l0.141,0.008l0.16,0.033
	l1.434,1.723l1.422,1.73l0.004,0.163l-0.02,0.14l-0.032,0.128l-0.041,0.117l-0.048,0.112l-0.11,0.209l-0.124,0.195l-0.137,0.183
	l-0.298,0.342l-0.267,0.372l-0.233,0.404l-0.209,0.426l-0.188,0.444l-0.168,0.461l-0.15,0.475l-0.133,0.489l-0.115,0.502
	l-0.098,0.513l-0.082,0.525l-0.065,0.535l3.442,2.446l0.484-0.237l0.469-0.25l0.453-0.261l0.435-0.274l0.419-0.286l0.399-0.298
	l0.38-0.311l0.358-0.323l0.333-0.338l0.305-0.354l0.264-0.374l0.224-0.394l0.129-0.189l0.142-0.182l0.162-0.172l0.09-0.082
	l0.098-0.078l0.109-0.072l0.125-0.064l0.156-0.051l2.103,0.774l2.097,0.788l0.085,0.14l0.053,0.131l0.035,0.126l0.024,0.123
	l0.014,0.12l0.01,0.236l-0.011,0.23l-0.026,0.228l-0.088,0.445l-0.044,0.456l-0.001,0.466l0.032,0.473l0.06,0.479l0.084,0.482
	l0.108,0.487l0.13,0.49l0.151,0.491l0.171,0.494l0.192,0.495l0.212,0.496l4.204,0.397l0.3-0.447l0.281-0.451l0.261-0.453
	l0.241-0.455l0.219-0.456l0.197-0.458l0.174-0.459l0.148-0.459l0.12-0.459l0.087-0.458l0.041-0.456l-0.002-0.454l0.016-0.228
	l0.033-0.229l0.054-0.229l0.037-0.115l0.046-0.117l0.058-0.116l0.077-0.119l0.109-0.121l2.208-0.381l2.211-0.366l0.143,0.078
	l0.111,0.087l0.094,0.092l0.082,0.094l0.073,0.099l0.126,0.198l0.106,0.205l0.091,0.21l0.147,0.431l0.189,0.417l0.233,0.402
	l0.264,0.395l0.291,0.385l0.315,0.376l0.336,0.368l0.358,0.359l0.376,0.351l0.396,0.342l0.414,0.333l0.431,0.323l3.839-1.757
	l0.037-0.538l0.019-0.531l-0.002-0.522l-0.019-0.515l-0.038-0.505l-0.059-0.495l-0.08-0.483l-0.101-0.473l-0.125-0.457l-0.153-0.44
	l-0.192-0.415l-0.229-0.393l-0.1-0.206l-0.086-0.214l-0.068-0.226l-0.025-0.119l-0.019-0.124l-0.009-0.13l0.007-0.141l0.034-0.16
	l1.723-1.435l1.73-1.423l0.164-0.003l0.14,0.02l0.126,0.032l0.119,0.041l0.111,0.048l0.21,0.109l0.194,0.125l0.184,0.136
	l0.341,0.299l0.373,0.267l0.403,0.233l0.426,0.208l0.443,0.188l0.461,0.169l0.477,0.15l0.489,0.132l0.501,0.116l0.514,0.098
	l0.523,0.081l0.535,0.064l2.447-3.441l-0.238-0.484l-0.248-0.468l-0.262-0.453l-0.275-0.436l-0.285-0.418l-0.299-0.4l-0.31-0.379
	l-0.323-0.358L554,817.066l-0.353-0.304l-0.374-0.264l-0.395-0.226l-0.189-0.128l-0.182-0.143l-0.172-0.161l-0.082-0.09
	l-0.078-0.099l-0.072-0.108l-0.064-0.126l-0.051-0.155l0.773-2.103l0.789-2.099l0.14-0.085l0.131-0.052l0.126-0.036l0.123-0.022
	l0.121-0.016l0.236-0.009l0.23,0.01l0.227,0.027l0.445,0.087l0.456,0.045h0.466l0.474-0.032l0.479-0.059l0.482-0.085l0.486-0.107
	l0.49-0.13l0.491-0.151l0.494-0.172l0.495-0.191l0.496-0.211l0.398-4.204L560.59,805.368z M530.579,811.997
	c-3.913,0-7.087-3.173-7.087-7.086c0-3.915,3.174-7.087,7.087-7.087c3.913,0,7.087,3.173,7.087,7.087
	C537.666,808.824,534.491,811.997,530.579,811.997z"/>
<path id="Gear_8" fill="#CCCCCC" stroke="#000000" stroke-width="0.1" stroke-linecap="round" stroke-linejoin="round" stroke-miterlimit="10" d="
	M380.418,819.667l-0.447-0.33l-0.451-0.302l-0.455-0.272l-0.459-0.243l-0.461-0.211l-0.461-0.177l-0.462-0.139l-0.46-0.096
	l-0.455-0.012l-0.45,0.068l-0.453,0.019l-0.228-0.012l-0.23-0.032l-0.231-0.055l-0.117-0.039l-0.118-0.049l-0.119-0.063
	l-0.122-0.084l-0.126-0.121l-0.152-0.332l-0.341-1.778l-0.558-1.722l-0.026-0.365l0.052-0.167l0.066-0.131l0.074-0.113l0.08-0.1
	l0.083-0.091l0.176-0.159l0.186-0.138l0.194-0.121l0.406-0.202l0.427-0.157l0.393-0.23l0.358-0.305l0.337-0.345l0.319-0.378
	l0.303-0.406l0.285-0.434l0.267-0.458l0.25-0.482l0.232-0.504l0.214-0.526l-1.154-1.7l-1.311-1.583l-0.564,0.059l-0.549,0.082
	l-0.533,0.106l-0.515,0.129l-0.495,0.152l-0.475,0.177l-0.452,0.202l-0.425,0.227l-0.393,0.258l-0.33,0.314l-0.271,0.366
	l-0.306,0.334l-0.171,0.152l-0.184,0.14l-0.202,0.125l-0.111,0.055l-0.118,0.048l-0.129,0.04l-0.145,0.027l-0.174,0.003
	l-0.344-0.127l-1.498-1.016l-1.612-0.823l-0.276-0.24l-0.081-0.154l-0.047-0.141l-0.027-0.132l-0.015-0.126l-0.005-0.124
	l0.012-0.237l0.034-0.229l0.052-0.223l0.145-0.429l0.19-0.413l0.116-0.441l0.036-0.469l-0.005-0.482l-0.041-0.493l-0.074-0.501
	l-0.105-0.508l-0.135-0.513l-0.164-0.518l-0.192-0.521l-0.221-0.522l-2.018-0.387l-2.046-0.192l-0.358,0.441l-0.33,0.446
	l-0.302,0.451l-0.273,0.456l-0.242,0.458l-0.211,0.461l-0.177,0.462l-0.139,0.461l-0.096,0.461l-0.012,0.455l0.068,0.45l0.019,0.453
	l-0.013,0.228l-0.031,0.229l-0.055,0.232l-0.039,0.116l-0.049,0.118l-0.063,0.119l-0.084,0.122l-0.121,0.126l-0.333,0.153
	l-1.777,0.341l-1.722,0.557l-0.365,0.027l-0.167-0.053l-0.132-0.066l-0.112-0.074l-0.1-0.079l-0.091-0.084l-0.16-0.176l-0.138-0.186
	l-0.12-0.194l-0.202-0.406l-0.157-0.427l-0.23-0.393l-0.306-0.357l-0.344-0.338l-0.378-0.319l-0.406-0.302l-0.434-0.285
	l-0.458-0.268l-0.482-0.25l-0.505-0.232l-0.525-0.213l-1.701,1.153l-1.582,1.311l0.059,0.565l0.082,0.549l0.105,0.532l0.129,0.515
	l0.153,0.496l0.177,0.475l0.201,0.451l0.228,0.425l0.258,0.394l0.313,0.33l0.366,0.27l0.334,0.307l0.153,0.17l0.14,0.184
	l0.125,0.203l0.054,0.11l0.049,0.118l0.039,0.129l0.027,0.145l0.004,0.175l-0.127,0.343l-1.016,1.498l-0.824,1.612l-0.239,0.277
	l-0.155,0.081l-0.14,0.046l-0.132,0.027l-0.127,0.015l-0.123,0.005l-0.237-0.012l-0.229-0.034l-0.223-0.051l-0.43-0.145
	l-0.413-0.191l-0.44-0.115l-0.469-0.037l-0.482,0.005l-0.493,0.041l-0.501,0.074l-0.508,0.105l-0.514,0.135l-0.517,0.164
	l-0.521,0.193l-0.522,0.22l-0.387,2.019l-0.192,2.045l0.44,0.358l0.447,0.33l0.451,0.302l0.456,0.273l0.458,0.242l0.461,0.211
	l0.461,0.177l0.462,0.14l0.46,0.097l0.456,0.011l0.449-0.067l0.454-0.02l0.228,0.013l0.229,0.031l0.231,0.055l0.117,0.039
	l0.118,0.05l0.119,0.063l0.122,0.083l0.126,0.121l0.152,0.333l0.341,1.777l0.558,1.723l0.026,0.365l-0.052,0.165l-0.066,0.133
	l-0.074,0.112l-0.079,0.101l-0.084,0.09l-0.176,0.16l-0.186,0.138l-0.194,0.121L344.515,826l-0.427,0.158l-0.393,0.229l-0.358,0.306
	L343,827.038l-0.319,0.377l-0.302,0.407l-0.285,0.433l-0.268,0.459l-0.25,0.482l-0.232,0.504l-0.214,0.524l1.154,1.701l1.311,1.582
	l0.564-0.058l0.549-0.082l0.533-0.106l0.515-0.129l0.496-0.153l0.474-0.177l0.452-0.201l0.425-0.228l0.393-0.257l0.33-0.314
	l0.271-0.366l0.307-0.334l0.17-0.151l0.184-0.141l0.203-0.125l0.11-0.055l0.118-0.048l0.129-0.04l0.145-0.027l0.175-0.003
	l0.343,0.127l1.498,1.017l1.612,0.822l0.276,0.239l0.081,0.155l0.047,0.14l0.027,0.132l0.015,0.127l0.005,0.123l-0.012,0.238
	l-0.034,0.229l-0.052,0.222l-0.144,0.43l-0.191,0.413l-0.116,0.44l-0.036,0.469l0.005,0.481l0.041,0.493l0.074,0.501l0.105,0.508
	l0.135,0.515l0.164,0.518l0.192,0.521l0.221,0.522l2.018,0.387l2.046,0.191l0.358-0.439l0.33-0.446l0.302-0.452l0.273-0.455
	l0.242-0.459l0.211-0.46l0.177-0.462l0.14-0.462l0.095-0.46l0.012-0.455l-0.068-0.45l-0.019-0.453l0.013-0.228l0.031-0.23
	l0.055-0.23l0.039-0.117l0.049-0.118l0.064-0.119l0.083-0.121l0.121-0.126l0.333-0.152l1.777-0.342l1.722-0.558l0.365-0.026
	l0.167,0.053l0.132,0.065l0.113,0.074l0.1,0.08l0.09,0.083l0.16,0.177l0.138,0.187l0.121,0.192l0.201,0.407l0.158,0.426l0.229,0.395
	l0.306,0.356l0.344,0.337l0.378,0.32l0.407,0.302l0.433,0.285l0.458,0.268l0.482,0.251l0.505,0.231l0.525,0.213l1.701-1.153
	l1.582-1.312l-0.058-0.563l-0.082-0.55l-0.106-0.532l-0.129-0.515l-0.153-0.496l-0.177-0.475l-0.201-0.452l-0.228-0.425
	l-0.258-0.393l-0.313-0.33l-0.366-0.271l-0.334-0.307l-0.153-0.17l-0.14-0.186l-0.124-0.202l-0.055-0.109l-0.049-0.119l-0.039-0.129
	l-0.027-0.146l-0.004-0.174l0.127-0.343l1.016-1.498l0.824-1.612l0.239-0.276l0.155-0.081l0.14-0.046l0.132-0.028l0.127-0.014
	l0.123-0.006l0.237,0.012l0.229,0.034l0.223,0.052l0.43,0.145l0.413,0.19l0.44,0.116l0.469,0.035l0.482-0.005l0.493-0.041
	l0.501-0.073l0.508-0.105l0.514-0.135l0.517-0.164l0.521-0.192l0.523-0.221l0.386-2.018l0.192-2.047L380.418,819.667z
	 M359.434,826.136c-3.913,0-7.087-3.173-7.087-7.087c0-3.913,3.174-7.086,7.087-7.086c3.913,0,7.087,3.173,7.087,7.086
	C366.521,822.963,363.347,826.136,359.434,826.136z"/>
<path id="Gear_90" fill="#CCCCCC" stroke="#000000" stroke-width="0.1" stroke-linecap="round" stroke-linejoin="round" stroke-miterlimit="10" d="
	M736.808,960.343l0.432-0.117l0.86-0.244l1.724-0.523l1.724-0.576l1.723-0.622l0.102-4.537l-1.693-0.699l-1.695-0.651l-1.698-0.602
	l-0.851-0.281l-0.425-0.137l-0.425-0.132l-0.059-4.697l0.421-0.144l0.422-0.146l0.842-0.304l1.683-0.644l1.68-0.694l1.675-0.74
	l-0.215-4.533l-1.738-0.579l-1.738-0.532l-1.735-0.481l-0.867-0.222l-0.434-0.105l-0.434-0.103l-0.386-4.682l0.411-0.172l0.41-0.176
	l0.818-0.361l1.633-0.76l1.627-0.81l1.619-0.855l-0.531-4.508l-1.773-0.455l-1.771-0.409l-1.765-0.36l-0.881-0.161l-0.44-0.075
	l-0.438-0.071l-0.712-4.645l0.396-0.2l0.397-0.202l0.792-0.417l1.577-0.873l1.565-0.92l1.557-0.968l-0.845-4.459l-1.802-0.332
	l-1.794-0.283l-1.786-0.236l-0.89-0.1l-0.444-0.044l-0.442-0.041l-1.035-4.583l0.383-0.227l0.382-0.231l0.761-0.472l1.512-0.979
	l1.498-1.027l1.484-1.074l-1.152-4.389l-1.821-0.205l-1.81-0.158l-1.798-0.111l-0.895-0.035l-0.446-0.015l-0.445-0.01l-1.351-4.499
	l0.365-0.254l0.364-0.257l0.727-0.523l1.439-1.083l1.424-1.13l1.405-1.174l-1.457-4.298l-1.83-0.077l-1.815-0.032l-1.802,0.016
	l-0.896,0.025l-0.445,0.019l-0.444,0.021l-1.662-4.394l0.347-0.279l0.346-0.282l0.688-0.572l1.361-1.181l1.34-1.226l1.321-1.271
	l-1.754-4.186l-1.83,0.051l-1.814,0.094l-1.796,0.142l-0.892,0.089l-0.443,0.048l-0.442,0.052l-1.964-4.267l0.327-0.303l0.325-0.305
	l0.646-0.62l1.274-1.272l1.252-1.316l1.229-1.358l-2.04-4.054l-1.823,0.179l-1.804,0.221l-1.781,0.266l-0.883,0.15l-0.438,0.08
	l-0.438,0.082l-2.257-4.12l0.306-0.324l0.303-0.327l0.602-0.663l1.184-1.358l1.156-1.4l1.132-1.441l-2.318-3.901l-1.807,0.305
	l-1.783,0.347l-1.759,0.39l-0.87,0.211l-0.433,0.111l-0.431,0.112l-2.539-3.953l0.282-0.345l0.279-0.347l0.554-0.703l1.086-1.438
	l1.056-1.478l1.028-1.517l-2.585-3.73l-1.781,0.43l-1.754,0.471l-1.728,0.511l-0.854,0.271l-0.423,0.141l-0.422,0.143l-2.81-3.766
	l0.258-0.363l0.255-0.367l0.503-0.739l0.982-1.511l0.95-1.548l0.92-1.584l-2.839-3.541l-1.746,0.553l-1.718,0.592l-1.688,0.631
	l-0.831,0.33l-0.412,0.169l-0.411,0.172l-3.065-3.561l0.231-0.381l0.229-0.383l0.451-0.772l0.874-1.575l0.84-1.611l0.809-1.645
	l-3.079-3.334l-1.704,0.674l-1.672,0.71l-1.641,0.746l-0.807,0.388l-0.4,0.197l-0.396,0.201l-3.307-3.34l0.204-0.395l0.201-0.398
	l0.396-0.803l0.763-1.633l0.725-1.665l0.691-1.697l-3.304-3.11l-1.652,0.791l-1.619,0.823l-1.584,0.859l-0.778,0.443l-0.385,0.225
	l-0.382,0.228l-3.531-3.1l0.177-0.409l0.173-0.411l0.339-0.828l0.646-1.682l0.608-1.712l0.571-1.741l-3.514-2.873l-1.593,0.904
	l-1.558,0.936l-1.52,0.968l-0.745,0.497l-0.369,0.251l-0.365,0.253L656,791.137l0.146-0.421l0.145-0.422l0.28-0.85l0.527-1.723
	l0.487-1.751l0.447-1.775l-3.704-2.621l-1.527,1.013l-1.487,1.042l-1.448,1.071l-0.709,0.547l-0.351,0.276l-0.348,0.278
	l-3.927-2.578l0.117-0.43l0.113-0.431l0.221-0.868l0.406-1.755l0.364-1.78l0.322-1.803l-3.878-2.356l-1.452,1.117l-1.412,1.144
	l-1.37,1.17l-0.669,0.595l-0.33,0.3l-0.327,0.302l-4.098-2.298l0.087-0.437l0.084-0.438l0.159-0.881l0.283-1.779l0.237-1.801
	l0.196-1.821l-4.033-2.079l-1.37,1.216l-1.328,1.237l-1.286,1.264l-0.625,0.64l-0.309,0.322l-0.306,0.324l-4.248-2.007l0.057-0.44
	l0.054-0.443l0.097-0.89l0.158-1.795l0.112-1.813l0.068-1.831l-4.169-1.793l-1.282,1.309l-1.239,1.329l-1.193,1.348l-0.58,0.683
	l-0.285,0.344l-0.282,0.345l-4.377-1.705l0.025-0.445l0.021-0.445l0.035-0.895l0.033-1.801l-0.015-1.817l-0.06-1.831l-4.284-1.498
	l-1.187,1.395l-1.144,1.412l-1.098,1.429l-0.531,0.721l-0.26,0.362l-0.257,0.364l-4.486-1.396l-0.006-0.444L594,759.198
	l-0.028-0.896l-0.093-1.799l-0.141-1.811l-0.188-1.822l-4.377-1.196l-1.088,1.475l-1.042,1.487l-0.995,1.502l-0.479,0.757
	l-0.234,0.379l-0.232,0.381l-4.571-1.079l-0.037-0.444l-0.04-0.443l-0.09-0.892l-0.219-1.788l-0.267-1.797l-0.313-1.805l-4.45-0.888
	l-0.982,1.547l-0.936,1.557l-0.889,1.567l-0.425,0.788l-0.207,0.395l-0.204,0.396l-4.637-0.759l-0.068-0.439l-0.07-0.44
	l-0.151-0.882l-0.343-1.769l-0.393-1.774l-0.438-1.779l-4.501-0.574l-0.872,1.61l-0.825,1.619l-0.775,1.626l-0.369,0.815
	l-0.18,0.408l-0.176,0.409l-4.679-0.432l-0.098-0.436l-0.102-0.434l-0.213-0.87l-0.465-1.74l-0.516-1.741l-0.562-1.744l-4.53-0.26
	l-0.758,1.668l-0.71,1.672l-0.661,1.676l-0.311,0.84l-0.15,0.42l-0.146,0.42l-4.697-0.104l-0.128-0.427l-0.132-0.427l-0.273-0.852
	l-0.585-1.704l-0.635-1.702l-0.683-1.7l-4.537,0.058l-0.64,1.717l-0.592,1.717l-0.542,1.718l-0.252,0.859l-0.121,0.43l-0.117,0.429
	l-4.692,0.224l-0.158-0.416l-0.161-0.416l-0.332-0.832l-0.702-1.658l-0.752-1.654l-0.799-1.648l-4.522,0.374l-0.519,1.757
	l-0.472,1.755l-0.42,1.751l-0.191,0.875l-0.09,0.438l-0.088,0.436l-4.666,0.55l-0.187-0.403l-0.188-0.404l-0.389-0.806l-0.818-1.606
	l-0.865-1.597l-0.912-1.589l-4.484,0.688l-0.395,1.789l-0.348,1.783l-0.297,1.776l-0.13,0.887l-0.061,0.441l-0.056,0.441
	l-4.617,0.874l-0.214-0.391l-0.217-0.39l-0.444-0.777l-0.927-1.545l-0.976-1.532l-1.021-1.521l-4.426,0.999l-0.27,1.813
	l-0.221,1.804l-0.174,1.793l-0.067,0.892l-0.029,0.446l-0.025,0.444l-4.544,1.193l-0.24-0.375l-0.244-0.373l-0.498-0.743
	l-1.032-1.478l-1.079-1.461l-1.125-1.446l-4.346,1.306l-0.141,1.826l-0.097,1.814l-0.047,1.801l-0.006,0.896l0.003,0.445
	l0.005,0.445l-4.448,1.508l-0.268-0.356l-0.269-0.355l-0.548-0.708l-1.134-1.4l-1.179-1.383l-1.222-1.364l-4.245,1.605l-0.013,1.832
	l0.03,1.816l0.078,1.8l0.058,0.893l0.033,0.445l0.036,0.444l-4.333,1.814l-0.291-0.338l-0.293-0.336l-0.597-0.667l-1.228-1.319
	l-1.272-1.297l-1.314-1.274l-4.123,1.896l0.115,1.829l0.158,1.811l0.203,1.79l0.12,0.887l0.063,0.44l0.067,0.44l-4.196,2.113
	l-0.313-0.317l-0.317-0.313l-0.641-0.625l-1.317-1.229l-1.359-1.205l-1.4-1.181l-3.98,2.181l0.242,1.815l0.284,1.795l0.327,1.771
	l0.181,0.877l0.095,0.437l0.099,0.434l-4.038,2.4l-0.335-0.294l-0.338-0.291l-0.684-0.578l-1.398-1.135l-1.441-1.107l-1.479-1.081
	l-3.818,2.453l0.368,1.795l0.408,1.771l0.45,1.743l0.241,0.862l0.125,0.429l0.128,0.427l-3.86,2.676l-0.354-0.271l-0.356-0.267
	l-0.724-0.529l-1.475-1.035l-1.515-1.004l-1.551-0.974l-3.637,2.713l0.492,1.765l0.529,1.737l0.571,1.709l0.302,0.843l0.154,0.418
	l0.158,0.417l-3.666,2.938l-0.372-0.244l-0.375-0.242l-0.757-0.477l-1.543-0.929l-1.581-0.896l-1.615-0.864l-3.439,2.96l0.613,1.727
	l0.651,1.696l0.688,1.664l0.359,0.82l0.184,0.407l0.187,0.404l-3.452,3.187l-0.388-0.217l-0.392-0.216l-0.789-0.424l-1.604-0.818
	l-1.639-0.783l-1.672-0.75l-3.226,3.194l0.733,1.679l0.768,1.646l0.803,1.613l0.416,0.792l0.211,0.394l0.215,0.391l-3.222,3.42
	l-0.402-0.189l-0.404-0.188l-0.817-0.368l-1.657-0.705l-1.689-0.667l-1.72-0.631l-2.994,3.41l0.848,1.624l0.88,1.589l0.914,1.553
	l0.471,0.763l0.238,0.377l0.24,0.374l-2.974,3.637l-0.415-0.161l-0.417-0.159l-0.84-0.31l-1.703-0.587l-1.732-0.548l-1.76-0.51
	l-2.749,3.611l0.96,1.561l0.989,1.523l1.02,1.485l0.522,0.727l0.264,0.36l0.266,0.356l-2.714,3.835l-0.425-0.132l-0.427-0.13
	l-0.859-0.25l-1.74-0.467l-1.766-0.426l-1.791-0.386l-2.49,3.795l1.066,1.489l1.093,1.451l1.121,1.41l0.571,0.688l0.288,0.341
	l0.291,0.338l-2.44,4.015l-0.433-0.102l-0.436-0.1l-0.875-0.189l-1.768-0.346l-1.791-0.301l-1.814-0.26l-2.219,3.959l1.167,1.412
	l1.191,1.371l1.217,1.329l0.618,0.646l0.312,0.319l0.313,0.316l-2.153,4.176l-0.44-0.071l-0.44-0.069l-0.885-0.128l-1.788-0.221
	l-1.81-0.176l-1.827-0.132l-1.938,4.104l1.263,1.327l1.284,1.285l1.307,1.239l0.662,0.604l0.333,0.297l0.334,0.294l-1.856,4.315
	l-0.443-0.041l-0.445-0.037l-0.892-0.066l-1.799-0.096l-1.816-0.049l-1.832-0.005l-1.646,4.229l1.352,1.236l1.371,1.191l1.39,1.146
	l0.702,0.556l0.354,0.273l0.354,0.269l-1.551,4.436l-0.445-0.011l-0.445-0.007l-0.896-0.003l-1.802,0.03l-1.815,0.078l-1.827,0.123
	l-1.349,4.333l1.437,1.139l1.449,1.093l1.468,1.047l0.738,0.506l0.371,0.247l0.372,0.244l-1.238,4.532l-0.444,0.021l-0.445,0.024
	l-0.893,0.059l-1.795,0.155l-1.806,0.204l-1.814,0.251l-1.042,4.417l1.511,1.035l1.523,0.99l1.535,0.942l0.772,0.451l0.388,0.222
	l0.389,0.218l-0.92,4.606l-0.441,0.053l-0.443,0.056l-0.886,0.121l-1.78,0.28l-1.787,0.33l-1.792,0.376l-0.731,4.479l1.579,0.928
	l1.589,0.882l1.598,0.832l0.802,0.396l0.402,0.194l0.403,0.189l-0.597,4.66l-0.437,0.083l-0.438,0.086l-0.876,0.184l-1.756,0.403
	l-1.759,0.453l-1.762,0.501l-0.418,4.52l1.641,0.814l1.646,0.769l1.651,0.719l0.828,0.34l0.415,0.165l0.414,0.162l-0.268,4.689
	l-0.432,0.113l-0.431,0.117l-0.861,0.243l-1.723,0.525l-1.724,0.575l-1.724,0.622l-0.101,4.537l1.693,0.699l1.695,0.65l1.698,0.603
	l0.85,0.281l0.425,0.136l0.426,0.133l0.059,4.697l-0.421,0.143l-0.422,0.147l-0.842,0.302l-1.684,0.645l-1.679,0.694l-1.675,0.741
	l0.216,4.533l1.738,0.578l1.736,0.531l1.736,0.482l0.867,0.223l0.433,0.105l0.435,0.102l0.386,4.682l-0.41,0.174l-0.411,0.174
	l-0.818,0.361l-1.634,0.76l-1.627,0.811l-1.619,0.855l0.531,4.508l1.774,0.455l1.77,0.41l1.766,0.359l0.881,0.16l0.439,0.074
	l0.439,0.072l0.712,4.645l-0.397,0.199l-0.396,0.205l-0.792,0.416l-1.577,0.873l-1.566,0.92l-1.556,0.967l0.845,4.459l1.802,0.332
	l1.794,0.285l1.787,0.234l0.889,0.1l0.444,0.045l0.442,0.041l1.035,4.582l-0.383,0.227l-0.382,0.232l-0.762,0.471l-1.511,0.98
	l-1.498,1.027l-1.485,1.072l1.153,4.389l1.821,0.205l1.809,0.16l1.799,0.109l0.895,0.037l0.446,0.014l0.444,0.01l1.353,4.5
	l-0.366,0.252l-0.365,0.258l-0.726,0.523l-1.44,1.084l-1.423,1.129l-1.406,1.174l1.457,4.297l1.83,0.078l1.816,0.033l1.802-0.016
	l0.896-0.025l0.444-0.018l0.445-0.021l1.662,4.395l-0.348,0.277l-0.346,0.281l-0.688,0.574l-1.361,1.18l-1.34,1.227l-1.321,1.27
	l1.753,4.186l1.831-0.051l1.814-0.094l1.796-0.141l0.891-0.088l0.444-0.051l0.441-0.051l1.965,4.268l-0.327,0.303l-0.325,0.305
	l-0.646,0.619l-1.274,1.271l-1.252,1.318l-1.229,1.357l2.041,4.055l1.823-0.178l1.803-0.223l1.782-0.266l0.882-0.15l0.439-0.078
	l0.438-0.084l2.257,4.119l-0.305,0.324l-0.303,0.328l-0.603,0.662l-1.183,1.359l-1.157,1.4l-1.131,1.441l2.318,3.9l1.807-0.305
	l1.783-0.346l1.759-0.389l0.87-0.213l0.432-0.109l0.432-0.113l2.539,3.953l-0.282,0.344l-0.279,0.348l-0.554,0.703l-1.086,1.439
	l-1.057,1.477l-1.027,1.518l2.585,3.729l1.781-0.43l1.755-0.469l1.727-0.512l0.854-0.271l0.424-0.141l0.421-0.143l2.809,3.766
	l-0.257,0.363l-0.255,0.367l-0.503,0.74l-0.983,1.51l-0.949,1.549l-0.921,1.584l2.84,3.541l1.745-0.555l1.719-0.59l1.688-0.631
	l0.831-0.33l0.413-0.17l0.411-0.172l3.065,3.561l-0.231,0.381l-0.229,0.383l-0.45,0.773l-0.874,1.576l-0.84,1.609l-0.808,1.645
	l3.078,3.334l1.704-0.672l1.672-0.711l1.64-0.746l0.808-0.389l0.399-0.197l0.397-0.199l3.306,3.338l-0.204,0.395l-0.2,0.398
	l-0.396,0.803l-0.763,1.633l-0.726,1.666l-0.69,1.695l3.304,3.113l1.652-0.791l1.619-0.826l1.584-0.859l0.777-0.441l0.385-0.227
	l0.384-0.227l3.529,3.1l-0.176,0.408l-0.173,0.412l-0.339,0.828l-0.646,1.682l-0.607,1.711l-0.571,1.742l3.513,2.873l1.594-0.904
	l1.558-0.936l1.519-0.967l0.745-0.496l0.369-0.252l0.366-0.254l3.738,2.846l-0.147,0.42l-0.144,0.422l-0.28,0.852l-0.528,1.723
	l-0.486,1.75l-0.447,1.775l3.704,2.621l1.526-1.012l1.488-1.043l1.448-1.07l0.709-0.547l0.35-0.277l0.349-0.277l3.927,2.578
	l-0.117,0.428l-0.114,0.432l-0.22,0.867l-0.407,1.756l-0.363,1.779l-0.322,1.803l3.878,2.357l1.452-1.117l1.412-1.143l1.371-1.17
	l0.668-0.596l0.33-0.299l0.326-0.303l4.099,2.299l-0.087,0.436l-0.084,0.438l-0.159,0.881l-0.283,1.779l-0.238,1.801l-0.195,1.822
	l4.032,2.08l1.37-1.215l1.329-1.24l1.286-1.262l0.625-0.641l0.308-0.322l0.307-0.324l4.248,2.006l-0.057,0.441l-0.054,0.443
	l-0.097,0.891l-0.158,1.793l-0.113,1.814l-0.067,1.83l4.169,1.795l1.281-1.309l1.239-1.328l1.194-1.35l0.58-0.682l0.285-0.344
	l0.281-0.346l4.377,1.705l-0.024,0.445l-0.022,0.445l-0.035,0.895l-0.032,1.801l0.015,1.816l0.059,1.832l4.284,1.498l1.188-1.395
	l1.143-1.41l1.097-1.43l0.531-0.721l0.26-0.363l0.258-0.363l4.485,1.395l0.006,0.447l0.01,0.445l0.027,0.895l0.094,1.799
	l0.141,1.813l0.187,1.82l4.377,1.197l1.089-1.475l1.042-1.488l0.994-1.502l0.479-0.756l0.234-0.379l0.231-0.381l4.572,1.078
	l0.037,0.445l0.04,0.443l0.09,0.891l0.218,1.789l0.268,1.797l0.313,1.805l4.45,0.887l0.981-1.545l0.937-1.559l0.888-1.566
	l0.425-0.789l0.207-0.395l0.204-0.395l4.637,0.756l0.068,0.439l0.07,0.441l0.152,0.883l0.342,1.77l0.393,1.773l0.439,1.777
	l4.5,0.576l0.873-1.611l0.824-1.619l0.776-1.625l0.368-0.816l0.18-0.408l0.176-0.408l4.68,0.432l0.098,0.434l0.101,0.436
	l0.213,0.869l0.466,1.74l0.515,1.742l0.562,1.744l4.53,0.26l0.758-1.668l0.71-1.672l0.661-1.678l0.312-0.838l0.149-0.42l0.147-0.42
	l4.697,0.105l0.128,0.426l0.132,0.426l0.272,0.852l0.585,1.703l0.636,1.703l0.682,1.701l4.538-0.057l0.639-1.719l0.592-1.717
	l0.542-1.719l0.253-0.859l0.12-0.428l0.117-0.43l4.693-0.223l0.158,0.416l0.161,0.416l0.331,0.83l0.702,1.66l0.752,1.654l0.8,1.646
	l4.522-0.373l0.519-1.756l0.471-1.756l0.421-1.752l0.191-0.873l0.09-0.438l0.088-0.438l4.665-0.549l0.187,0.404l0.189,0.404
	l0.389,0.807l0.817,1.605l0.866,1.598l0.911,1.588l4.485-0.688l0.395-1.789l0.348-1.785l0.297-1.775l0.13-0.885l0.061-0.443
	l0.056-0.441l4.617-0.875l0.214,0.393l0.217,0.389l0.444,0.777l0.927,1.545l0.975,1.533l1.021,1.521l4.426-1l0.269-1.813
	l0.222-1.803l0.174-1.793l0.067-0.893l0.028-0.445l0.026-0.443l4.544-1.195l0.24,0.375l0.244,0.373l0.498,0.744l1.031,1.477
	l1.08,1.461l1.124,1.447l4.346-1.307l0.142-1.826l0.096-1.814l0.048-1.801l0.005-0.895l-0.003-0.445l-0.005-0.447l4.449-1.506
	l0.267,0.355l0.27,0.355l0.548,0.709l1.133,1.4l1.18,1.383l1.222,1.363l4.245-1.605l0.013-1.832l-0.031-1.816l-0.078-1.799
	l-0.057-0.895l-0.034-0.445l-0.036-0.441l4.333-1.816l0.291,0.338l0.293,0.336l0.598,0.668l1.227,1.318l1.273,1.297l1.313,1.275
	l4.123-1.898l-0.115-1.828l-0.157-1.809l-0.203-1.791l-0.119-0.887l-0.065-0.441l-0.066-0.441l4.195-2.111l0.314,0.316l0.316,0.314
	l0.641,0.625l1.317,1.229l1.359,1.205l1.4,1.182l3.979-2.182l-0.241-1.814l-0.284-1.795l-0.327-1.771l-0.181-0.877l-0.096-0.436
	l-0.098-0.436l4.039-2.4l0.334,0.295l0.338,0.291l0.683,0.578l1.399,1.137l1.441,1.105l1.479,1.08l3.818-2.453l-0.368-1.793
	l-0.408-1.771l-0.45-1.744l-0.242-0.861l-0.125-0.428l-0.128-0.426l3.861-2.678l0.355,0.27l0.356,0.268l0.722,0.529l1.476,1.035
	l1.514,1.004l1.551,0.975l3.638-2.715l-0.492-1.764l-0.53-1.738l-0.571-1.707l-0.302-0.844l-0.154-0.418l-0.157-0.416l3.666-2.939
	l0.372,0.244l0.375,0.242l0.757,0.477l1.543,0.93l1.581,0.896l1.615,0.863l3.439-2.961l-0.614-1.727l-0.65-1.695l-0.689-1.664
	l-0.358-0.82l-0.185-0.406l-0.186-0.404l3.452-3.188l0.388,0.217l0.391,0.217l0.789,0.424l1.604,0.818l1.639,0.783l1.672,0.748
	l3.226-3.191l-0.733-1.68l-0.768-1.646l-0.804-1.613l-0.416-0.793l-0.211-0.393l-0.214-0.391l3.221-3.42l0.403,0.191l0.404,0.186
	l0.816,0.367l1.658,0.707l1.689,0.666l1.72,0.631l2.994-3.41l-0.849-1.625l-0.88-1.588l-0.914-1.553l-0.47-0.762l-0.238-0.377
	l-0.24-0.375l2.974-3.637l0.415,0.162l0.417,0.158l0.84,0.309l1.703,0.588l1.732,0.549l1.76,0.51l2.749-3.611l-0.96-1.561
	l-0.989-1.523l-1.02-1.484l-0.522-0.729l-0.264-0.359l-0.267-0.357l2.714-3.834l0.426,0.131l0.427,0.129l0.858,0.25l1.74,0.469
	l1.767,0.426l1.791,0.385l2.489-3.793l-1.064-1.49l-1.093-1.451l-1.122-1.412l-0.571-0.688l-0.288-0.34l-0.291-0.338l2.44-4.016
	l0.433,0.104l0.435,0.098l0.875,0.191l1.769,0.344l1.791,0.301l1.813,0.26l2.22-3.959l-1.167-1.412l-1.191-1.371l-1.217-1.328
	l-0.618-0.646l-0.312-0.32l-0.313-0.316l2.153-4.176l0.439,0.072l0.441,0.068l0.886,0.129l1.787,0.221l1.809,0.176l1.827,0.131
	l1.938-4.104l-1.264-1.326l-1.283-1.285l-1.308-1.24l-0.662-0.604l-0.333-0.297l-0.334-0.293l1.857-4.316l0.443,0.041l0.444,0.037
	l0.893,0.066l1.799,0.096l1.815,0.049l1.832,0.006l1.647-4.23l-1.353-1.234l-1.37-1.191l-1.391-1.148l-0.702-0.555l-0.353-0.273
	l-0.354-0.27l1.552-4.434l0.444,0.01l0.446,0.006l0.896,0.004l1.802-0.029l1.814-0.078l1.828-0.123l1.349-4.334l-1.437-1.139
	l-1.45-1.094l-1.467-1.045l-0.739-0.506l-0.371-0.248l-0.372-0.244l1.238-4.531l0.445-0.021l0.445-0.025l0.893-0.059l1.795-0.154
	l1.805-0.205l1.815-0.25l1.043-4.418l-1.512-1.035l-1.523-0.99l-1.536-0.941l-0.771-0.451l-0.389-0.221l-0.388-0.219l0.919-4.607
	l0.442-0.053l0.442-0.055l0.888-0.121l1.778-0.281l1.787-0.328l1.792-0.377l0.732-4.479l-1.579-0.928l-1.589-0.881l-1.599-0.832
	l-0.802-0.398l-0.401-0.193l-0.403-0.189l0.596-4.662l0.438-0.082l0.438-0.086l0.876-0.182l1.756-0.404l1.76-0.455l1.762-0.5
	l0.418-4.518l-1.641-0.816l-1.646-0.768l-1.652-0.719l-0.828-0.34l-0.413-0.166l-0.415-0.162l0.269-4.689L736.808,960.343z
	 M591.579,785.266l7.388-3.977l11.612,4.694l11.26,5.484l10.854,6.252l10.396,6.986l9.888,7.689l9.333,8.354l8.732,8.98l8.091,9.562
	l7.41,10.098l6.694,10.587l-2.593,7.979l-115.847,52.634l-10.394-2.08l-3.903-9.854L591.579,785.266z M442.641,796.857l10.91-6.152
	l11.31-5.384l11.655-4.588l11.943-3.772l12.176-2.936l12.352-2.088l12.465-1.229l12.52-0.364l12.516,0.503l12.45,1.367l4.622,7.002
	l-31.077,123.39l-8.106,6.83l-10.139-3.093l-77.093-101.229L442.641,796.857z M551.141,951.38c0,7.828-6.347,14.174-14.173,14.174
	c-7.827,0-14.174-6.346-14.174-14.174c0-7.826,6.347-14.173,14.174-14.173C544.794,937.207,551.141,943.554,551.141,951.38z
	 M359.337,916.419l2.843-12.199l3.679-11.973l4.499-11.69l5.296-11.351l6.068-10.957l6.811-10.512l7.521-10.016l8.196-9.472
	l8.831-8.882l8.356,0.752l77.093,101.23l0.286,10.596l-8.739,5.998l-127.212-2.842l-5.521-6.317L359.337,916.419z M415.69,1077.349
	l-8.382,0.379l-8.427-9.268l-7.765-9.828l-7.066-10.342l-6.335-10.807l-5.572-11.217l-4.783-11.576l-3.972-11.879l-3.142-12.125
	l-2.295-12.313l-1.438-12.443l5.798-6.064l127.212,2.842l8.462,6.383l-0.759,10.574L415.69,1077.349z M554.908,1131.528
	l-12.499,0.809l-12.525-0.055l-12.491-0.924l-12.397-1.785l-12.245-2.637l-12.033-3.477l-11.764-4.303l-11.438-5.104l-11.059-5.883
	l-10.624-6.635l-1.127-8.314l81.537-97.686l10.267-2.637l7.793,7.186l25.536,124.656L554.908,1131.528z M681.838,1059.952
	l-7.854,9.756l-8.51,9.191l-9.125,8.58l-9.696,7.93l-10.222,7.238l-10.696,6.516l-11.123,5.762l-11.494,4.977l-11.812,4.17
	l-7.201-4.303l-25.536-124.654l4.34-9.67l10.476-1.613l113.38,57.756l2.234,8.088L681.838,1059.952z M717.248,967.931l-1.575,12.426
	l-2.432,12.287l-3.275,12.088l-4.103,11.836l-7.855,2.947l-113.38-57.756l-4.854-9.422l5.27-9.196l115.847-52.635l7.716,3.297
	l3.57,12.006l2.732,12.224l1.879,12.384l1.02,12.484l0.153,12.523L717.248,967.931z"/>
<path id="Gear_16" fill="#E6E6E6" stroke="#000000" stroke-width="0.1" stroke-linecap="round" stroke-linejoin="round" stroke-miterlimit="10" d="
	M575.779,951.625l-0.679-0.366l-0.683-0.328l-0.686-0.291l-0.686-0.251l-0.687-0.205l-0.687-0.154l-0.684-0.084l-0.343-0.039
	l-0.343-0.078l-0.174-0.059l-0.174-0.083l-0.178-0.122l-0.191-0.344l-0.486-3.86l0.1-0.38l0.141-0.163l0.148-0.123l0.152-0.101
	l0.314-0.16l0.32-0.124l0.643-0.251l0.625-0.319l0.615-0.37l0.603-0.413l0.591-0.452l0.579-0.489l0.567-0.522l0.555-0.556
	l-1.359-4.074l-0.777-0.11l-0.767-0.078l-0.757-0.042l-0.744-0.007l-0.73,0.031l-0.713,0.073l-0.691,0.121l-0.664,0.184
	l-0.331,0.094l-0.349,0.061l-0.182,0.011l-0.193-0.01l-0.209-0.045l-0.309-0.245l-1.928-3.379l-0.055-0.39l0.068-0.204l0.09-0.17
	l0.104-0.152l0.229-0.268l0.25-0.237l0.496-0.478l0.457-0.535l0.426-0.577l0.397-0.612l0.373-0.644l0.349-0.672l0.324-0.7
	l0.301-0.726l-2.815-3.243l-0.761,0.195l-0.738,0.222l-0.715,0.25l-0.69,0.278l-0.662,0.309l-0.631,0.34l-0.594,0.376l-0.543,0.425
	l-0.271,0.214l-0.297,0.188l-0.165,0.08l-0.182,0.065l-0.211,0.039l-0.378-0.108l-3.075-2.385l-0.198-0.339l-0.016-0.215
	l0.018-0.192l0.037-0.179l0.107-0.336l0.141-0.314l0.275-0.631l0.218-0.669l0.173-0.696l0.135-0.718l0.098-0.737l0.063-0.755
	l0.032-0.771v-0.785l-3.842-1.92l-0.629,0.472l-0.596,0.488l-0.565,0.504l-0.531,0.522l-0.494,0.538l-0.452,0.555l-0.404,0.576
	l-0.34,0.599l-0.168,0.301l-0.203,0.288l-0.121,0.137l-0.143,0.13l-0.181,0.116l-0.39,0.045l-3.754-1.026l-0.313-0.238l-0.097-0.192
	l-0.057-0.184l-0.035-0.18l-0.027-0.351l0.009-0.345l0.015-0.689l-0.057-0.7l-0.105-0.709l-0.152-0.715l-0.191-0.719l-0.23-0.722
	l-0.264-0.724l-0.302-0.725l-4.284-0.303l-0.4,0.675l-0.364,0.68l-0.329,0.682l-0.291,0.685l-0.25,0.686l-0.205,0.687l-0.154,0.686
	l-0.084,0.684l-0.039,0.342l-0.078,0.344l-0.06,0.173l-0.082,0.174l-0.122,0.177l-0.344,0.191l-3.859,0.488l-0.382-0.1l-0.161-0.141
	l-0.123-0.148l-0.102-0.153l-0.161-0.314l-0.123-0.321l-0.251-0.642l-0.32-0.626l-0.369-0.614l-0.414-0.603l-0.451-0.59l-0.488-0.58
	l-0.523-0.567l-0.555-0.555l-4.074,1.359l-0.111,0.777l-0.076,0.768l-0.043,0.756l-0.006,0.744l0.031,0.73l0.072,0.713l0.121,0.693
	l0.184,0.664l0.095,0.331l0.06,0.347l0.012,0.183l-0.01,0.192l-0.046,0.211l-0.243,0.308l-3.381,1.927l-0.389,0.054l-0.204-0.068
	l-0.171-0.09l-0.151-0.102l-0.269-0.229l-0.237-0.25l-0.478-0.496l-0.534-0.457l-0.577-0.426l-0.611-0.398l-0.645-0.373
	l-0.674-0.348l-0.699-0.324l-0.725-0.301l-3.244,2.815l0.195,0.761l0.223,0.738l0.25,0.715l0.277,0.69l0.309,0.663l0.341,0.63
	l0.376,0.594l0.424,0.543l0.214,0.27l0.189,0.298l0.079,0.164l0.065,0.182l0.038,0.211l-0.107,0.379l-2.385,3.074l-0.34,0.198
	l-0.214,0.016l-0.192-0.018l-0.179-0.037l-0.336-0.108l-0.313-0.14l-0.633-0.276l-0.668-0.217l-0.695-0.173l-0.719-0.134
	l-0.738-0.098l-0.754-0.064l-0.771-0.032h-0.785l-1.92,3.842l0.472,0.628l0.487,0.597l0.505,0.566l0.521,0.53l0.537,0.494
	l0.557,0.453l0.575,0.404l0.601,0.34l0.301,0.167l0.287,0.203l0.137,0.121l0.131,0.143l0.115,0.181l0.045,0.391l-1.025,3.753
	l-0.238,0.313l-0.191,0.096l-0.186,0.057l-0.179,0.035l-0.353,0.028l-0.344-0.009l-0.688-0.013l-0.701,0.055l-0.709,0.107
	l-0.714,0.151l-0.719,0.191l-0.723,0.23l-0.724,0.266l-0.726,0.3l-0.304,4.284l0.677,0.4l0.678,0.365l0.684,0.329l0.686,0.291
	l0.686,0.25l0.686,0.206l0.688,0.152l0.684,0.084l0.342,0.04l0.344,0.077l0.173,0.061l0.175,0.082l0.178,0.122l0.19,0.344
	l0.487,3.859l-0.1,0.382l-0.141,0.161l-0.148,0.123l-0.152,0.102l-0.314,0.161l-0.322,0.123l-0.641,0.252l-0.626,0.318l-0.614,0.37
	l-0.603,0.413l-0.591,0.452l-0.58,0.488l-0.566,0.523l-0.555,0.556l1.359,4.073l0.776,0.111l0.767,0.077l0.758,0.043l0.744,0.007
	l0.729-0.032l0.713-0.073l0.692-0.119l0.664-0.186l0.33-0.094l0.349-0.061l0.183-0.011l0.192,0.009l0.21,0.047l0.309,0.243
	l1.928,3.38l0.054,0.39l-0.067,0.204l-0.091,0.171l-0.103,0.151l-0.229,0.269l-0.25,0.237l-0.497,0.478l-0.456,0.534l-0.426,0.577
	l-0.398,0.611l-0.373,0.645l-0.348,0.673l-0.324,0.7l-0.301,0.725l2.815,3.244l0.76-0.195l0.739-0.222l0.715-0.25l0.689-0.279
	l0.662-0.308l0.631-0.34l0.595-0.377l0.543-0.424l0.271-0.215l0.297-0.188l0.164-0.08l0.182-0.065l0.212-0.037l0.378,0.107
	l3.074,2.384l0.199,0.341l0.016,0.214l-0.018,0.191l-0.037,0.181l-0.108,0.335l-0.14,0.314l-0.276,0.631l-0.218,0.669l-0.172,0.695
	l-0.135,0.718l-0.098,0.738l-0.064,0.755l-0.031,0.771v0.784l3.842,1.92l0.628-0.472l0.597-0.487l0.565-0.506l0.53-0.521
	l0.494-0.538l0.453-0.556l0.404-0.575l0.339-0.601l0.168-0.301l0.203-0.288l0.121-0.137l0.144-0.129l0.18-0.117l0.391-0.045
	l3.753,1.027l0.313,0.236l0.097,0.193l0.058,0.184l0.034,0.181l0.028,0.351l-0.01,0.344l-0.014,0.689l0.057,0.701l0.105,0.709
	l0.152,0.714l0.191,0.719l0.229,0.722l0.265,0.726l0.301,0.725l4.285,0.304l0.399-0.677l0.364-0.679l0.33-0.683l0.291-0.685
	l0.25-0.687l0.205-0.687l0.153-0.686l0.084-0.685l0.039-0.342l0.078-0.344l0.06-0.173l0.082-0.175l0.123-0.177l0.344-0.19
	l3.859-0.488l0.381,0.1l0.162,0.141l0.123,0.148l0.102,0.152l0.16,0.314l0.123,0.321l0.252,0.642l0.319,0.627l0.369,0.613
	l0.413,0.603l0.453,0.591l0.488,0.579l0.522,0.568l0.556,0.555l4.073-1.36l0.111-0.776l0.077-0.768l0.043-0.757l0.006-0.744
	l-0.031-0.729l-0.072-0.713l-0.121-0.693l-0.185-0.664l-0.094-0.331l-0.06-0.347l-0.012-0.184l0.01-0.192l0.045-0.21l0.244-0.309
	l3.379-1.928l0.391-0.053l0.203,0.066l0.172,0.092l0.15,0.102l0.27,0.229l0.236,0.249l0.478,0.496l0.535,0.456l0.577,0.427
	l0.611,0.398l0.645,0.372l0.673,0.349l0.7,0.324l0.725,0.3l3.244-2.814l-0.195-0.76l-0.223-0.739l-0.25-0.715l-0.277-0.69
	l-0.309-0.662l-0.342-0.631l-0.375-0.594l-0.426-0.543l-0.213-0.27l-0.188-0.298l-0.08-0.165l-0.065-0.181l-0.037-0.212l0.106-0.378
	l2.386-3.074l0.34-0.199l0.213-0.015l0.192,0.018l0.179,0.036l0.336,0.109l0.314,0.14l0.632,0.276l0.669,0.217l0.695,0.172
	l0.718,0.134l0.738,0.099l0.755,0.064l0.77,0.031h0.785l1.92-3.842l-0.471-0.628l-0.488-0.598l-0.504-0.564l-0.521-0.531
	l-0.538-0.494l-0.556-0.452l-0.575-0.404l-0.601-0.339l-0.301-0.167l-0.288-0.203l-0.137-0.122l-0.13-0.144l-0.116-0.18
	l-0.045-0.391l1.026-3.753l0.238-0.313l0.191-0.097l0.186-0.058l0.178-0.034l0.353-0.028l0.345,0.01l0.688,0.013l0.7-0.055
	l0.709-0.107l0.715-0.15l0.719-0.192l0.723-0.229l0.724-0.267l0.725-0.301l0.304-4.284L575.779,951.625z M536.969,965.554
	c-7.826,0-14.174-6.346-14.174-14.173c0-7.826,6.348-14.173,14.174-14.173s14.173,6.347,14.173,14.173
	C551.142,959.208,544.795,965.554,536.969,965.554z"/>
<path id="Gear_40" fill="#E6E6E6" stroke="#000000" stroke-width="0.1" stroke-linecap="round" stroke-linejoin="round" stroke-miterlimit="10" d="
	M756.039,953.318l-1.124-0.496l-1.127-0.448l-1.13-0.399l-1.132-0.346l-0.567-0.15l-0.283-0.068l-0.283-0.065l-0.137-4.833
	l0.279-0.081l0.279-0.085l0.557-0.182l1.111-0.409l1.104-0.463l1.101-0.512l1.095-0.558l1.089-0.602l-0.477-4.434l-1.19-0.357
	l-1.188-0.314l-1.184-0.267l-1.179-0.218l-1.171-0.164l-0.583-0.06l-0.291-0.024l-0.29-0.019l-0.892-4.753l0.264-0.123l0.262-0.128
	l0.521-0.267l1.033-0.577l1.02-0.63l1.007-0.678l0.994-0.723l0.98-0.765l-1.163-4.305l-1.232-0.167l-1.224-0.123l-1.211-0.079
	l-1.197-0.031l-1.184,0.021l-0.585,0.033l-0.291,0.021l-0.289,0.026l-1.624-4.555l0.241-0.162l0.239-0.167l0.473-0.346l0.93-0.732
	l0.908-0.781l0.888-0.827l0.869-0.87l0.85-0.908l-1.822-4.071l-1.244,0.029l-1.226,0.069l-1.209,0.111l-1.188,0.157l-1.165,0.206
	l-0.573,0.124l-0.283,0.067l-0.282,0.071l-2.316-4.245l0.212-0.199l0.21-0.202l0.414-0.415l0.805-0.869l0.773-0.914l0.748-0.956
	l0.723-0.994l0.696-1.03l-2.437-3.735l-1.225,0.222l-1.199,0.26l-1.178,0.299l-1.148,0.341l-1.118,0.386l-0.547,0.212l-0.271,0.11
	l-0.267,0.114l-2.952-3.83l0.179-0.229l0.177-0.233l0.343-0.475l0.658-0.983l0.623-1.024l0.589-1.061l0.557-1.095l0.527-1.127
	l-2.991-3.308l-1.174,0.411l-1.146,0.445l-1.114,0.48l-1.081,0.516l-1.046,0.556l-0.507,0.294l-0.249,0.152l-0.246,0.155
	l-3.515-3.322l0.141-0.254l0.138-0.258l0.265-0.522l0.496-1.074l0.455-1.109l0.416-1.141l0.379-1.168l0.344-1.196l-3.472-2.799
	l-1.095,0.59l-1.063,0.618l-1.025,0.649l-0.987,0.679l-0.945,0.712l-0.454,0.37l-0.222,0.189l-0.219,0.191l-3.991-2.731l0.099-0.273
	l0.096-0.275l0.18-0.558l0.322-1.139l0.274-1.166l0.233-1.191l0.191-1.214l0.152-1.234l-3.866-2.222l-0.989,0.754l-0.952,0.777
	l-0.912,0.8l-0.869,0.826l-0.821,0.851l-0.391,0.437l-0.19,0.221L702.95,874l-4.369-2.073l0.055-0.285l0.051-0.287l0.092-0.579
	l0.14-1.175l0.089-1.195l0.043-1.213v-1.229l-0.042-1.243l-4.167-1.59l-0.858,0.9l-0.819,0.916l-0.775,0.934l-0.729,0.951
	l-0.679,0.969l-0.318,0.493l-0.153,0.248l-0.148,0.249l-4.64-1.364l0.01-0.29l0.006-0.292l-0.001-0.586l-0.046-1.182l-0.1-1.194
	l-0.146-1.205l-0.192-1.214l-0.236-1.221l-4.363-0.918l-0.708,1.023l-0.666,1.033l-0.62,1.043l-0.571,1.054l-0.518,1.063
	l-0.237,0.536l-0.113,0.269l-0.107,0.27l-4.796-0.621l-0.036-0.288l-0.04-0.289l-0.092-0.579l-0.231-1.161l-0.284-1.164
	l-0.333-1.167l-0.38-1.168l-0.425-1.17l-4.454-0.224l-0.539,1.121l-0.495,1.125l-0.45,1.127l-0.398,1.13l-0.346,1.132l-0.15,0.566
	l-0.069,0.284l-0.063,0.283l-4.834,0.137l-0.081-0.28l-0.085-0.279l-0.183-0.557l-0.409-1.11l-0.462-1.106l-0.513-1.1l-0.558-1.095
	l-0.603-1.088l-4.434,0.475l-0.357,1.192l-0.313,1.188l-0.268,1.184l-0.218,1.178l-0.164,1.172l-0.06,0.583l-0.024,0.291
	l-0.019,0.29l-4.753,0.891l-0.123-0.263l-0.128-0.263l-0.268-0.521l-0.577-1.033l-0.63-1.02l-0.678-1.006l-0.723-0.994l-0.766-0.981
	l-4.305,1.163l-0.166,1.233l-0.124,1.222l-0.079,1.211l-0.031,1.199l0.022,1.183l0.032,0.585l0.021,0.291l0.026,0.289l-4.556,1.624
	l-0.163-0.241l-0.167-0.239l-0.346-0.473l-0.731-0.93l-0.781-0.909l-0.827-0.888l-0.87-0.868l-0.908-0.85l-4.07,1.823l0.029,1.243
	l0.068,1.227l0.111,1.209l0.156,1.188l0.207,1.165l0.123,0.573l0.067,0.284l0.071,0.281l-4.245,2.317l-0.199-0.212l-0.202-0.21
	l-0.415-0.414l-0.868-0.804l-0.914-0.775l-0.955-0.748l-0.996-0.722l-1.029-0.696l-3.735,2.436l0.222,1.224l0.261,1.201l0.3,1.176
	l0.341,1.149l0.386,1.119l0.211,0.546l0.11,0.27l0.115,0.267l-3.831,2.952l-0.229-0.178l-0.233-0.176l-0.474-0.344l-0.984-0.658
	l-1.023-0.622l-1.062-0.589l-1.095-0.558l-1.127-0.527l-3.309,2.991l0.411,1.174l0.444,1.146l0.48,1.115l0.516,1.081l0.557,1.045
	l0.295,0.506l0.15,0.25l0.156,0.246l-3.322,3.514l-0.254-0.14l-0.258-0.137l-0.522-0.265l-1.074-0.497l-1.108-0.454l-1.141-0.416
	l-1.169-0.379l-1.196-0.344l-2.799,3.471l0.59,1.095l0.619,1.062l0.648,1.026l0.679,0.988l0.713,0.944l0.369,0.455l0.188,0.222
	l0.191,0.219l-2.73,3.991l-0.273-0.099l-0.275-0.095l-0.558-0.18l-1.14-0.322l-1.166-0.276l-1.19-0.232l-1.214-0.192l-1.234-0.153
	l-2.222,3.867l0.754,0.989l0.777,0.952l0.801,0.912l0.825,0.869l0.851,0.822l0.437,0.391l0.222,0.19l0.224,0.186l-2.074,4.369
	l-0.284-0.055l-0.287-0.051l-0.579-0.09l-1.175-0.14l-1.195-0.09l-1.213-0.043l-1.229,0.001l-1.242,0.042l-1.59,4.166l0.899,0.86
	l0.916,0.818l0.935,0.776l0.951,0.729l0.969,0.678l0.492,0.318l0.248,0.153l0.25,0.15l-1.363,4.639l-0.291-0.01l-0.291-0.005
	l-0.586,0.001l-1.184,0.046l-1.193,0.098l-1.205,0.147l-1.215,0.193l-1.221,0.236l-0.918,4.364l1.023,0.708l1.033,0.665l1.043,0.62
	l1.054,0.572l1.063,0.518l0.535,0.237l0.27,0.112l0.27,0.109l-0.621,4.795l-0.287,0.036l-0.289,0.04l-0.58,0.093l-1.16,0.23
	l-1.164,0.284l-1.168,0.334l-1.168,0.38l-1.17,0.424l-0.224,4.454l1.121,0.54l1.125,0.495l1.127,0.449l1.13,0.4l1.133,0.345
	l0.565,0.15l0.284,0.068l0.283,0.065l0.137,4.834l-0.28,0.081l-0.278,0.084l-0.557,0.183l-1.111,0.408l-1.104,0.463l-1.101,0.512
	l-1.094,0.559l-1.09,0.602l0.475,4.435l1.192,0.357l1.188,0.313l1.184,0.268l1.178,0.217l1.172,0.165l0.584,0.06l0.291,0.023
	l0.289,0.021l0.892,4.753l-0.263,0.123l-0.263,0.128l-0.522,0.266l-1.032,0.578l-1.019,0.63l-1.008,0.679l-0.994,0.722l-0.98,0.765
	l1.163,4.306l1.233,0.167l1.223,0.123l1.211,0.079l1.197,0.03l1.184-0.021l0.585-0.032l0.291-0.022l0.289-0.025l1.624,4.555
	l-0.241,0.163l-0.239,0.167l-0.473,0.345l-0.93,0.732l-0.908,0.782l-0.889,0.826l-0.869,0.869l-0.85,0.909l1.823,4.07l1.243-0.028
	l1.227-0.069l1.209-0.111l1.188-0.157l1.165-0.206l0.572-0.123l0.285-0.067l0.281-0.07l2.316,4.245l-0.213,0.197l-0.209,0.203
	l-0.414,0.415l-0.805,0.868l-0.774,0.914l-0.748,0.956l-0.722,0.994l-0.696,1.031l2.437,3.734l1.223-0.222l1.201-0.261l1.176-0.3
	l1.15-0.341l1.118-0.386l0.547-0.211l0.269-0.111l0.269-0.114l2.951,3.83l-0.179,0.23l-0.176,0.231l-0.343,0.476l-0.659,0.984
	l-0.621,1.023l-0.59,1.062l-0.558,1.095l-0.526,1.127l2.99,3.307l1.176-0.411l1.145-0.443l1.115-0.48l1.08-0.517l1.045-0.557
	l0.508-0.294l0.248-0.15l0.246-0.155l3.515,3.321l-0.14,0.255l-0.137,0.257l-0.266,0.523l-0.496,1.073l-0.455,1.109l-0.416,1.14
	l-0.379,1.169l-0.344,1.195l3.471,2.799l1.096-0.589l1.062-0.619l1.026-0.647l0.987-0.68l0.944-0.713l0.455-0.37l0.222-0.188
	l0.22-0.192l3.99,2.731l-0.099,0.272l-0.095,0.276l-0.181,0.558l-0.321,1.139l-0.275,1.167l-0.233,1.19l-0.192,1.213l-0.152,1.235
	l3.867,2.222l0.99-0.754l0.951-0.776l0.912-0.802l0.868-0.824l0.822-0.853l0.391-0.436l0.19-0.222l0.186-0.223l4.37,2.072
	l-0.055,0.286l-0.051,0.287l-0.092,0.578l-0.14,1.176l-0.089,1.194l-0.044,1.213l0.001,1.229l0.042,1.244l4.166,1.589l0.859-0.899
	l0.819-0.917l0.775-0.933l0.729-0.951l0.679-0.97l0.317-0.492l0.154-0.248l0.148-0.25l4.64,1.364l-0.009,0.291l-0.007,0.291
	l0.001,0.586l0.047,1.182l0.098,1.195l0.146,1.205l0.193,1.213l0.236,1.222l4.363,0.918l0.708-1.022l0.665-1.033l0.62-1.044
	l0.572-1.053l0.518-1.064l0.237-0.536l0.112-0.269l0.108-0.271l4.795,0.622l0.036,0.288l0.041,0.289l0.093,0.578l0.229,1.161
	l0.284,1.164l0.334,1.167l0.38,1.169l0.424,1.169l4.454,0.224l0.54-1.121l0.495-1.124l0.449-1.128l0.399-1.13l0.346-1.131
	l0.15-0.567l0.069-0.282l0.063-0.283l4.834-0.137l0.081,0.278l0.085,0.279l0.183,0.557l0.408,1.111l0.463,1.104l0.512,1.101
	l0.559,1.095l0.602,1.089l4.435-0.476l0.357-1.191l0.313-1.188l0.269-1.185l0.218-1.179l0.164-1.172l0.059-0.583l0.024-0.29
	l0.02-0.29l4.753-0.891l0.123,0.263l0.128,0.262l0.268,0.522l0.577,1.033l0.63,1.019l0.678,1.007l0.723,0.994l0.765,0.981
	l4.306-1.164l0.166-1.232l0.124-1.223l0.079-1.211l0.03-1.198l-0.021-1.184l-0.032-0.585l-0.021-0.291l-0.026-0.288l4.556-1.624
	l0.163,0.239l0.167,0.24l0.345,0.473l0.731,0.931l0.782,0.908l0.827,0.888l0.869,0.869l0.909,0.849l4.069-1.822l-0.027-1.243
	l-0.069-1.228l-0.112-1.208l-0.156-1.188l-0.206-1.165l-0.123-0.573l-0.067-0.284l-0.071-0.282l4.245-2.315l0.198,0.212l0.203,0.21
	l0.415,0.414l0.868,0.803l0.914,0.775l0.956,0.748l0.994,0.722l1.03,0.697l3.735-2.438l-0.223-1.224l-0.26-1.201l-0.3-1.176
	l-0.341-1.149l-0.386-1.118l-0.211-0.547l-0.111-0.27l-0.114-0.268l3.831-2.952l0.229,0.18l0.232,0.176l0.475,0.343l0.983,0.658
	l1.024,0.623l1.061,0.589l1.095,0.557l1.128,0.527l3.308-2.991l-0.412-1.174l-0.444-1.145l-0.479-1.115l-0.517-1.082l-0.557-1.044
	l-0.294-0.507l-0.151-0.249l-0.154-0.246l3.32-3.516l0.256,0.142l0.257,0.137l0.522,0.265l1.074,0.496l1.109,0.455l1.14,0.415
	l1.169,0.38l1.195,0.345l2.8-3.473l-0.59-1.095l-0.619-1.062l-0.648-1.026l-0.679-0.987l-0.713-0.944l-0.37-0.454l-0.188-0.224
	l-0.191-0.218l2.729-3.992l0.273,0.1l0.276,0.096l0.558,0.18l1.138,0.322l1.167,0.275l1.191,0.232l1.214,0.191l1.234,0.152
	l2.222-3.865l-0.754-0.99l-0.777-0.952l-0.801-0.912l-0.825-0.869l-0.852-0.82l-0.437-0.392l-0.221-0.19l-0.223-0.187l2.071-4.369
	l0.286,0.056l0.287,0.051l0.579,0.091l1.175,0.14l1.195,0.09l1.213,0.043h1.229l1.242-0.042l1.59-4.167l-0.899-0.859l-0.916-0.819
	l-0.934-0.774l-0.951-0.73l-0.971-0.678l-0.491-0.318l-0.248-0.152l-0.25-0.149l1.363-4.64l0.291,0.01l0.291,0.006l0.586-0.001
	l1.184-0.046l1.194-0.099l1.204-0.147l1.214-0.192l1.222-0.235l0.918-4.364l-1.023-0.708l-1.032-0.666l-1.043-0.62l-1.055-0.571
	l-1.063-0.518l-0.536-0.237l-0.27-0.112l-0.269-0.108l0.621-4.796l0.288-0.036l0.289-0.04l0.579-0.093l1.159-0.23l1.165-0.283
	l1.166-0.333l1.169-0.382l1.169-0.424l0.225-4.454L756.039,953.318z M587.15,933.835l1.363-5.135l1.709-5.03l2.045-4.903
	l2.371-4.753l2.689-4.582l2.992-4.389l3.283-4.176l3.559-3.945l3.818-3.694l4.059-3.428l4.281-3.144l4.484-2.848l4.668-2.537
	l4.828-2.216l4.967-1.883l5.084-1.543l5.177-1.194l5.246-0.842l5.29-0.484l2.677,2.694l-2.771,55.074l-3.005,3.833l-2.464,1.36
	l-2.226,1.722l-1.937,2.042l-1.601,2.315l-4.115,2.605l-55.074-2.77l-2.412-2.934L587.15,933.835z M654.165,1026.396l-2.934,2.412
	l-5.216-1.013l-5.134-1.364l-5.031-1.708l-4.902-2.045l-4.753-2.372l-4.582-2.688l-4.389-2.993l-4.177-3.283l-3.944-3.559
	l-3.694-3.817l-3.429-4.06l-3.144-4.281l-2.849-4.485l-2.536-4.667l-2.216-4.828l-1.883-4.968l-1.543-5.083l-1.194-5.177
	l-0.843-5.245l-0.483-5.29l2.694-2.677l55.073,2.771l3.833,3.005l1.36,2.463l1.722,2.228l2.042,1.936l2.315,1.602l2.604,4.114
	L654.165,1026.396z M663.563,958.469c-3.913,0-7.087-3.174-7.087-7.087s3.174-7.086,7.087-7.086s7.087,3.173,7.087,7.086
	S667.477,958.469,663.563,958.469z M739.977,968.93l-1.362,5.134l-1.709,5.03l-2.045,4.903l-2.372,4.754l-2.689,4.581l-2.993,4.39
	l-3.282,4.176l-3.56,3.944l-3.816,3.695l-4.06,3.427l-4.282,3.145l-4.483,2.848l-4.668,2.538l-4.828,2.215l-4.968,1.883
	l-5.083,1.543l-5.177,1.195l-5.246,0.841l-5.289,0.484l-2.678-2.693l2.771-55.074l3.005-3.833l2.464-1.361l2.226-1.721l1.937-2.043
	l1.601-2.314l4.115-2.605l55.074,2.771l2.412,2.935L739.977,968.93z M739.143,949.56l-55.073-2.771l-3.833-3.005l-1.361-2.464
	l-1.721-2.226l-2.042-1.936l-2.315-1.601l-2.605-4.115l2.771-55.075l2.935-2.411l5.215,1.012l5.134,1.364l5.031,1.708l4.902,2.045
	l4.753,2.373l4.582,2.689l4.39,2.992l4.176,3.284l3.945,3.558l3.693,3.818l3.427,4.059l3.146,4.281l2.848,4.485l2.537,4.667
	l2.215,4.829l1.885,4.967l1.542,5.084l1.194,5.176l0.842,5.245l0.484,5.291L739.143,949.56z"/>
<path id="Gear_10" fill="#808080" stroke="#000000" stroke-width="0.1" stroke-linecap="round" stroke-linejoin="round" stroke-miterlimit="10" d="
	M688.328,951.891l-0.436-0.292l-0.439-0.271l-0.441-0.247l-0.445-0.222l-0.445-0.196l-0.447-0.17l-0.445-0.141l-0.445-0.107
	l-0.447-0.066l-0.439,0.012l-0.439,0.006l-0.223-0.018l-0.225-0.034l-0.223-0.055l-0.113-0.039l-0.113-0.048l-0.115-0.061
	l-0.117-0.08l-0.119-0.114l-0.141-0.311l-0.273-1.771l-0.441-1.735l0.008-0.342l0.064-0.152l0.076-0.12l0.082-0.1l0.086-0.09
	l0.088-0.08l0.186-0.138l0.191-0.119l0.197-0.102l0.408-0.167l0.41-0.162l0.383-0.234l0.369-0.274l0.357-0.304l0.344-0.331
	l0.332-0.355l0.322-0.378l0.313-0.399l0.297-0.42l0.287-0.44l0.275-0.458l-1.998-3.525l-0.533-0.001l-0.525,0.02l-0.514,0.041
	l-0.504,0.061l-0.488,0.082l-0.477,0.104l-0.461,0.124l-0.445,0.149l-0.424,0.175l-0.398,0.209l-0.35,0.268l-0.352,0.264
	l-0.189,0.117l-0.201,0.103l-0.215,0.086l-0.113,0.036l-0.119,0.028l-0.129,0.018l-0.143,0.005l-0.164-0.022l-0.297-0.17
	l-1.262-1.271l-1.377-1.145l-0.195-0.281l-0.037-0.162l-0.01-0.141l0.008-0.13l0.018-0.123l0.025-0.116l0.068-0.222l0.084-0.208
	l0.1-0.199l0.232-0.375l0.238-0.371l0.172-0.416l0.137-0.438l0.109-0.456l0.084-0.47l0.061-0.484l0.039-0.495l0.016-0.506
	l-0.006-0.516l-0.027-0.524l-0.047-0.532l-3.689-1.679l-0.432,0.313l-0.412,0.324l-0.393,0.335l-0.371,0.344l-0.348,0.354
	l-0.326,0.363l-0.299,0.372l-0.271,0.382l-0.24,0.391l-0.201,0.402l-0.125,0.422l-0.129,0.421l-0.084,0.205l-0.102,0.202
	l-0.123,0.195l-0.072,0.096l-0.08,0.094l-0.092,0.09l-0.115,0.086l-0.145,0.079l-0.34,0.038l-1.768-0.288l-1.787-0.117l-0.322-0.112
	l-0.127-0.11l-0.088-0.11l-0.072-0.109l-0.057-0.108l-0.049-0.11l-0.076-0.218l-0.053-0.219l-0.037-0.22l-0.033-0.439l-0.025-0.439
	l-0.105-0.438l-0.145-0.435l-0.182-0.434l-0.207-0.43l-0.234-0.426l-0.262-0.424l-0.285-0.418l-0.307-0.414l-0.33-0.409
	l-0.352-0.403l-3.969,0.81l-0.166,0.508l-0.145,0.505l-0.119,0.501l-0.098,0.496l-0.074,0.491l-0.051,0.485l-0.023,0.478
	l0.006,0.468l0.035,0.458l0.074,0.444l0.148,0.415l0.141,0.417l0.053,0.215l0.035,0.223l0.018,0.231l-0.002,0.119l-0.01,0.123
	l-0.021,0.128l-0.041,0.136l-0.072,0.149l-0.252,0.229l-1.602,0.807l-1.514,0.957l-0.326,0.099l-0.166-0.016l-0.137-0.036
	l-0.121-0.046l-0.111-0.055l-0.104-0.06l-0.189-0.132l-0.172-0.146l-0.156-0.156l-0.287-0.336l-0.279-0.34l-0.342-0.292
	l-0.375-0.266l-0.398-0.245l-0.42-0.225l-0.443-0.207l-0.459-0.189l-0.475-0.172l-0.494-0.154l-0.506-0.136l-0.521-0.12
	l-2.736,2.989l0.166,0.508l0.18,0.493l0.197,0.476l0.213,0.459l0.229,0.441l0.246,0.422l0.262,0.4l0.277,0.375l0.299,0.35
	l0.32,0.314l0.363,0.25l0.359,0.253l0.17,0.145l0.16,0.159l0.148,0.177l0.07,0.097l0.063,0.106l0.059,0.117l0.047,0.133l0.029,0.163
	l-0.068,0.335l-0.822,1.593l-0.662,1.665l-0.207,0.271l-0.141,0.084l-0.133,0.052l-0.127,0.034l-0.121,0.021l-0.119,0.012
	l-0.229,0.004l-0.227-0.016l-0.221-0.033l-0.428-0.105l-0.426-0.11l-0.447-0.036l-0.459,0.005l-0.469,0.037l-0.473,0.065
	l-0.479,0.091l-0.482,0.118l-0.486,0.141l-0.488,0.164l-0.49,0.188l-0.492,0.209l-0.459,4.026l0.434,0.314l0.436,0.292l0.439,0.271
	l0.441,0.246l0.445,0.223l0.445,0.197l0.447,0.17l0.447,0.14l0.445,0.107l0.443,0.066l0.443-0.012l0.439-0.006l0.223,0.016
	l0.221,0.034l0.225,0.057l0.113,0.038l0.113,0.048l0.117,0.06l0.115,0.08l0.121,0.115l0.139,0.312l0.273,1.771l0.441,1.737
	l-0.006,0.341l-0.066,0.153l-0.078,0.119l-0.08,0.101l-0.086,0.089l-0.09,0.08l-0.184,0.139l-0.191,0.119l-0.197,0.102l-0.408,0.167
	l-0.41,0.161l-0.383,0.235l-0.369,0.274l-0.355,0.304l-0.346,0.332l-0.332,0.355l-0.322,0.378l-0.311,0.4l-0.299,0.419l-0.287,0.44
	l-0.273,0.458l1.996,3.525l0.535,0.001l0.523-0.02l0.514-0.04l0.502-0.061l0.49-0.082l0.479-0.103l0.461-0.125l0.443-0.149
	l0.426-0.175l0.396-0.208l0.35-0.269l0.354-0.265l0.188-0.115l0.201-0.104l0.215-0.087l0.113-0.035l0.121-0.029l0.129-0.018
	l0.141-0.004l0.164,0.021l0.297,0.17l1.262,1.272l1.379,1.145l0.195,0.28l0.035,0.163l0.008,0.141l-0.006,0.13l-0.018,0.123
	l-0.025,0.116l-0.068,0.22l-0.086,0.209l-0.098,0.198l-0.232,0.375l-0.236,0.372l-0.172,0.416l-0.137,0.438l-0.111,0.456
	l-0.084,0.47l-0.059,0.484l-0.039,0.495l-0.018,0.505l0.006,0.517l0.027,0.524l0.047,0.532l3.688,1.679l0.434-0.314l0.412-0.324
	l0.393-0.334l0.371-0.345l0.35-0.354l0.324-0.363l0.299-0.371l0.273-0.382l0.238-0.392l0.199-0.403l0.125-0.421l0.131-0.422
	l0.086-0.206l0.102-0.201l0.121-0.196l0.072-0.095l0.08-0.093l0.094-0.09l0.111-0.088l0.146-0.078l0.34-0.037l1.77,0.287
	l1.787,0.116l0.322,0.112l0.125,0.11l0.09,0.109l0.07,0.108l0.059,0.109l0.047,0.109l0.076,0.218l0.053,0.22l0.037,0.219
	l0.033,0.439l0.027,0.44l0.104,0.438l0.146,0.435l0.18,0.433l0.207,0.431l0.236,0.426l0.262,0.424l0.281,0.419l0.309,0.413
	l0.33,0.409l0.352,0.402l3.971-0.81l0.164-0.507l0.143-0.506l0.123-0.501l0.098-0.497l0.074-0.491l0.049-0.485l0.023-0.477
	l-0.004-0.468l-0.035-0.458l-0.076-0.443l-0.148-0.415l-0.141-0.418l-0.053-0.216l-0.037-0.222l-0.016-0.23l0.002-0.12l0.01-0.122
	l0.023-0.128l0.039-0.137l0.07-0.15l0.256-0.229l1.598-0.806l1.516-0.957l0.326-0.099l0.166,0.015l0.137,0.036l0.121,0.047
	l0.111,0.055l0.104,0.059l0.189,0.133l0.172,0.146l0.158,0.155l0.285,0.337l0.279,0.34l0.342,0.292l0.373,0.266l0.4,0.244
	l0.422,0.228l0.441,0.206l0.459,0.19l0.477,0.17l0.492,0.155l0.508,0.136l0.52,0.12l2.736-2.988l-0.164-0.508l-0.182-0.494
	l-0.195-0.476l-0.215-0.46l-0.229-0.44l-0.244-0.422l-0.262-0.4l-0.279-0.376l-0.297-0.349l-0.322-0.315l-0.363-0.249l-0.359-0.254
	l-0.17-0.145l-0.16-0.158l-0.148-0.177l-0.068-0.097l-0.064-0.106l-0.057-0.116l-0.047-0.134l-0.031-0.163l0.068-0.333l0.822-1.594
	l0.662-1.665l0.207-0.272l0.143-0.084l0.131-0.051l0.127-0.034l0.121-0.021l0.119-0.012l0.23-0.004l0.225,0.017l0.219,0.033
	l0.43,0.104l0.426,0.11l0.449,0.036l0.459-0.005l0.467-0.037l0.473-0.065l0.479-0.092l0.482-0.117l0.486-0.141l0.49-0.164
	l0.49-0.187l0.49-0.209l0.457-4.026L688.328,951.891z M663.564,958.265c-3.801,0-6.883-3.082-6.883-6.883
	c0-3.801,3.082-6.883,6.883-6.883s6.881,3.082,6.881,6.883C670.445,955.184,667.365,958.265,663.564,958.265z"/>
<path id="Gear_48" fill="#808080" stroke="#000000" stroke-width="0.1" stroke-linecap="round" stroke-linejoin="round" stroke-miterlimit="10" d="
	M636.866,959.772l0.276-0.048l0.551-0.108l1.104-0.249l1.104-0.291l1.106-0.332l1.109-0.368l1.108-0.403l0.179-4.27l-1.069-0.494
	l-1.074-0.46l-1.077-0.422l-1.077-0.383l-1.079-0.342l-0.54-0.152l-0.27-0.072l-0.271-0.07l-0.108-4.564l0.268-0.082l0.267-0.084
	l0.531-0.178l1.063-0.391l1.058-0.434l1.056-0.473l1.05-0.51l1.047-0.545l-0.38-4.255l-1.126-0.351l-1.124-0.315l-1.122-0.278
	l-1.119-0.239l-1.114-0.198l-0.555-0.081l-0.277-0.036l-0.276-0.034l-0.703-4.511l0.254-0.116l0.253-0.119l0.504-0.246l1.002-0.527
	l0.993-0.568l0.984-0.606l0.976-0.643l0.965-0.677l-0.932-4.169l-1.162-0.202l-1.155-0.166l-1.149-0.129l-1.141-0.091l-1.13-0.05
	l-0.562-0.007h-0.279l-0.278,0.001l-1.286-4.381l0.235-0.147l0.236-0.15l0.469-0.311l0.924-0.652l0.91-0.694l0.896-0.729
	l0.883-0.765l0.87-0.797l-1.469-4.012l-1.179-0.048l-1.167-0.013l-1.156,0.021l-1.143,0.059l-1.126,0.098l-0.558,0.065l-0.278,0.037
	l-0.275,0.04l-1.847-4.176l0.215-0.177l0.214-0.181l0.424-0.368l0.831-0.769l0.812-0.805l0.793-0.84l0.777-0.873l0.758-0.904
	l-1.979-3.786l-1.175,0.106l-1.16,0.139l-1.143,0.171l-1.125,0.207l-1.104,0.246l-0.546,0.137l-0.268,0.073l-0.27,0.075
	l-2.377-3.901l0.191-0.203l0.188-0.207l0.371-0.421l0.724-0.87l0.701-0.905l0.677-0.937l0.654-0.966l0.634-0.996l-2.457-3.496
	l-1.151,0.259l-1.13,0.29l-1.111,0.319l-1.088,0.352l-1.063,0.387l-0.521,0.207l-0.259,0.108l-0.256,0.108l-2.864-3.555l0.162-0.227
	l0.159-0.23l0.314-0.464l0.604-0.958l0.575-0.988l0.549-1.018l0.523-1.044l0.5-1.069l-2.894-3.146l-1.106,0.408l-1.085,0.434
	l-1.06,0.462l-1.032,0.491l-1.005,0.523l-0.489,0.273l-0.242,0.139l-0.24,0.143l-3.304-3.152l0.131-0.247l0.128-0.248l0.25-0.502
	l0.475-1.028l0.441-1.056l0.413-1.08l0.382-1.103l0.354-1.125l-3.277-2.74l-1.045,0.548l-1.019,0.572l-0.988,0.596l-0.961,0.622
	l-0.928,0.649l-0.449,0.334l-0.223,0.171l-0.22,0.173l-3.687-2.694l0.097-0.261l0.095-0.262l0.184-0.531l0.335-1.081l0.3-1.103
	l0.269-1.125l0.236-1.144l0.203-1.163l-3.607-2.288l-0.963,0.679l-0.936,0.7l-0.904,0.721l-0.87,0.741l-0.835,0.765l-0.402,0.391
	l-0.196,0.197l-0.196,0.2l-4.008-2.189l0.063-0.272l0.06-0.272l0.111-0.55l0.192-1.115l0.154-1.134l0.118-1.149l0.083-1.166
	l0.052-1.178l-3.876-1.799l-0.866,0.8l-0.835,0.816l-0.803,0.833l-0.766,0.848l-0.729,0.867l-0.348,0.44l-0.17,0.222l-0.169,0.223
	l-4.258-1.647l0.026-0.277l0.024-0.278l0.038-0.561l0.046-1.13l0.004-1.144l-0.032-1.156l-0.069-1.166l-0.103-1.174l-4.077-1.279
	l-0.756,0.907l-0.722,0.918l-0.687,0.93l-0.648,0.941l-0.608,0.954l-0.289,0.483l-0.139,0.242l-0.137,0.243l-4.438-1.077l-0.01-0.28
	l-0.014-0.279l-0.033-0.56l-0.104-1.128l-0.145-1.134l-0.184-1.142l-0.221-1.147l-0.256-1.152l-4.209-0.733l-0.631,0.997
	l-0.595,1.003l-0.56,1.012l-0.521,1.02l-0.479,1.024l-0.223,0.516l-0.107,0.258l-0.104,0.259l-4.539-0.489l-0.046-0.275l-0.05-0.275
	l-0.107-0.551l-0.25-1.104l-0.29-1.106l-0.332-1.107l-0.369-1.108l-0.402-1.108l-4.27-0.179l-0.494,1.072l-0.46,1.073l-0.421,1.076
	l-0.384,1.078l-0.341,1.079l-0.153,0.539l-0.072,0.271l-0.07,0.271l-4.564,0.107l-0.082-0.266l-0.083-0.267l-0.179-0.532
	l-0.391-1.062l-0.434-1.059l-0.473-1.055l-0.51-1.05l-0.545-1.047l-4.255,0.379l-0.351,1.127l-0.315,1.124l-0.278,1.123
	l-0.239,1.118l-0.198,1.114l-0.081,0.556l-0.036,0.277l-0.033,0.276l-4.512,0.703l-0.116-0.253l-0.119-0.253l-0.246-0.504
	l-0.526-1.002l-0.569-0.993l-0.606-0.983l-0.643-0.976l-0.677-0.966l-4.169,0.932l-0.202,1.163l-0.166,1.156l-0.129,1.148
	l-0.091,1.14l-0.05,1.131l-0.007,0.562v0.279l0.002,0.279l-4.382,1.286l-0.147-0.237l-0.15-0.235l-0.31-0.468l-0.653-0.924
	l-0.694-0.911l-0.729-0.896l-0.765-0.884l-0.797-0.87l-4.012,1.469l-0.047,1.178l-0.014,1.168l0.021,1.156l0.059,1.143l0.098,1.126
	l0.065,0.558l0.037,0.277l0.04,0.276l-4.176,1.847l-0.177-0.216l-0.181-0.213l-0.368-0.424l-0.768-0.831l-0.806-0.812l-0.84-0.793
	l-0.873-0.776l-0.904-0.758l-3.786,1.979l0.106,1.176l0.139,1.159l0.171,1.144l0.207,1.125l0.246,1.104l0.137,0.544l0.073,0.27
	l0.075,0.27l-3.901,2.375l-0.203-0.19l-0.207-0.188l-0.421-0.372l-0.87-0.725l-0.905-0.7l-0.936-0.677l-0.966-0.655l-0.996-0.634
	l-3.495,2.457l0.259,1.151l0.289,1.131l0.319,1.11l0.353,1.089l0.386,1.063l0.208,0.522l0.107,0.259l0.109,0.255l-3.556,2.865
	l-0.227-0.162l-0.23-0.159l-0.464-0.314l-0.957-0.604l-0.989-0.576l-1.017-0.549l-1.045-0.523l-1.069-0.499l-3.145,2.892
	l0.407,1.107l0.434,1.084l0.462,1.06l0.491,1.033l0.522,1.003l0.273,0.491l0.14,0.242l0.143,0.239l-3.151,3.305l-0.248-0.131
	l-0.247-0.129l-0.503-0.25l-1.028-0.475l-1.055-0.441l-1.08-0.412l-1.104-0.383l-1.126-0.354l-2.739,3.278l0.547,1.046l0.573,1.018
	l0.596,0.989l0.623,0.96l0.648,0.928l0.335,0.45l0.169,0.222l0.173,0.219l-2.693,3.687l-0.262-0.098l-0.262-0.095l-0.531-0.183
	l-1.082-0.335l-1.103-0.301l-1.124-0.267l-1.145-0.236l-1.163-0.203l-2.288,3.606l0.68,0.965l0.7,0.935l0.721,0.904l0.741,0.871
	l0.766,0.834l0.391,0.403l0.197,0.197l0.199,0.194l-2.189,4.008l-0.272-0.063l-0.271-0.061l-0.551-0.11l-1.115-0.193l-1.133-0.153
	l-1.149-0.118l-1.166-0.084l-1.177-0.051l-1.799,3.875l0.8,0.868l0.815,0.835l0.833,0.802l0.849,0.767l0.866,0.728l0.441,0.348
	l0.221,0.169l0.224,0.167l-1.648,4.259l-0.277-0.026l-0.278-0.024l-0.56-0.039l-1.131-0.045l-1.144-0.004l-1.156,0.034l-1.165,0.067
	l-1.176,0.104l-1.278,4.078l0.907,0.755l0.918,0.722l0.93,0.686l0.941,0.65l0.954,0.608l0.482,0.288l0.242,0.139l0.243,0.137
	l-1.077,4.438l-0.28,0.009l-0.279,0.013l-0.56,0.034l-1.126,0.104l-1.136,0.146l-1.142,0.182l-1.147,0.22l-1.151,0.256l-0.734,4.209
	l0.997,0.631l1.003,0.596l1.012,0.56l1.02,0.52l1.024,0.479l0.516,0.223l0.259,0.106l0.258,0.104l-0.489,4.541l-0.275,0.045
	l-0.275,0.05l-0.551,0.108l-1.103,0.247l-1.106,0.292l-1.107,0.332l-1.108,0.367l-1.108,0.405l-0.18,4.268l1.073,0.496l1.072,0.46
	l1.077,0.421l1.078,0.383l1.079,0.342l0.539,0.152l0.271,0.073l0.27,0.068l0.106,4.566l-0.266,0.081l-0.267,0.085l-0.532,0.179
	l-1.062,0.391l-1.06,0.434l-1.054,0.472l-1.05,0.51l-1.047,0.545l0.381,4.257l1.125,0.35l1.125,0.315l1.121,0.278l1.119,0.239
	l1.113,0.196l0.556,0.083l0.278,0.035l0.276,0.034l0.702,4.512l-0.253,0.115l-0.253,0.119l-0.504,0.246l-1.001,0.526l-0.993,0.567
	l-0.984,0.608l-0.975,0.642l-0.967,0.677l0.932,4.17l1.164,0.201l1.155,0.166l1.149,0.13l1.14,0.091l1.13,0.049l0.562,0.009h0.279
	l0.279-0.004l1.287,4.382l-0.237,0.148l-0.236,0.151l-0.467,0.31l-0.925,0.652l-0.909,0.691l-0.897,0.731l-0.883,0.763l-0.87,0.799
	l1.469,4.012l1.178,0.047l1.168,0.015l1.156-0.022l1.143-0.058l1.126-0.099l0.559-0.064l0.277-0.037l0.275-0.038l1.846,4.175
	l-0.214,0.177l-0.214,0.181l-0.423,0.368l-0.832,0.768l-0.812,0.807l-0.793,0.841l-0.776,0.872l-0.758,0.905l1.979,3.786
	l1.175-0.107l1.16-0.14l1.143-0.171l1.125-0.208l1.105-0.245l0.544-0.136l0.27-0.073l0.269-0.075l2.375,3.899l-0.19,0.203
	l-0.188,0.207l-0.373,0.421l-0.724,0.87l-0.7,0.905l-0.677,0.936l-0.654,0.967l-0.635,0.996l2.458,3.496l1.151-0.26l1.131-0.289
	l1.11-0.321l1.09-0.352l1.063-0.386l0.521-0.207l0.259-0.107l0.255-0.11l2.865,3.557l-0.163,0.227l-0.159,0.23l-0.313,0.465
	l-0.605,0.956l-0.576,0.988l-0.549,1.019l-0.522,1.043l-0.499,1.069l2.893,3.146l1.106-0.407l1.083-0.434l1.06-0.463l1.034-0.491
	l1.003-0.521l0.492-0.274l0.242-0.141l0.238-0.141l3.305,3.15l-0.13,0.247l-0.129,0.248l-0.25,0.502l-0.475,1.028l-0.441,1.056
	l-0.413,1.08l-0.382,1.104l-0.355,1.124l3.279,2.741l1.045-0.549l1.019-0.571l0.989-0.597l0.96-0.623l0.927-0.647l0.45-0.336
	l0.222-0.169l0.219-0.172l3.687,2.692l-0.098,0.261l-0.095,0.264l-0.182,0.531l-0.335,1.08l-0.301,1.104l-0.267,1.125l-0.235,1.144
	l-0.204,1.161l3.606,2.291l0.965-0.681l0.935-0.701l0.904-0.72l0.87-0.74l0.835-0.766l0.402-0.391l0.198-0.197l0.195-0.201
	l4.007,2.191l-0.063,0.271l-0.061,0.273l-0.111,0.55l-0.193,1.115l-0.153,1.134l-0.117,1.15l-0.085,1.164l-0.051,1.179l3.875,1.799
	l0.868-0.8l0.836-0.816l0.801-0.833l0.767-0.848l0.728-0.868l0.348-0.438l0.169-0.222l0.167-0.224l4.258,1.646l-0.026,0.277
	l-0.024,0.279l-0.039,0.56l-0.045,1.131l-0.004,1.144l0.034,1.155l0.067,1.166l0.104,1.176l4.077,1.276l0.755-0.904l0.722-0.918
	l0.688-0.931l0.648-0.942l0.609-0.954l0.287-0.481l0.14-0.241l0.137-0.244l4.437,1.078l0.009,0.277l0.013,0.28l0.035,0.56
	l0.103,1.126l0.146,1.136l0.182,1.141l0.221,1.147l0.255,1.152l4.21,0.733l0.63-0.997l0.596-1.004l0.56-1.012l0.521-1.019
	l0.479-1.023l0.223-0.516l0.106-0.259l0.104-0.26l4.541,0.488l0.046,0.276l0.049,0.274l0.108,0.552l0.248,1.103l0.292,1.106
	l0.332,1.107l0.368,1.109l0.404,1.108l4.268,0.178l0.496-1.07l0.46-1.074l0.421-1.076l0.384-1.076l0.341-1.08l0.152-0.54l0.073-0.27
	l0.068-0.271l4.566-0.107l0.081,0.266l0.085,0.268l0.178,0.532l0.392,1.062l0.434,1.058l0.472,1.057l0.511,1.05l0.546,1.047
	l4.255-0.38l0.351-1.126l0.316-1.126l0.278-1.12l0.239-1.12l0.196-1.114l0.082-0.555l0.035-0.277l0.033-0.276l4.514-0.703
	l0.114,0.255l0.118,0.252l0.247,0.505l0.525,1.002l0.569,0.992l0.606,0.984l0.642,0.976l0.677,0.966l4.171-0.933l0.2-1.162
	l0.166-1.155l0.131-1.149l0.09-1.14l0.051-1.13l0.008-0.563v-0.278l-0.003-0.28l4.38-1.285l0.149,0.236l0.15,0.235l0.31,0.469
	l0.652,0.923l0.694,0.91l0.729,0.897l0.764,0.883l0.798,0.87l4.013-1.468l0.048-1.181l0.013-1.166l-0.021-1.156l-0.058-1.143
	l-0.099-1.128l-0.064-0.557l-0.037-0.277l-0.039-0.276l4.175-1.846l0.179,0.215l0.18,0.213l0.368,0.424l0.769,0.831l0.806,0.813
	l0.84,0.793l0.873,0.775l0.904,0.759l3.786-1.979l-0.107-1.176l-0.139-1.159l-0.171-1.144l-0.209-1.124l-0.244-1.105l-0.137-0.545
	l-0.073-0.27l-0.074-0.268l3.898-2.377l0.204,0.19l0.208,0.188l0.42,0.373l0.87,0.723l0.905,0.702l0.936,0.676l0.967,0.654
	l0.995,0.635l3.496-2.457l-0.26-1.151l-0.289-1.132l-0.319-1.11l-0.353-1.089l-0.386-1.063l-0.208-0.521l-0.107-0.259l-0.108-0.256
	l3.555-2.864l0.228,0.162l0.23,0.16l0.465,0.313l0.957,0.604l0.987,0.576l1.018,0.549l1.044,0.523l1.069,0.499l3.145-2.894
	l-0.407-1.106l-0.434-1.084l-0.462-1.06l-0.491-1.032l-0.522-1.005l-0.273-0.491l-0.14-0.241l-0.143-0.239l3.151-3.305l0.247,0.131
	l0.249,0.129l0.501,0.25l1.027,0.475l1.057,0.441l1.079,0.411l1.104,0.383l1.125,0.354l2.74-3.277l-0.548-1.045l-0.572-1.02
	l-0.596-0.988l-0.623-0.96l-0.647-0.928l-0.336-0.45l-0.169-0.222l-0.173-0.219l2.693-3.688l0.261,0.098l0.264,0.095l0.53,0.183
	l1.082,0.336l1.103,0.3l1.125,0.268l1.144,0.235l1.163,0.205l2.288-3.608l-0.68-0.963l-0.699-0.936l-0.722-0.903l-0.741-0.87
	l-0.765-0.835l-0.391-0.402l-0.198-0.197l-0.199-0.196l2.189-4.007l0.272,0.063l0.272,0.06l0.549,0.112l1.116,0.192l1.134,0.152
	l1.149,0.118l1.164,0.085l1.18,0.051l1.798-3.875l-0.8-0.867l-0.816-0.835l-0.831-0.804l-0.851-0.765l-0.866-0.729l-0.438-0.348
	l-0.223-0.17l-0.224-0.168l1.647-4.259l0.278,0.027l0.278,0.023l0.561,0.038l1.13,0.044l1.145,0.006l1.154-0.032l1.166-0.069
	l1.176-0.104l1.277-4.076l-0.906-0.756l-0.919-0.722l-0.93-0.688l-0.942-0.647l-0.953-0.608l-0.481-0.289l-0.242-0.139l-0.243-0.138
	l1.077-4.436l0.278-0.01l0.279-0.015l0.561-0.034l1.127-0.103l1.135-0.145l1.142-0.184l1.146-0.221l1.152-0.257l0.733-4.208
	l-0.996-0.63l-1.004-0.596l-1.013-0.559l-1.019-0.521l-1.024-0.479l-0.516-0.222l-0.259-0.106l-0.26-0.104l0.49-4.542
	L636.866,959.772z M503.815,867.282l5.925-2.101l6.059-1.683l6.16-1.259l6.233-0.828l6.275-0.393l6.287,0.045l6.27,0.481
	l6.221,0.916l6.142,1.347l6.032,1.77l5.896,2.185l5.729,2.59l1.136,4.169l-31.23,49.211l-4.954,1.847l-3.925-0.462l-3.951,0.132
	l-4.782-2.256l-27.003-51.652L503.815,867.282z M550.48,951.381c0,7.462-6.051,13.512-13.512,13.512
	c-7.461,0-13.511-6.05-13.511-13.512c0-7.461,6.05-13.511,13.511-13.511C544.43,937.87,550.48,943.92,550.48,951.381z
	 M448.704,931.861l1.569-6.088l1.991-5.964l2.4-5.811l2.797-5.632l3.182-5.423l3.552-5.189l3.904-4.929l4.237-4.646l4.549-4.338
	l4.841-4.014l5.107-3.667l4.18,1.1l27.002,51.653l-0.878,5.214l-2.363,3.168l-1.86,3.488l-4.345,3.015l-58.233-2.44l-2.774-3.313
	L448.704,931.861z M484.97,1021.396l-4.256,0.746l-4.784-4.082l-4.487-4.401l-4.171-4.707l-3.833-4.983l-3.478-5.238l-3.104-5.468
	l-2.718-5.67l-2.316-5.845l-1.905-5.992l-1.485-6.109l-1.054-6.198l-0.622-6.258l3.042-3.069l58.232,2.441l4.078,3.367l1.563,3.63
	l2.09,3.356l0.438,5.271L484.97,1021.396z M570.123,1035.48l-5.927,2.101l-6.058,1.685l-6.16,1.26l-6.233,0.828l-6.274,0.393
	l-6.287-0.045l-6.27-0.482l-6.221-0.917l-6.143-1.346l-6.032-1.771l-5.896-2.185l-5.73-2.589l-1.137-4.169l31.231-49.212
	l4.954-1.848l3.926,0.462l3.951-0.132l4.783,2.256l27.003,51.652L570.123,1035.48z M625.234,970.901l-1.57,6.089l-1.991,5.965
	l-2.399,5.812l-2.796,5.631l-3.185,5.422l-3.55,5.188l-3.904,4.93l-4.237,4.646l-4.548,4.339l-4.842,4.014l-5.107,3.666
	l-4.179-1.099l-27.003-51.652l0.878-5.215l2.363-3.169l1.86-3.485l4.345-3.017l58.233,2.441l2.775,3.313L625.234,970.901z
	 M624.138,948.642l-58.234-2.441l-4.076-3.366l-1.563-3.631l-2.09-3.354l-0.438-5.27l31.23-49.212l4.257-0.746l4.783,4.081
	l4.487,4.404l4.17,4.705l3.832,4.985l3.479,5.237l3.105,5.469l2.717,5.668l2.317,5.846l1.903,5.991l1.484,6.11l1.056,6.198
	l0.622,6.258L624.138,948.642z"/>
</svg>
