<?xml version="1.0" encoding="utf-8"?>
<!-- Generator: Adobe Illustrator 16.0.0, SVG Export Plug-In . SVG Version: 6.00 Build 0)  -->
<!DOCTYPE svg PUBLIC "-//W3C//DTD SVG 1.1//EN" "http://www.w3.org/Graphics/SVG/1.1/DTD/svg11.dtd">
<svg version="1.1" id="Main_Layer" xmlns="http://www.w3.org/2000/svg" xmlns:xlink="http://www.w3.org/1999/xlink" x="0px" y="0px"
	 width="500px" height="500px" viewBox="0 0 500 500" enable-background="new 0 0 500 500" xml:space="preserve">
<script type="text/javascript">
	<![CDATA[

	
	onload = function() {
		
		var escapement = { element: document.getElementById("Escapement_1_"), pivot: { x: 289.661, y: 159.713 } };
		var escapement_lever = { element: document.getElementById("Escapement_Lever_1_"), pivot: { x: 290.767 , y: 55.13  } };
		var gear64 = { element: document.getElementById("Gear_64"), pivot: { x: 138.586, y: 171.916 } };
		var gear12 = { element: document.getElementById("Gear_12"), pivot: { x: 289.951, y: 159.41 } };
		var gear8 = { element: document.getElementById("Gear_8"), pivot: { x: 138.589, y: 171.917 } };
		var gear90 = { element: document.getElementById("Gear_90"), pivot: { x: 295.599, y: 288.951 } };
		var gear16 = { element: document.getElementById("Gear_16"), pivot: { x: 295.603, y: 288.954 } };
		var gear40 = { element: document.getElementById("Gear_40"), pivot: { x: 407.567, y: 288.954 } };
		var gear10 = { element: document.getElementById("Gear_10"), pivot: { x: 407.566, y: 288.957 } };
		var gear48 = { element: document.getElementById("Gear_48"), pivot: { x: 295.599, y: 288.957 } };
	
		var pairs = [
			{ period: 60, gears: [gear12, escapement] },
			{ period: 320, gears: [gear64, gear8] },
			{ period: 3600, gears: [gear90, gear16] },
			{ period: 9000, gears: [gear40, gear10] },
			{ period: 43200, gears: [gear48] }
		];
		
		
		
		var pendulum = {mass: 100, length:1000, theta: (Math.PI/2) - Math.PI*8/180, omega: 0, alpha:0};
		pendulum.J = pendulum.mass * pendulum.length * pendulum.length / 500;
		var lastTime = 0;
		function getPendulumRotation(time) {
			var deltaT = time - lastTime;
			
			if(deltaT > 0.05) deltaT = 0.05;
			if(deltaT < 0) deltaT = 0.05;
			
			
			/* Velocity Verlet */
			/* Calculate current position from last frame's position, velocity, and acceleration */
			pendulum.theta += pendulum.omega * deltaT + ( 0.5 * pendulum.alpha * deltaT * deltaT );

			/* Calculate forces from current position. */
			var T = pendulum.mass * 9.81 * Math.cos(pendulum.theta) * pendulum.length;

			/* Current acceleration */
			var alpha = T / pendulum.J;

			/* Calculate current velocity from last frame's velocity and 
				average of last frame's acceleration with this frame's acceleration. */
			pendulum.omega += 0.5 * (alpha + pendulum.alpha) * deltaT;
    
			/* Update acceleration */
			pendulum.alpha = alpha;

			return pendulum.theta;
		}
	
		function updateGears(pos) {		
		
			for(var i=0;i<pairs.length;i++) {
				var period = pairs[i].period;
				var gears = pairs[i].gears;
			
				var theta = ((pos / period) * 360) % 360;
				
				if(i%2==0) theta = -theta;
			
				for(var g=0;g<gears.length;g++) {
					var gear = gears[g];
				
					var element = gear.element;
					var pivot = gear.pivot;
				
					var transform = "rotate(" + theta + " " + pivot.x + " " + pivot.y + ")";
					element.setAttribute("transform", transform);
				}
			}
			

			//var 2s = (pos % 2) / 2;
			//var min_lev = -11;
			//var max_lev = 9;
			
			elpivot = escapement_lever.pivot;
			elelement = escapement_lever.element;
			
			var rot = getPendulumRotation(pos) * 180 / Math.PI - 90;
			var transform = "rotate(" + rot + " " + elpivot.x + " " + elpivot.y + ")";
			elelement.setAttribute("transform", transform);

		}
	
	
	
		var interval = setInterval(function() {
			var time = new Date();
			var pos = time.getMilliseconds() * 0.001 + time.getSeconds() + time.getMinutes() * 60 + (time.getHours() % 12) * 3600;
			
			updateGears(pos);
		}, 33);
	}
	
	]]>
</script>
<path id="Escapement_1_" fill="#B3B3B3" stroke="#000000" stroke-width="0.1" stroke-linecap="round" stroke-linejoin="round" stroke-miterlimit="10" d="
	M363.092,168.066l-15.027-7.999c0.013-2.027-0.076-4.03-0.269-6.003l15.429-1.45l-16.354-4.696c-0.407-1.98-0.915-3.919-1.515-5.819
	l14.788-4.625l-16.978-1.194c-0.81-1.843-1.709-3.635-2.696-5.374l13.509-7.598l-16.856,2.36c-1.169-1.628-2.417-3.201-3.747-4.7
	l11.627-10.237l-16.001,5.817c-1.48-1.348-3.032-2.62-4.645-3.813l9.254-12.44l-14.439,9.015c-1.723-1.012-3.499-1.939-5.334-2.773
	l6.46-14.08l-12.24,11.805c-1.895-0.627-3.827-1.165-5.801-1.598l3.386-15.108l-9.522,14.103c-1.88-0.21-3.787-0.333-5.721-0.357
	c-0.093,0-0.186,0.005-0.278,0.004l0.172-15.496l-6.385,15.779c-2.013,0.196-3.996,0.496-5.942,0.894l-3.052-15.188l-2.964,16.755
	c-1.922,0.611-3.799,1.318-5.629,2.116l-6.143-14.223l0.585,17.009c-1.745,0.995-3.438,2.077-5.065,3.24l-8.969-12.64l4.109,16.513
	c-1.495,1.332-2.918,2.749-4.274,4.228l-11.403-10.5l7.459,15.308c-1.187,1.608-2.292,3.279-3.31,5.011l-13.336-7.898l10.468,13.412
	c-0.823,1.817-1.563,3.686-2.199,5.597l-14.672-4.946l13.017,10.936c-0.421,1.944-0.746,3.926-0.972,5.939l-15.385-1.79
	l15.027,7.998c-0.013,2.025,0.079,4.028,0.269,6.003l-15.429,1.447l16.354,4.699c0.407,1.979,0.915,3.919,1.517,5.818l-14.786,4.625
	l16.973,1.194c0.81,1.843,1.709,3.635,2.693,5.375l-13.504,7.598l16.854-2.361c1.17,1.628,2.417,3.2,3.748,4.699l-11.627,10.238
	l16.001-5.817c1.48,1.35,3.029,2.62,4.645,3.814l-9.251,12.44l14.438-9.015c1.724,1.012,3.502,1.938,5.332,2.771l-6.457,14.082
	l12.237-11.809c1.895,0.627,3.827,1.168,5.801,1.601l-3.386,15.109l9.522-14.104c1.88,0.208,3.786,0.33,5.721,0.357
	c0.093,0,0.186-0.007,0.278-0.003l-0.17,15.495l6.383-15.776c2.012-0.199,3.993-0.499,5.942-0.896l3.055,15.19l2.958-16.755
	c1.925-0.611,3.802-1.32,5.629-2.12l6.145,14.225l-0.587-17.011c1.745-0.995,3.44-2.073,5.065-3.237l8.969,12.638l-4.106-16.514
	c1.495-1.333,2.918-2.748,4.273-4.227l11.404,10.5l-7.46-15.308c1.188-1.61,2.292-3.281,3.314-5.013l13.332,7.899L342.88,183.8
	c0.825-1.819,1.563-3.685,2.199-5.598l14.673,4.948l-13.018-10.934c0.424-1.945,0.746-3.926,0.972-5.941L363.092,168.066z
	 M311.187,117.041l3.394-0.482l3.144,1.966l2.985,2.196l2.813,2.413l2.627,2.616l2.417,2.808l2.205,2.98l-1.183,1.89l-28.204,9.688
	l-3.632,0.169l-1.407-2.725L311.187,117.041z M294.086,164.299c-2.712,2.278-6.762,1.928-9.048-0.785
	c-2.281-2.712-1.933-6.767,0.786-9.049c2.717-2.282,6.768-1.927,9.046,0.79C297.152,157.971,296.796,162.019,294.086,164.299z
	 M281.262,110.759l3.668-0.516l3.697-0.239l3.709,0.041l3.69,0.316l3.658,0.592l3.606,0.866l0.308,2.205l-15.359,25.555
	l-2.669,2.463l-2.83-1.182l-3.768-27.552L281.262,110.759z M252.02,127.738l2.48-2.753l2.677-2.56l2.865-2.353l3.028-2.13
	l3.184-1.899l3.313-1.653l1.658,1.487l4.676,29.446l-0.458,3.603l-2.928,0.917l-20.606-18.681L252.02,127.738z M240.669,155.83
	l0.409-3.683l0.68-3.64l0.952-3.581l1.217-3.499l1.476-3.396l2.225,0.076l22.522,19.548l1.968,3.054l-1.655,2.585l-27.807-1.07
	l-2.115-2.697L240.669,155.83z M255.529,191.963l-3.357-0.707l-2.279-2.918l-2.051-3.081l-1.817-3.225l-1.569-3.355l-1.314-3.459
	l-1.054-3.55l1.758-1.372l29.83,0.499l3.469,1.075l0.392,3.041L255.529,191.963z M284.489,206.478l-3.024,1.614l-3.622-0.773
	l-3.552-1.041l-3.463-1.303l-3.359-1.563l-3.229-1.808l-3.089-2.043l0.472-2.179l23.188-18.789l3.351-1.405l2.252,2.079
	L284.489,206.478z M314.732,202.169l-3.269,1.735l-3.394,1.485l-3.496,1.226l-3.571,0.961l-3.64,0.692l-3.677,0.417l-1.042-1.969
	l5.711-29.302l1.663-3.227l3.061,0.146l12.938,24.653L314.732,202.169z M335.031,179.674l-1.646,3.32l-1.887,3.186l-2.123,3.038
	l-2.345,2.868l-2.551,2.686l-2.063-0.84l-14.446-26.121l-0.8-3.542l2.442-1.855l25.746,10.567l1.062,3.261L335.031,179.674z
	 M339.132,164.304l-2.118,0.687l-27.843-10.724l-2.889-2.202l0.677-2.99l26.502-8.461l2.908,1.813l1.143,3.525l0.871,3.602
	l0.604,3.657l0.329,3.691l0.05,3.705L339.132,164.304z"/>
<path id="Escapement_Lever_1_" fill="#B3B3B3" stroke="#000000" stroke-width="0.1" stroke-linecap="round" stroke-linejoin="round" stroke-miterlimit="10" d="
	M349.58,77.24c-9.064-8.18-24.321-17.687-43.336-21.226c0,0,0.221-5.748-4.424-11.497c-4.643-5.75-15.696-4.643-18.792-3.096
	c-3.097,1.549-8.623,5.97-7.959,13.93c-9.509-0.221-40.243,13.266-51.298,26.091c0,0,9.287,20.563,12.381,27.637
	c1.107-2.211,4.643-20.783,2.212-28.963c13.93-14.593,40.686-15.699,51.518-16.142c10.835-0.441,28.081,4.643,35.6,7.959
	c7.516,3.317,26.975,13.709,33.385,28.303l-21.667,8.843c0,0,20.122,3.759,35.819,0C369.261,96.476,358.647,85.422,349.58,77.24z
	 M290.767,58.226c-1.707,0-3.094-1.386-3.094-3.096c0-1.709,1.387-3.096,3.094-3.096c1.712,0,3.095,1.387,3.095,3.096
	C293.862,56.84,292.479,58.226,290.767,58.226z"/>
<path id="Gear_64" fill="#B3B3B3" stroke="#000000" stroke-width="0.1" stroke-linecap="round" stroke-linejoin="round" stroke-miterlimit="10" d="
	M263.391,179.769l0.387-0.089l0.762-0.191l1.532-0.431l1.533-0.492l1.528-0.549l0.125-3.988l-1.492-0.647l-1.499-0.587l-1.499-0.526
	l-0.752-0.238l-0.379-0.113l-0.375-0.108l-0.072-4.19l0.372-0.122l0.37-0.126l0.743-0.265l1.483-0.579l1.475-0.64l1.469-0.696
	l-0.265-3.982l-1.551-0.496l-1.55-0.438l-1.542-0.376l-0.773-0.164l-0.385-0.074l-0.384-0.072l-0.484-4.162l0.358-0.158l0.354-0.162
	l0.713-0.336l1.419-0.722l1.407-0.783l1.396-0.838l-0.657-3.936l-1.592-0.341l-1.581-0.285l-1.575-0.223l-0.783-0.087l-0.391-0.037
	l-0.392-0.033l-0.89-4.096l0.342-0.19l0.343-0.196l0.677-0.405l1.339-0.856l1.322-0.916l1.308-0.972l-1.038-3.852l-1.618-0.185
	l-1.602-0.128l-1.593-0.066l-0.786-0.01h-0.395l-0.388,0.005l-1.287-3.988l0.318-0.222l0.318-0.229l0.635-0.469l1.249-0.983
	l1.228-1.041l1.207-1.095l-1.412-3.733l-1.63-0.024l-1.607,0.029l-1.589,0.09l-0.785,0.068l-0.39,0.039l-0.387,0.045l-1.672-3.843
	l0.295-0.255l0.295-0.258l0.587-0.529l1.144-1.102l1.122-1.155l1.091-1.208l-1.768-3.577l-1.625,0.134l-1.596,0.188l-1.575,0.244
	l-0.774,0.145l-0.384,0.077l-0.385,0.083l-2.039-3.659l0.272-0.284l0.267-0.286l0.531-0.583l1.032-1.21l1.002-1.26l0.967-1.309
	l-2.112-3.386l-1.602,0.293l-1.569,0.344l-1.541,0.398l-0.756,0.218l-0.376,0.116l-0.375,0.119l-2.387-3.444l0.241-0.306
	l0.239-0.312l0.471-0.633l0.91-1.305l0.872-1.353l0.836-1.398l-2.435-3.162l-1.566,0.449l-1.531,0.496l-1.493,0.548l-0.729,0.292
	l-0.364,0.151l-0.358,0.156l-2.714-3.192l0.209-0.33l0.205-0.333l0.408-0.677l0.776-1.386l0.736-1.431l0.697-1.473l-2.732-2.911
	l-1.513,0.602l-1.476,0.644l-1.433,0.69l-0.7,0.363l-0.348,0.185l-0.341,0.189l-3.015-2.911l0.176-0.35l0.175-0.35l0.339-0.713
	l0.636-1.458l0.594-1.497l0.544-1.533l-3.001-2.626l-1.449,0.746l-1.402,0.783l-1.36,0.828l-0.659,0.43l-0.326,0.219l-0.322,0.223
	l-3.287-2.602l0.139-0.364l0.141-0.368l0.269-0.741l0.49-1.512l0.441-1.547l0.395-1.581l-3.248-2.321l-1.366,0.886l-1.32,0.919
	l-1.272,0.955l-0.615,0.492l-0.302,0.251l-0.301,0.252l-3.526-2.266l0.107-0.378l0.103-0.378l0.192-0.765l0.341-1.553l0.289-1.584
	l0.239-1.609l-3.46-1.991l-1.272,1.014l-1.225,1.045l-1.171,1.076l-0.567,0.549l-0.275,0.278l-0.271,0.28l-3.732-1.908l0.069-0.386
	l0.063-0.387l0.116-0.779l0.189-1.581l0.129-1.602l0.08-1.629L190.546,52l-1.169,1.133l-1.115,1.16l-1.062,1.186l-0.507,0.604
	l-0.249,0.304l-0.243,0.307l-3.899-1.537l0.029-0.39l0.028-0.391l0.039-0.788l0.03-1.59l-0.023-1.611l-0.082-1.625l-3.781-1.277
	l-1.052,1.244l-0.995,1.262l-0.941,1.284l-0.445,0.649l-0.216,0.327l-0.215,0.328l-4.029-1.144l-0.01-0.392l-0.013-0.393
	l-0.036-0.788l-0.123-1.585l-0.185-1.598l-0.24-1.612l-3.887-0.899l-0.925,1.34l-0.869,1.354l-0.81,1.371l-0.377,0.69l-0.187,0.347
	l-0.179,0.349l-4.125-0.746l-0.043-0.389l-0.054-0.388l-0.116-0.781l-0.277-1.566l-0.338-1.573l-0.399-1.579l-3.956-0.515
	l-0.79,1.422l-0.73,1.433l-0.672,1.443l-0.313,0.725l-0.146,0.363l-0.146,0.363l-4.179-0.336l-0.083-0.382l-0.09-0.383l-0.192-0.765
	l-0.426-1.532l-0.495-1.531l-0.551-1.534l-3.986-0.125l-0.648,1.496l-0.587,1.497l-0.526,1.5l-0.24,0.752l-0.113,0.376l-0.105,0.375
	l-4.189,0.075l-0.123-0.372l-0.126-0.372l-0.265-0.743l-0.578-1.48l-0.644-1.478l-0.696-1.471l-3.983,0.267l-0.494,1.551
	l-0.438,1.549l-0.378,1.545l-0.163,0.771l-0.076,0.385l-0.07,0.385l-4.162,0.484l-0.159-0.358l-0.16-0.357l-0.338-0.713
	l-0.719-1.418l-0.783-1.408l-0.838-1.395l-3.934,0.655l-0.345,1.592l-0.282,1.584l-0.223,1.575l-0.09,0.782l-0.036,0.392
	l-0.033,0.39l-4.096,0.891l-0.189-0.342l-0.196-0.34l-0.405-0.677l-0.859-1.339l-0.915-1.324l-0.972-1.309l-3.851,1.04l-0.186,1.617
	l-0.126,1.606l-0.066,1.588l-0.013,0.788l0.003,0.393l0.007,0.392l-3.99,1.287l-0.226-0.32l-0.226-0.32l-0.471-0.633l-0.981-1.25
	l-1.042-1.227l-1.098-1.204l-3.731,1.41l-0.023,1.628l0.03,1.608l0.09,1.588l0.066,0.787l0.04,0.39l0.043,0.39l-3.841,1.671
	l-0.255-0.298l-0.259-0.295l-0.531-0.583l-1.101-1.148l-1.155-1.119l-1.21-1.093l-3.576,1.77l0.136,1.624l0.189,1.598l0.242,1.573
	l0.146,0.773l0.076,0.385l0.083,0.383l-3.662,2.041l-0.282-0.271l-0.285-0.269l-0.583-0.53l-1.211-1.033l-1.26-1.002l-1.306-0.969
	l-3.386,2.113l0.292,1.602l0.345,1.572l0.395,1.541l0.223,0.756l0.113,0.377l0.119,0.371l-3.442,2.39l-0.309-0.24l-0.308-0.241
	l-0.634-0.469l-1.304-0.912l-1.353-0.872l-1.4-0.834l-3.161,2.433l0.451,1.565l0.495,1.531l0.547,1.494l0.291,0.731l0.15,0.363
	l0.156,0.358l-3.194,2.716l-0.329-0.21l-0.331-0.208l-0.677-0.407l-1.387-0.777l-1.433-0.737l-1.473-0.693l-2.908,2.73l0.6,1.515
	l0.644,1.474l0.69,1.433l0.365,0.7l0.186,0.346l0.189,0.342l-2.912,3.016l-0.349-0.177l-0.351-0.175l-0.714-0.336l-1.456-0.639
	l-1.496-0.592l-1.536-0.546l-2.626,3.001l0.746,1.45l0.786,1.402l0.826,1.36l0.432,0.66l0.219,0.327l0.222,0.322l-2.603,3.285
	l-0.362-0.141l-0.369-0.14l-0.742-0.265l-1.513-0.492l-1.545-0.441l-1.583-0.395l-2.318,3.247l0.882,1.367l0.922,1.32l0.955,1.272
	l0.491,0.614l0.251,0.304l0.252,0.299l-2.269,3.524l-0.375-0.104l-0.378-0.101l-0.766-0.193l-1.552-0.342l-1.585-0.288L26.325,105
	l-1.99,3.457l1.015,1.274l1.044,1.226l1.079,1.17l0.546,0.565l0.279,0.276l0.282,0.272l-1.91,3.731l-0.386-0.068l-0.388-0.064
	l-0.779-0.116l-1.579-0.188l-1.605-0.13l-1.625-0.08l-1.642,3.636l1.134,1.17l1.158,1.116l1.188,1.06l0.604,0.507l0.302,0.249
	l0.309,0.243l-1.536,3.899l-0.391-0.031l-0.392-0.024l-0.786-0.041l-1.592-0.031l-1.608,0.027l-1.625,0.08l-1.277,3.781l1.24,1.051
	l1.264,0.997l1.283,0.94l0.651,0.445l0.328,0.218l0.328,0.212l-1.147,4.029l-0.391,0.01l-0.392,0.011l-0.786,0.039l-1.585,0.125
	l-1.599,0.184l-1.611,0.24l-0.899,3.888l1.34,0.923l1.354,0.869l1.37,0.809l0.69,0.38l0.348,0.184l0.348,0.179l-0.746,4.126
	l-0.388,0.045l-0.387,0.051l-0.783,0.116l-1.565,0.279l-1.569,0.34l-1.579,0.396l-0.518,3.958l1.426,0.79l1.432,0.73l1.443,0.67
	l0.723,0.312l0.365,0.15l0.361,0.144l-0.334,4.178l-0.382,0.084l-0.385,0.088l-0.763,0.191l-1.532,0.431l-1.532,0.493l-1.532,0.55
	l-0.126,3.989l1.496,0.645l1.499,0.587l1.503,0.525l0.75,0.241l0.375,0.113l0.378,0.105l0.073,4.191l-0.372,0.121l-0.372,0.128
	l-0.743,0.266l-1.482,0.577l-1.477,0.641l-1.469,0.698l0.265,3.981l1.549,0.498l1.548,0.436l1.546,0.377l0.772,0.163l0.385,0.075
	l0.385,0.071l0.484,4.164l-0.358,0.156l-0.358,0.162l-0.713,0.337l-1.417,0.722l-1.406,0.782l-1.397,0.838l0.654,3.935l1.592,0.342
	l1.585,0.284l1.575,0.224l0.783,0.087l0.391,0.037l0.388,0.031l0.892,4.098l-0.342,0.191l-0.341,0.196l-0.677,0.405l-1.34,0.857
	l-1.323,0.916l-1.307,0.974l1.038,3.85l1.619,0.184l1.605,0.128l1.588,0.067l0.79,0.013l0.391-0.003l0.392-0.006l1.287,3.989
	l-0.322,0.225l-0.319,0.228l-0.633,0.47l-1.25,0.981l-1.228,1.042l-1.204,1.095l1.41,3.733l1.628,0.023l1.609-0.03l1.589-0.089
	l0.786-0.068l0.388-0.038l0.388-0.045l1.674,3.842l-0.298,0.255l-0.295,0.259l-0.583,0.529l-1.148,1.101l-1.121,1.158l-1.092,1.208
	l1.771,3.576l1.622-0.136l1.599-0.189l1.572-0.242l0.772-0.145l0.385-0.078l0.385-0.082l2.04,3.661l-0.272,0.282l-0.269,0.287
	l-0.527,0.583l-1.035,1.208l-1.002,1.262l-0.969,1.307l2.113,3.387l1.602-0.294l1.571-0.345l1.54-0.396l0.759-0.22l0.375-0.117
	l0.372-0.117l2.388,3.443l-0.242,0.306l-0.239,0.313l-0.468,0.632l-0.912,1.306l-0.872,1.353l-0.835,1.397l2.434,3.16l1.565-0.448
	l1.529-0.496l1.496-0.547l0.733-0.292l0.361-0.15l0.359-0.156l2.716,3.192l-0.212,0.329l-0.206,0.334l-0.408,0.676l-0.776,1.387
	l-0.736,1.432l-0.693,1.473l2.73,2.908l1.512-0.601l1.476-0.645l1.437-0.69l0.696-0.361l0.348-0.186l0.341-0.19l3.015,2.91
	l-0.179,0.351l-0.173,0.351l-0.338,0.712l-0.637,1.458l-0.59,1.495l-0.547,1.533l3.001,2.628l1.446-0.746l1.406-0.786l1.36-0.828
	l0.66-0.428l0.325-0.219l0.322-0.223l3.287,2.6l-0.143,0.365l-0.136,0.367l-0.269,0.743l-0.491,1.513l-0.445,1.547l-0.391,1.58
	l3.244,2.317l1.37-0.884l1.32-0.918l1.271-0.957l0.617-0.492l0.301-0.249l0.299-0.253l3.525,2.266l-0.106,0.377l-0.103,0.38
	l-0.188,0.765l-0.346,1.553l-0.285,1.583l-0.239,1.61l3.458,1.991l1.274-1.016l1.224-1.042l1.17-1.076l0.564-0.551l0.279-0.279
	l0.272-0.28l3.731,1.911l-0.069,0.385l-0.063,0.388l-0.116,0.779l-0.189,1.579l-0.133,1.604l-0.077,1.626l3.635,1.644l1.171-1.135
	l1.115-1.16l1.061-1.187l0.507-0.602l0.249-0.305l0.241-0.307l3.901,1.535l-0.03,0.39l-0.026,0.39l-0.041,0.789l-0.033,1.589
	l0.027,1.609l0.083,1.628l3.781,1.276l1.051-1.244l0.999-1.263l0.939-1.283l0.444-0.649l0.219-0.327l0.213-0.328l4.029,1.145
	l0.01,0.392l0.014,0.392l0.037,0.789l0.123,1.585l0.186,1.599l0.239,1.612l3.887,0.899l0.925-1.34l0.869-1.355l0.809-1.37
	l0.382-0.689l0.182-0.347l0.179-0.349l4.123,0.747l0.05,0.386l0.049,0.39l0.116,0.779l0.278,1.565l0.338,1.572l0.398,1.579
	l3.957,0.517l0.789-1.426l0.733-1.433l0.669-1.441l0.312-0.725l0.149-0.361l0.143-0.363l4.179,0.337l0.083,0.382l0.089,0.383
	l0.192,0.764l0.432,1.529l0.491,1.532l0.551,1.532l3.986,0.126l0.646-1.492l0.587-1.499l0.528-1.501l0.239-0.751l0.113-0.377
	l0.105-0.376l4.193-0.073l0.119,0.372l0.127,0.37l0.265,0.744l0.582,1.479l0.639,1.479l0.697,1.47l3.98-0.266l0.497-1.549
	l0.437-1.553l0.378-1.543l0.162-0.771l0.077-0.385l0.069-0.385l4.163-0.485l0.159,0.357l0.164,0.356l0.334,0.715l0.72,1.418
	l0.784,1.407l0.838,1.396l3.938-0.653l0.341-1.596l0.282-1.583l0.223-1.574l0.09-0.784l0.036-0.39l0.033-0.39l4.095-0.891
	l0.193,0.341l0.192,0.342l0.408,0.678l0.856,1.339l0.915,1.324l0.972,1.306l3.854-1.038l0.182-1.616l0.13-1.604l0.067-1.589
	l0.01-0.788v-0.393l-0.007-0.392l3.989-1.287l0.223,0.32l0.229,0.32l0.468,0.633l0.985,1.25l1.042,1.227l1.093,1.205l3.731-1.409
	l0.023-1.631l-0.031-1.606l-0.089-1.589l-0.065-0.785l-0.041-0.391l-0.043-0.388l3.845-1.674l0.251,0.298l0.259,0.296l0.531,0.584
	l1.102,1.147l1.157,1.12l1.207,1.09l3.576-1.767l-0.133-1.624l-0.188-1.599l-0.246-1.57l-0.143-0.776l-0.077-0.385l-0.083-0.383
	l3.658-2.041l0.285,0.271l0.287,0.268l0.583,0.531l1.208,1.034l1.261,1l1.31,0.968l3.384-2.111l-0.292-1.602l-0.345-1.572
	l-0.395-1.54l-0.218-0.757l-0.116-0.375l-0.12-0.373l3.443-2.389l0.308,0.242l0.312,0.238l0.633,0.47l1.304,0.91l1.354,0.873
	l1.395,0.833l3.165-2.433l-0.451-1.565l-0.498-1.528l-0.543-1.496l-0.292-0.729l-0.153-0.363l-0.156-0.359l3.194-2.715l0.329,0.211
	l0.333,0.207l0.677,0.406l1.385,0.777l1.435,0.734l1.472,0.695l2.909-2.73l-0.602-1.516l-0.642-1.474l-0.691-1.435l-0.364-0.699
	l-0.185-0.346l-0.189-0.343l2.912-3.015l0.349,0.178l0.352,0.174l0.712,0.338l1.456,0.639l1.497,0.591l1.531,0.545l2.627-3.001
	l-0.743-1.449l-0.787-1.403l-0.828-1.36l-0.428-0.662l-0.218-0.324l-0.223-0.32l2.6-3.286l0.366,0.141l0.367,0.138l0.74,0.267
	l1.513,0.494l1.548,0.441l1.579,0.394l2.322-3.248l-0.886-1.366l-0.918-1.319l-0.958-1.273l-0.49-0.614l-0.25-0.304l-0.251-0.298
	l2.266-3.524l0.377,0.105l0.379,0.101l0.766,0.192l1.552,0.341l1.582,0.289l1.612,0.237l1.991-3.458l-1.015-1.273l-1.043-1.224
	l-1.077-1.171l-0.551-0.565l-0.279-0.276l-0.278-0.272l1.91-3.731l0.385,0.067l0.388,0.066l0.779,0.114l1.578,0.189l1.605,0.13
	l1.625,0.078l1.643-3.636l-1.134-1.167l-1.161-1.118l-1.184-1.058l-0.604-0.508l-0.306-0.249l-0.305-0.243l1.535-3.899l0.39,0.029
	l0.39,0.025l0.79,0.04l1.589,0.032l1.607-0.024l1.63-0.084l1.276-3.779l-1.243-1.052l-1.264-0.997l-1.284-0.938l-0.65-0.447
	l-0.324-0.217l-0.328-0.213l1.144-4.032l0.392-0.009l0.391-0.013l0.79-0.036l1.586-0.125l1.598-0.185l1.609-0.241l0.901-3.886
	l-1.34-0.925l-1.356-0.868l-1.369-0.81l-0.69-0.381l-0.345-0.183l-0.349-0.181l0.746-4.124l0.385-0.046l0.392-0.052l0.779-0.114
	l1.566-0.278l1.571-0.34l1.579-0.396l0.518-3.958L267,186.036l-1.434-0.733l-1.441-0.671l-0.724-0.311l-0.362-0.149l-0.364-0.143
	l0.339-4.179L263.391,179.769z M118.553,60.795l7.317-1.072l7.37-0.591l7.393-0.11l7.382,0.376l7.347,0.859l7.27,1.337l7.17,1.809
	l7.036,2.277l6.871,2.73l6.677,3.175l6.457,3.605l6.206,4.02l5.93,4.417l5.625,4.796l5.304,5.154l4.951,5.49l-0.756,5.254
	l-67.098,45.601l-6.839-0.092l-3.127-1.375l-3.284-0.934l-5.33-4.286l-22.635-77.908L118.553,60.795z M144.857,171.919
	c0,3.46-2.809,6.267-6.268,6.267c-3.463,0-6.269-2.806-6.269-6.267c0-3.463,2.806-6.269,6.269-6.269
	C142.048,165.65,144.857,168.456,144.857,171.919z M27.954,149.345l1.715-7.192l2.182-7.066l2.64-6.907l3.084-6.718l3.519-6.503
	l3.937-6.259l4.338-5.988l4.719-5.691l5.084-5.368l5.423-5.026l5.741-4.66l6.033-4.274l6.302-3.87l6.541-3.449l6.752-3.015
	l4.763,2.342l22.636,77.909l-2.203,6.474l-2.275,2.551l-1.904,2.835l-5.725,3.743l-81.086-2.549l-3.457-4.029L27.954,149.345z
	 M94.382,271.553l-4.899,2.041l-6.55-3.434l-6.311-3.853l-6.043-4.257l-5.754-4.646l-5.436-5.011l-5.097-5.357l-4.737-5.678
	l-4.354-5.975l-3.954-6.248l-3.535-6.494l-3.104-6.711l-2.657-6.899l-2.202-7.06l-1.731-7.188l-1.26-7.287l-0.78-7.351l3.699-3.808
	l81.09,2.549l5.476,4.094l1.724,2.95l2.106,2.689l1.792,6.6L94.382,271.553z M214.823,255.208l-5.614,4.812l-5.917,4.432
	l-6.196,4.037l-6.444,3.621l-6.669,3.194l-6.866,2.749l-7.027,2.294l-7.165,1.83l-7.27,1.355l-7.339,0.877l-7.387,0.396
	l-7.393-0.088l-7.369-0.574l-7.319-1.053l-7.234-1.531l-2.478-4.696l27.481-76.331l5.588-3.945l3.337-0.727l3.207-1.174l6.832,0.337
	l64.104,49.727l0.425,5.289L214.823,255.208z M250.971,182.842l-0.956,7.333l-1.433,7.253l-1.906,7.144l-2.368,7.003l-2.822,6.834
	l-3.265,6.636l-3.691,6.406l-5.23,0.906l-64.106-49.726l-2.022-6.533l0.341-3.399l-0.129-3.412l2.431-6.394l67.101-45.601
	l5.165,1.23l3.284,6.626l2.838,6.827l2.389,6.997l1.923,7.141l1.453,7.249l0.979,7.329l0.489,7.378l0.011,7.394L250.971,182.842z"/>
<path id="Gear_12" fill="#B3B3B3" stroke="#000000" stroke-width="0.1" stroke-linecap="round" stroke-linejoin="round" stroke-miterlimit="10" d="
	M316.494,159.818l-0.396-0.249l-0.4-0.233l-0.401-0.212l-0.403-0.194l-0.405-0.173l-0.407-0.153l-0.405-0.131l-0.407-0.106
	l-0.405-0.078l-0.402-0.036l-0.401,0.002l-0.201-0.014l-0.202-0.03l-0.203-0.047l-0.103-0.033l-0.103-0.041l-0.103-0.052
	l-0.107-0.068l-0.105-0.096l-0.338-1.953l-0.325-1.954l0.072-0.128l0.076-0.098l0.08-0.083l0.084-0.073l0.085-0.064l0.18-0.111
	l0.179-0.094l0.186-0.08l0.382-0.129l0.368-0.168l0.358-0.205l0.348-0.234l0.342-0.256l0.332-0.278l0.325-0.299l0.317-0.315
	l0.309-0.334l0.302-0.348l0.295-0.367l0.285-0.381l-1.555-3.395l-0.474-0.033l-0.469-0.017h-0.461l-0.457,0.017l-0.448,0.035
	l-0.438,0.052l-0.426,0.069l-0.415,0.089l-0.405,0.111l-0.392,0.136l-0.367,0.17l-0.346,0.203l-0.183,0.087l-0.189,0.075
	l-0.199,0.063l-0.105,0.022l-0.11,0.016l-0.115,0.007l-0.126-0.006l-0.139-0.031l-1.271-1.521l-1.257-1.533l-0.004-0.145
	l0.017-0.125l0.03-0.112l0.036-0.103l0.042-0.1l0.098-0.185l0.109-0.173l0.119-0.163l0.266-0.302l0.235-0.328l0.206-0.358
	l0.185-0.376l0.166-0.394l0.149-0.408l0.133-0.419l0.115-0.432l0.104-0.445l0.085-0.453l0.074-0.464l0.055-0.473l-3.04-2.164
	l-0.429,0.21l-0.418,0.221l-0.397,0.23l-0.385,0.242l-0.371,0.253l-0.352,0.264l-0.338,0.275l-0.315,0.285l-0.295,0.299l-0.27,0.312
	l-0.232,0.332l-0.202,0.348l-0.113,0.167l-0.125,0.161l-0.142,0.153l-0.08,0.071l-0.09,0.07l-0.094,0.063l-0.112,0.058l-0.137,0.043
	l-1.86-0.683l-1.856-0.696l-0.072-0.125l-0.048-0.115l-0.033-0.113l-0.019-0.109l-0.014-0.106l-0.007-0.209l0.01-0.204l0.021-0.201
	l0.079-0.393l0.039-0.403v-0.413l-0.028-0.418l-0.054-0.424l-0.073-0.426l-0.096-0.432l-0.113-0.435l-0.136-0.435l-0.15-0.436
	l-0.172-0.438l-0.186-0.439l-3.719-0.351l-0.264,0.396l-0.249,0.4l-0.232,0.4l-0.213,0.402l-0.192,0.405l-0.175,0.404l-0.153,0.405
	l-0.132,0.406l-0.106,0.406l-0.077,0.405l-0.036,0.404l0.005,0.4l-0.018,0.202l-0.026,0.203l-0.051,0.204l-0.033,0.102l-0.039,0.103
	l-0.051,0.104l-0.069,0.105l-0.095,0.107l-1.954,0.337l-1.953,0.324l-0.13-0.07l-0.096-0.076l-0.084-0.082l-0.072-0.083
	l-0.066-0.085l-0.109-0.178l-0.093-0.181l-0.082-0.186l-0.131-0.38l-0.166-0.369l-0.205-0.358l-0.235-0.349l-0.255-0.339
	l-0.279-0.333l-0.298-0.325l-0.315-0.316l-0.335-0.311l-0.349-0.303l-0.364-0.293l-0.382-0.288l-3.396,1.554l-0.033,0.476
	l-0.016,0.47v0.464l0.016,0.454l0.033,0.446l0.054,0.438l0.069,0.427l0.09,0.418l0.112,0.403l0.137,0.392l0.169,0.366l0.202,0.347
	l0.087,0.182l0.075,0.189l0.063,0.199l0.021,0.106l0.019,0.109l0.007,0.116l-0.007,0.125l-0.029,0.14l-1.525,1.27l-1.529,1.258
	l-0.146,0.003l-0.123-0.018l-0.113-0.028l-0.105-0.037l-0.097-0.041l-0.186-0.098l-0.172-0.11l-0.163-0.121l-0.301-0.264
	l-0.33-0.235l-0.356-0.207l-0.375-0.184l-0.396-0.166l-0.408-0.15l-0.418-0.132l-0.434-0.118l-0.444-0.104l-0.455-0.085
	l-0.461-0.072l-0.475-0.058l-2.161,3.045l0.208,0.428l0.22,0.413l0.231,0.401l0.243,0.384l0.251,0.372l0.265,0.353l0.276,0.335
	l0.285,0.316l0.299,0.295l0.311,0.269l0.333,0.234l0.347,0.198l0.167,0.112l0.163,0.129l0.151,0.142l0.074,0.08l0.064,0.087
	l0.066,0.096l0.057,0.11l0.044,0.138l-0.683,1.859l-0.697,1.856l-0.126,0.076l-0.112,0.045l-0.113,0.031l-0.109,0.022l-0.105,0.013
	l-0.21,0.008l-0.205-0.01l-0.199-0.023l-0.396-0.077l-0.4-0.039h-0.415l-0.417,0.026l-0.426,0.053l-0.424,0.076l-0.431,0.094
	l-0.435,0.114l-0.436,0.133l-0.437,0.152l-0.438,0.169l-0.438,0.187l-0.352,3.718l0.395,0.267l0.397,0.249l0.402,0.23l0.404,0.212
	l0.4,0.194l0.408,0.174l0.404,0.154l0.405,0.129l0.408,0.106l0.404,0.078l0.405,0.037l0.397-0.001l0.202,0.014l0.202,0.029
	l0.206,0.047l0.1,0.033l0.103,0.042l0.106,0.053l0.104,0.066l0.108,0.098l0.338,1.952l0.322,1.956l-0.069,0.128l-0.076,0.098
	l-0.08,0.083l-0.087,0.072l-0.085,0.064l-0.177,0.111l-0.182,0.094l-0.187,0.08l-0.378,0.129l-0.368,0.167l-0.357,0.206
	l-0.349,0.233l-0.341,0.257l-0.333,0.279l-0.325,0.298l-0.317,0.315l-0.309,0.334l-0.302,0.35l-0.295,0.366l-0.289,0.382
	l1.556,3.395l0.477,0.032l0.469,0.017h0.461l0.457-0.018l0.448-0.033l0.434-0.053l0.433-0.069l0.413-0.089l0.405-0.11l0.392-0.136
	l0.367-0.171l0.346-0.202l0.183-0.088l0.189-0.077l0.199-0.061l0.105-0.021l0.11-0.017l0.115-0.008l0.123,0.007l0.142,0.03
	l1.268,1.523l1.26,1.529l0.004,0.146l-0.02,0.122l-0.027,0.113l-0.036,0.105l-0.042,0.097l-0.098,0.187l-0.109,0.172l-0.123,0.163
	l-0.262,0.302l-0.235,0.328l-0.208,0.358l-0.183,0.376l-0.166,0.393l-0.149,0.408l-0.133,0.42l-0.12,0.434l-0.099,0.443
	l-0.086,0.453l-0.074,0.465l-0.06,0.472l3.045,2.165l0.429-0.21l0.415-0.221l0.4-0.23l0.385-0.242l0.371-0.251l0.352-0.266
	l0.338-0.273l0.315-0.287l0.295-0.299l0.27-0.313l0.235-0.33l0.195-0.349l0.117-0.168l0.125-0.16l0.144-0.153l0.078-0.073
	l0.087-0.068l0.097-0.065l0.108-0.056l0.141-0.045l1.86,0.686l1.854,0.697l0.077,0.125l0.046,0.114l0.029,0.112l0.02,0.109
	l0.014,0.106l0.01,0.207l-0.01,0.205l-0.023,0.202l-0.075,0.393l-0.04,0.404v0.411l0.025,0.42l0.054,0.423l0.073,0.428l0.096,0.43
	l0.116,0.432l0.133,0.436l0.153,0.437l0.168,0.438l0.189,0.438l3.719,0.352l0.264-0.395l0.249-0.399l0.229-0.4l0.213-0.402
	l0.196-0.403l0.172-0.405l0.156-0.407l0.129-0.405l0.106-0.406l0.075-0.404l0.038-0.403v-0.402l0.013-0.203l0.029-0.202l0.046-0.203
	l0.035-0.103l0.039-0.103l0.054-0.103l0.066-0.105l0.095-0.107l1.954-0.336l1.956-0.323l0.127,0.068l0.099,0.078l0.084,0.08
	l0.072,0.083l0.063,0.088l0.112,0.174l0.093,0.181l0.079,0.186l0.131,0.381l0.169,0.37l0.205,0.355l0.231,0.35l0.259,0.34
	l0.279,0.333l0.295,0.325l0.318,0.318l0.332,0.309l0.352,0.304l0.364,0.293l0.382,0.286l3.396-1.554l0.033-0.476l0.016-0.469
	l-0.003-0.462l-0.016-0.456l-0.033-0.446l-0.054-0.438l-0.069-0.427l-0.09-0.417l-0.109-0.404l-0.137-0.39l-0.169-0.367
	l-0.202-0.348l-0.09-0.183l-0.075-0.188l-0.061-0.2l-0.023-0.105l-0.016-0.11l-0.007-0.116l0.007-0.123l0.029-0.144l1.522-1.268
	l1.529-1.26l0.146-0.003l0.125,0.019l0.11,0.028l0.105,0.036l0.1,0.043l0.186,0.097l0.169,0.108l0.163,0.122l0.301,0.264
	l0.333,0.235l0.354,0.208l0.379,0.184l0.391,0.167l0.408,0.149l0.422,0.133l0.431,0.116l0.444,0.103l0.453,0.088l0.466,0.071
	l0.47,0.057l2.166-3.043l-0.212-0.428l-0.219-0.415l-0.232-0.4l-0.241-0.387l-0.252-0.369l-0.267-0.354l-0.271-0.337l-0.288-0.314
	l-0.299-0.296l-0.311-0.268l-0.333-0.232l-0.349-0.201l-0.169-0.113l-0.159-0.127l-0.151-0.143l-0.074-0.08l-0.069-0.086
	l-0.063-0.096l-0.055-0.111l-0.048-0.137l0.687-1.859l0.697-1.856l0.123-0.075l0.115-0.046l0.113-0.032l0.109-0.02l0.105-0.014
	l0.21-0.008l0.202,0.008l0.201,0.025l0.392,0.076l0.405,0.041h0.412l0.421-0.029l0.42-0.051l0.429-0.077l0.431-0.095l0.431-0.114
	l0.436-0.134l0.438-0.151l0.437-0.169l0.438-0.187l0.352-3.718L316.494,159.818z M289.951,165.68c-3.46,0-6.265-2.806-6.265-6.267
	c0-3.463,2.805-6.269,6.265-6.269c3.461,0,6.268,2.806,6.268,6.269C296.219,162.875,293.412,165.68,289.951,165.68z"/>
<path id="Gear_8" fill="#CCCCCC" stroke="#000000" stroke-width="0.1" stroke-linecap="round" stroke-linejoin="round" stroke-miterlimit="10" d="
	M157.148,172.464l-0.398-0.292l-0.397-0.268l-0.402-0.239l-0.408-0.216l-0.408-0.186l-0.408-0.157l-0.409-0.123l-0.403-0.084
	l-0.405-0.012l-0.397,0.062l-0.402,0.017l-0.2-0.012l-0.205-0.027l-0.203-0.049l-0.103-0.035l-0.105-0.042l-0.107-0.057
	l-0.105-0.073l-0.113-0.107l-0.133-0.293l-0.302-1.572l-0.493-1.525l-0.023-0.321l0.046-0.147l0.056-0.116l0.067-0.099l0.072-0.09
	l0.072-0.079l0.156-0.142l0.163-0.123l0.172-0.105l0.358-0.18l0.377-0.139l0.348-0.204l0.315-0.269l0.298-0.305l0.283-0.335
	l0.268-0.358l0.253-0.385l0.234-0.404l0.223-0.426l0.205-0.447l0.189-0.464l-1.021-1.504l-1.158-1.399l-0.5,0.05l-0.484,0.074
	l-0.472,0.092l-0.458,0.114l-0.437,0.134l-0.417,0.158l-0.402,0.178l-0.375,0.203l-0.348,0.227l-0.292,0.276l-0.239,0.325
	l-0.272,0.295l-0.153,0.134l-0.162,0.125l-0.176,0.11l-0.099,0.049l-0.107,0.042l-0.113,0.035l-0.129,0.025l-0.153,0.002
	l-0.305-0.111l-1.323-0.898l-1.425-0.728l-0.246-0.212l-0.069-0.137l-0.043-0.125l-0.023-0.118l-0.013-0.111l-0.004-0.109l0.01-0.21
	l0.03-0.203l0.046-0.195l0.126-0.38l0.169-0.367l0.103-0.39l0.033-0.415l-0.006-0.426l-0.038-0.436l-0.063-0.442l-0.092-0.449
	l-0.12-0.453l-0.146-0.459l-0.169-0.461l-0.195-0.461l-1.784-0.343l-1.812-0.169l-0.315,0.39l-0.292,0.395l-0.268,0.4l-0.243,0.402
	l-0.213,0.405l-0.188,0.408l-0.156,0.408l-0.123,0.408l-0.083,0.408l-0.014,0.403l0.063,0.397l0.016,0.399l-0.013,0.202
	l-0.026,0.203l-0.05,0.206l-0.032,0.103l-0.043,0.105l-0.057,0.104l-0.074,0.108l-0.108,0.112l-0.296,0.135l-1.567,0.301
	l-1.527,0.493l-0.321,0.023l-0.146-0.046l-0.12-0.058l-0.099-0.065l-0.086-0.071l-0.08-0.075l-0.143-0.156l-0.123-0.162
	l-0.106-0.173l-0.179-0.358l-0.14-0.379l-0.202-0.348l-0.272-0.315l-0.301-0.298l-0.335-0.283l-0.358-0.268l-0.385-0.252
	l-0.405-0.237l-0.428-0.221l-0.445-0.206l-0.464-0.187l-1.505,1.02l-1.399,1.16l0.053,0.499l0.073,0.486l0.093,0.472l0.113,0.454
	l0.136,0.44l0.156,0.419l0.179,0.4l0.199,0.375l0.229,0.349l0.278,0.291l0.321,0.239l0.295,0.272l0.136,0.151l0.126,0.162
	l0.109,0.179l0.046,0.098l0.043,0.104l0.036,0.114l0.023,0.128l0.003,0.154l-0.113,0.304l-0.898,1.325l-0.73,1.426l-0.208,0.246
	l-0.14,0.071l-0.123,0.042l-0.116,0.023l-0.113,0.013l-0.109,0.003l-0.209-0.01l-0.203-0.029l-0.199-0.045l-0.378-0.128
	l-0.365-0.169l-0.391-0.103l-0.415-0.033l-0.424,0.006l-0.438,0.036l-0.441,0.065l-0.451,0.093l-0.455,0.119l-0.458,0.146
	l-0.461,0.171l-0.461,0.194l-0.341,1.786l-0.169,1.809l0.388,0.315l0.395,0.292l0.401,0.269l0.401,0.24l0.405,0.214l0.408,0.188
	l0.408,0.156l0.409,0.124l0.408,0.086l0.405,0.01l0.395-0.059l0.401-0.019l0.202,0.012l0.203,0.027l0.206,0.05l0.103,0.035
	l0.106,0.043l0.103,0.056l0.109,0.072l0.11,0.108l0.136,0.294l0.301,1.571l0.495,1.524l0.023,0.324l-0.046,0.146l-0.06,0.117
	l-0.066,0.098l-0.07,0.089l-0.073,0.08l-0.156,0.141l-0.166,0.122l-0.169,0.108l-0.361,0.176l-0.375,0.141l-0.348,0.203l-0.319,0.27
	l-0.298,0.305l-0.282,0.333l-0.265,0.36l-0.252,0.383l-0.238,0.406l-0.219,0.426l-0.206,0.446l-0.188,0.463l1.019,1.504l1.16,1.399
	l0.498-0.052l0.488-0.072l0.471-0.093l0.455-0.115l0.441-0.134l0.418-0.158l0.401-0.177l0.375-0.202l0.348-0.227l0.292-0.278
	l0.239-0.325l0.272-0.295l0.149-0.132l0.162-0.126l0.179-0.109l0.1-0.05l0.103-0.041l0.116-0.035l0.126-0.025l0.156-0.001
	l0.302,0.113l1.327,0.899l1.426,0.726l0.242,0.212l0.073,0.136l0.04,0.125l0.026,0.117l0.013,0.111l0.003,0.11l-0.009,0.21
	l-0.03,0.202l-0.047,0.196l-0.129,0.381l-0.169,0.365l-0.099,0.388l-0.033,0.417l0.004,0.425l0.036,0.436l0.066,0.443l0.093,0.449
	l0.119,0.456l0.146,0.458l0.169,0.46l0.196,0.463l1.784,0.342l1.81,0.169l0.315-0.388l0.292-0.395l0.269-0.399l0.239-0.403
	l0.215-0.406l0.187-0.406l0.155-0.408l0.127-0.409l0.082-0.406l0.01-0.403l-0.059-0.398l-0.018-0.4l0.01-0.202l0.03-0.204
	l0.046-0.204l0.036-0.103l0.043-0.104l0.056-0.105l0.072-0.107l0.107-0.111l0.295-0.135l1.572-0.303l1.522-0.492l0.325-0.023
	l0.146,0.046l0.115,0.058l0.1,0.066l0.089,0.069l0.08,0.073l0.143,0.157l0.122,0.164l0.107,0.171l0.175,0.36l0.144,0.376l0.202,0.35
	l0.269,0.315l0.305,0.299l0.334,0.282l0.358,0.266l0.385,0.253l0.405,0.237l0.425,0.221l0.446,0.205l0.464,0.188l1.506-1.019
	l1.4-1.161l-0.054-0.498l-0.072-0.487l-0.094-0.47l-0.113-0.455l-0.136-0.438l-0.155-0.421l-0.179-0.4l-0.202-0.376l-0.229-0.347
	l-0.276-0.292l-0.325-0.24l-0.295-0.271l-0.136-0.15l-0.123-0.165l-0.108-0.179l-0.051-0.096l-0.043-0.104l-0.032-0.115
	l-0.024-0.128l-0.003-0.155l0.11-0.304l0.898-1.324l0.73-1.427l0.213-0.243l0.136-0.071l0.126-0.04l0.115-0.026l0.113-0.012
	l0.106-0.005l0.213,0.01l0.202,0.03l0.195,0.046l0.382,0.13l0.364,0.167l0.388,0.103l0.415,0.032l0.428-0.004l0.434-0.037
	l0.445-0.064l0.448-0.093l0.454-0.12l0.457-0.146l0.461-0.169l0.464-0.195l0.343-1.785l0.169-1.811L157.148,172.464z
	 M138.589,178.186c-3.463,0-6.269-2.806-6.269-6.268c0-3.461,2.806-6.267,6.269-6.267c3.458,0,6.268,2.806,6.268,6.267
	C144.857,175.379,142.048,178.186,138.589,178.186z"/>
<path id="Gear_90" fill="#CCCCCC" stroke="#000000" stroke-width="0.1" stroke-linecap="round" stroke-linejoin="round" stroke-miterlimit="10" d="
	M472.346,296.882l0.382-0.105l0.76-0.216l1.525-0.461l1.526-0.511l1.521-0.55l0.089-4.012l-1.495-0.619l-1.499-0.575l-1.502-0.532
	l-0.753-0.249l-0.375-0.121l-0.377-0.117l-0.051-4.153l0.371-0.129l0.375-0.129l0.743-0.27l1.489-0.567l1.486-0.614l1.481-0.654
	l-0.192-4.01l-1.535-0.512l-1.538-0.471l-1.533-0.424l-0.769-0.198l-0.382-0.093l-0.385-0.091l-0.341-4.141l0.364-0.151l0.361-0.155
	l0.723-0.32l1.446-0.671l1.436-0.717l1.433-0.756l-0.467-3.987l-1.569-0.403l-1.568-0.363l-1.559-0.316l-0.779-0.142l-0.389-0.067
	l-0.388-0.063l-0.631-4.108l0.349-0.177l0.352-0.179l0.703-0.368l1.394-0.773l1.382-0.814l1.381-0.855l-0.75-3.943L473,252.733
	l-1.59-0.25l-1.577-0.209l-0.786-0.087l-0.395-0.039l-0.393-0.037l-0.915-4.054l0.342-0.2l0.335-0.205l0.674-0.417l1.339-0.866
	l1.324-0.906l1.313-0.95l-1.019-3.882l-1.612-0.183l-1.602-0.14l-1.589-0.097l-0.792-0.032l-0.396-0.013l-0.39-0.008l-1.199-3.979
	l0.325-0.226l0.323-0.228l0.643-0.463l1.27-0.958l1.261-0.999l1.243-1.038l-1.289-3.801l-1.619-0.069l-1.605-0.028l-1.592,0.015
	l-0.792,0.022l-0.395,0.016l-0.393,0.019l-1.472-3.885l0.309-0.247l0.305-0.249l0.61-0.506l1.204-1.045l1.185-1.084l1.166-1.124
	l-1.548-3.703l-1.618,0.047l-1.606,0.083l-1.588,0.126l-0.789,0.078l-0.392,0.043l-0.392,0.045l-1.738-3.773l0.292-0.268
	l0.285-0.271l0.573-0.548l1.125-1.124l1.107-1.165l1.088-1.202l-1.803-3.585l-1.612,0.157l-1.597,0.196l-1.574,0.235l-0.783,0.132
	l-0.385,0.072l-0.388,0.072l-1.997-3.644l0.27-0.286l0.269-0.291l0.533-0.587l1.049-1.2l1.021-1.237l1.002-1.275l-2.051-3.449
	l-1.598,0.269l-1.578,0.307l-1.556,0.345l-0.77,0.188l-0.382,0.098l-0.38,0.099l-2.247-3.495l0.249-0.305l0.245-0.309l0.492-0.62
	l0.961-1.272l0.933-1.309l0.908-1.341l-2.284-3.299l-1.576,0.38l-1.553,0.416l-1.525,0.453l-0.756,0.241l-0.375,0.125l-0.374,0.125
	l-2.484-3.331l0.229-0.32l0.226-0.325l0.445-0.653l0.867-1.336l0.84-1.368l0.816-1.401l-2.511-3.133l-1.546,0.489l-1.52,0.524
	l-1.492,0.558l-0.735,0.292l-0.366,0.15l-0.361,0.151l-2.712-3.149l0.205-0.337l0.202-0.338l0.397-0.683l0.773-1.393l0.743-1.424
	l0.716-1.456l-2.723-2.949l-1.505,0.597l-1.48,0.627l-1.451,0.66l-0.715,0.343l-0.354,0.174l-0.349,0.179l-2.925-2.956l0.179-0.348
	l0.18-0.354l0.349-0.71l0.676-1.444l0.64-1.472l0.61-1.501l-2.921-2.751l-1.46,0.7l-1.434,0.729l-1.399,0.759l-0.689,0.393
	l-0.339,0.199l-0.338,0.2l-3.125-2.741l0.156-0.361l0.153-0.364l0.301-0.732l0.571-1.488l0.538-1.514l0.503-1.54l-3.107-2.54
	l-1.406,0.799l-1.38,0.828l-1.343,0.857l-0.661,0.437l-0.323,0.222l-0.326,0.224l-3.307-2.522l0.131-0.373l0.129-0.373l0.245-0.751
	l0.467-1.524l0.432-1.548l0.395-1.571l-3.276-2.317l-1.351,0.896l-1.315,0.922l-1.281,0.947l-0.626,0.483l-0.31,0.246l-0.308,0.245
	l-3.474-2.28l0.104-0.38l0.1-0.382l0.196-0.768l0.357-1.552l0.322-1.574l0.284-1.595l-3.429-2.084l-1.283,0.988l-1.25,1.012
	l-1.212,1.035l-0.59,0.525l-0.292,0.265l-0.292,0.269l-3.621-2.034l0.076-0.387l0.073-0.387l0.139-0.778l0.253-1.575l0.208-1.592
	l0.173-1.61l-3.566-1.839l-1.21,1.076l-1.177,1.093l-1.135,1.118l-0.554,0.567l-0.274,0.286l-0.27,0.286l-3.758-1.775l0.051-0.39
	l0.049-0.391l0.087-0.788l0.139-1.587l0.101-1.604l0.059-1.619l-3.688-1.586l-1.134,1.159l-1.094,1.175L362.62,124l-0.514,0.606
	l-0.253,0.304l-0.248,0.305l-3.869-1.508l0.019-0.395l0.021-0.393l0.03-0.791l0.028-1.594l-0.013-1.606l-0.054-1.619l-3.786-1.327
	l-1.052,1.233l-1.012,1.25l-0.972,1.264l-0.467,0.636l-0.233,0.321l-0.226,0.322l-3.97-1.235l-0.003-0.393l-0.003-0.398
	l-0.027-0.793l-0.083-1.592l-0.123-1.602l-0.166-1.61l-3.869-1.059l-0.966,1.306l-0.918,1.313l-0.884,1.33l-0.423,0.668
	l-0.206,0.337l-0.206,0.337l-4.043-0.956l-0.033-0.393l-0.033-0.391l-0.08-0.79l-0.194-1.58l-0.236-1.591l-0.274-1.595l-3.938-0.786
	l-0.868,1.368l-0.826,1.378l-0.789,1.385l-0.376,0.698l-0.183,0.348l-0.179,0.352l-4.103-0.672l-0.059-0.389l-0.063-0.389
	l-0.134-0.779l-0.305-1.565l-0.345-1.569l-0.389-1.573l-3.979-0.508l-0.773,1.425l-0.729,1.431l-0.687,1.438l-0.325,0.722
	l-0.159,0.36l-0.156,0.363l-4.14-0.382l-0.085-0.385l-0.09-0.385l-0.189-0.77l-0.41-1.538l-0.455-1.539l-0.498-1.542l-4.006-0.231
	l-0.67,1.474l-0.63,1.479l-0.585,1.482l-0.274,0.743l-0.133,0.371l-0.129,0.371l-4.152-0.091l-0.116-0.377l-0.116-0.378
	l-0.242-0.753l-0.518-1.507l-0.561-1.506l-0.604-1.503l-4.014,0.051l-0.566,1.518l-0.521,1.52l-0.481,1.519l-0.222,0.76
	l-0.106,0.381l-0.105,0.378l-4.149,0.2l-0.139-0.369l-0.144-0.368l-0.292-0.737l-0.623-1.466l-0.664-1.462l-0.705-1.457
	l-4.001,0.331l-0.46,1.554l-0.415,1.551l-0.371,1.549l-0.169,0.773l-0.08,0.387l-0.079,0.385l-4.127,0.487l-0.165-0.356
	l-0.166-0.358l-0.346-0.711l-0.723-1.421l-0.767-1.413l-0.805-1.404l-3.968,0.608l-0.347,1.583l-0.31,1.577l-0.262,1.571
	l-0.116,0.784l-0.054,0.39l-0.049,0.389l-4.083,0.773l-0.189-0.346l-0.192-0.345l-0.391-0.686l-0.819-1.367l-0.866-1.356
	l-0.902-1.344l-3.912,0.882l-0.24,1.604l-0.195,1.595l-0.156,1.588l-0.056,0.787l-0.026,0.395l-0.023,0.393l-4.019,1.056
	l-0.213-0.333l-0.215-0.33l-0.438-0.657l-0.916-1.307L246,114.829l-0.996-1.28l-3.843,1.156l-0.125,1.616l-0.087,1.604l-0.041,1.593
	l-0.006,0.791l0.003,0.395l0.003,0.394l-3.933,1.334l-0.236-0.315l-0.238-0.315l-0.484-0.625l-1.005-1.239l-1.041-1.223
	l-1.082-1.206l-3.755,1.42l-0.01,1.619l0.027,1.606l0.066,1.592l0.052,0.791l0.03,0.393l0.03,0.393l-3.832,1.604l-0.259-0.298
	l-0.259-0.297l-0.526-0.591l-1.088-1.166l-1.124-1.148l-1.161-1.127l-3.648,1.678l0.103,1.617l0.139,1.602l0.179,1.584l0.105,0.784
	l0.057,0.39l0.061,0.388l-3.711,1.869l-0.276-0.28l-0.282-0.277l-0.567-0.552l-1.164-1.087l-1.2-1.065l-1.241-1.044l-3.519,1.929
	l0.212,1.605l0.251,1.587l0.289,1.566l0.162,0.774l0.083,0.388l0.087,0.383l-3.568,2.123l-0.3-0.26l-0.298-0.257l-0.603-0.511
	l-1.238-1.003l-1.274-0.979l-1.31-0.957l-3.376,2.17l0.326,1.587l0.361,1.567l0.397,1.54l0.212,0.764l0.113,0.379l0.113,0.376
	l-3.417,2.369l-0.312-0.242l-0.315-0.235l-0.639-0.468l-1.304-0.915l-1.339-0.889l-1.374-0.86l-3.217,2.399l0.434,1.561l0.469,1.536
	l0.507,1.512l0.265,0.746l0.136,0.368l0.14,0.369l-3.24,2.599l-0.328-0.215l-0.333-0.216l-0.669-0.42l-1.366-0.821l-1.396-0.792
	l-1.43-0.765l-3.041,2.619l0.541,1.528l0.577,1.499l0.61,1.473l0.315,0.725l0.162,0.36l0.166,0.358l-3.051,2.819l-0.346-0.192
	l-0.345-0.192l-0.7-0.375l-1.416-0.723l-1.453-0.692l-1.475-0.664l-2.857,2.826l0.651,1.484l0.679,1.456l0.71,1.428l0.369,0.7
	l0.185,0.348l0.189,0.346l-2.848,3.024l-0.355-0.166l-0.357-0.166l-0.725-0.327l-1.464-0.624l-1.494-0.588l-1.522-0.559
	l-2.646,3.017l0.749,1.436l0.779,1.405l0.807,1.374l0.418,0.674l0.212,0.335l0.213,0.33l-2.634,3.217l-0.365-0.143l-0.369-0.141
	l-0.743-0.274l-1.508-0.519l-1.53-0.486l-1.559-0.451l-2.431,3.193l0.849,1.382l0.876,1.346l0.901,1.313l0.461,0.643l0.236,0.319
	l0.233,0.315l-2.399,3.391l-0.377-0.117l-0.376-0.115l-0.762-0.221l-1.539-0.413l-1.56-0.376l-1.584-0.341l-2.202,3.356l0.941,1.317
	l0.969,1.284l0.992,1.247l0.505,0.608l0.254,0.301l0.256,0.299l-2.156,3.551l-0.385-0.09l-0.385-0.089l-0.773-0.167l-1.564-0.307
	l-1.586-0.267l-1.602-0.229l-1.963,3.5l1.032,1.25l1.054,1.214l1.074,1.174l0.548,0.572l0.275,0.282l0.279,0.28l-1.904,3.693
	l-0.39-0.062l-0.389-0.063l-0.782-0.113l-1.583-0.195l-1.598-0.156l-1.619-0.116l-1.711,3.627l1.114,1.174l1.138,1.138l1.155,1.094
	l0.587,0.534l0.295,0.265l0.295,0.26l-1.642,3.815l-0.391-0.037l-0.395-0.031l-0.789-0.06l-1.592-0.084l-1.605-0.043l-1.619-0.004
	l-1.456,3.74l1.193,1.093l1.214,1.054l1.228,1.013l0.623,0.493l0.312,0.241l0.313,0.237l-1.37,3.924l-0.395-0.01l-0.395-0.007
	l-0.79-0.002l-1.596,0.026l-1.605,0.069l-1.615,0.108l-1.194,3.833l1.271,1.006l1.283,0.967l1.297,0.925l0.653,0.448l0.329,0.219
	l0.328,0.215l-1.095,4.008l-0.391,0.019l-0.395,0.021l-0.79,0.053l-1.589,0.138l-1.599,0.18l-1.602,0.223l-0.921,3.906l1.336,0.915
	l1.347,0.876l1.357,0.832l0.683,0.4l0.345,0.195l0.341,0.193l-0.813,4.072l-0.391,0.048l-0.391,0.05l-0.783,0.105l-1.576,0.248
	l-1.579,0.293l-1.585,0.332l-0.647,3.961l1.396,0.82l1.406,0.779l1.414,0.737l0.709,0.352l0.355,0.171l0.355,0.168l-0.527,4.121
	l-0.385,0.074l-0.389,0.074l-0.775,0.164l-1.552,0.355l-1.556,0.4l-1.559,0.443l-0.368,3.998l1.45,0.72l1.456,0.68l1.458,0.637
	l0.733,0.3l0.369,0.146l0.364,0.143l-0.236,4.147l-0.381,0.1l-0.382,0.104l-0.763,0.214l-1.522,0.465l-1.525,0.51l-1.525,0.55
	l-0.089,4.012l1.499,0.618l1.5,0.576l1.502,0.534l0.75,0.249l0.378,0.118l0.375,0.118l0.053,4.154l-0.372,0.126l-0.375,0.129
	l-0.743,0.269l-1.493,0.571l-1.482,0.612l-1.483,0.655l0.192,4.008l1.536,0.515l1.536,0.468l1.536,0.428l0.765,0.196l0.386,0.093
	l0.384,0.09l0.341,4.143l-0.364,0.151l-0.361,0.156l-0.724,0.318l-1.446,0.67l-1.439,0.719l-1.433,0.757l0.472,3.987l1.568,0.4
	l1.565,0.365l1.562,0.315l0.779,0.143l0.388,0.066l0.388,0.063l0.63,4.109l-0.351,0.173l-0.353,0.182l-0.7,0.368l-1.392,0.773
	l-1.387,0.813l-1.376,0.855l0.746,3.943l1.595,0.296l1.585,0.252l1.582,0.205l0.787,0.09l0.391,0.039l0.391,0.037l0.915,4.053
	l-0.338,0.199l-0.338,0.205l-0.673,0.419l-1.337,0.864l-1.323,0.909l-1.313,0.949l1.019,3.88l1.611,0.183l1.598,0.139l1.592,0.1
	l0.789,0.033l0.395,0.011l0.395,0.01l1.197,3.979l-0.325,0.223l-0.322,0.228l-0.643,0.462l-1.274,0.958l-1.256,1.002l-1.244,1.035
	l1.287,3.8l1.619,0.07l1.605,0.03l1.596-0.014l0.793-0.022l0.391-0.017l0.395-0.02l1.469,3.886l-0.309,0.246l-0.305,0.252
	l-0.606,0.504l-1.204,1.044l-1.188,1.086l-1.167,1.124l1.552,3.701l1.619-0.044l1.605-0.086l1.589-0.122l0.786-0.076l0.395-0.047
	l0.388-0.046l1.738,3.773l-0.288,0.27l-0.289,0.269l-0.57,0.55l-1.128,1.121l-1.108,1.167l-1.084,1.201l1.804,3.585l1.612-0.155
	l1.595-0.199l1.576-0.232l0.779-0.133l0.387-0.072l0.389-0.073l1.997,3.642l-0.269,0.289l-0.269,0.287l-0.533,0.587l-1.045,1.205
	l-1.025,1.236l-1.002,1.274l2.053,3.449l1.596-0.27l1.579-0.305l1.554-0.345l0.771-0.189l0.38-0.096l0.382-0.1l2.245,3.495
	l-0.249,0.306l-0.246,0.305l-0.49,0.624l-0.961,1.273l-0.933,1.307l-0.91,1.34l2.286,3.297l1.576-0.378l1.552-0.414l1.53-0.455
	l0.751-0.238l0.376-0.127l0.375-0.126l2.484,3.33l-0.23,0.325l-0.226,0.322l-0.443,0.652l-0.869,1.338l-0.839,1.369l-0.815,1.402
	l2.513,3.132l1.542-0.492l1.52-0.521l1.492-0.557l0.736-0.292l0.364-0.153l0.366-0.151l2.709,3.15l-0.205,0.339l-0.203,0.338
	l-0.399,0.683l-0.772,1.394l-0.743,1.423l-0.712,1.456l2.722,2.948l1.507-0.593l1.478-0.631l1.45-0.66l0.716-0.345l0.353-0.172
	l0.352-0.177l2.925,2.953l-0.182,0.347l-0.176,0.353l-0.352,0.713l-0.674,1.441l-0.643,1.474l-0.61,1.499l2.922,2.753l1.463-0.699
	l1.433-0.73l1.399-0.759l0.686-0.39l0.342-0.2l0.338-0.203l3.12,2.742l-0.154,0.361l-0.153,0.365l-0.298,0.73l-0.571,1.489
	l-0.538,1.513l-0.508,1.541l3.109,2.54l1.41-0.8l1.379-0.828l1.343-0.855l0.656-0.438l0.328-0.223l0.322-0.226l3.307,2.519
	l-0.13,0.37l-0.126,0.376l-0.249,0.752l-0.468,1.522l-0.427,1.549l-0.399,1.57l3.278,2.317l1.349-0.893l1.317-0.925l1.279-0.945
	l0.628-0.484l0.308-0.245l0.31-0.245l3.476,2.281l-0.107,0.379l-0.1,0.38l-0.195,0.767l-0.358,1.553l-0.321,1.574l-0.287,1.597
	l3.43,2.082l1.287-0.989l1.248-1.008l1.213-1.033l0.591-0.528l0.291-0.266l0.289-0.268l3.625,2.033l-0.077,0.387l-0.075,0.385
	l-0.14,0.779l-0.251,1.576l-0.208,1.592l-0.173,1.61l3.565,1.84l1.21-1.076l1.178-1.094l1.138-1.118l0.549-0.566l0.276-0.285
	l0.268-0.285l3.759,1.774l-0.051,0.388l-0.046,0.395l-0.087,0.786l-0.139,1.585l-0.103,1.604l-0.056,1.62l3.684,1.587l1.135-1.156
	l1.095-1.174l1.057-1.194l0.512-0.604l0.251-0.304l0.249-0.307l3.874,1.507l-0.023,0.395l-0.019,0.395l-0.03,0.789l-0.03,1.596
	l0.015,1.605l0.052,1.621l3.791,1.323l1.048-1.233l1.011-1.248l0.973-1.264l0.467-0.636l0.233-0.325l0.226-0.318l3.966,1.233
	l0.007,0.396l0.01,0.393l0.023,0.79l0.083,1.593l0.125,1.605l0.162,1.607l3.875,1.059l0.961-1.305l0.922-1.315l0.878-1.327
	l0.425-0.67l0.205-0.335l0.205-0.338l4.045,0.952l0.033,0.394l0.033,0.396l0.079,0.785l0.195,1.581l0.235,1.589l0.275,1.595
	l3.937,0.787l0.869-1.366l0.83-1.377l0.782-1.387l0.377-0.695l0.183-0.353l0.179-0.347l4.104,0.665l0.06,0.392l0.063,0.389
	l0.132,0.778l0.302,1.565l0.349,1.568l0.388,1.573l3.98,0.511l0.773-1.427l0.729-1.429l0.687-1.44l0.326-0.723l0.158-0.358
	l0.156-0.361l4.139,0.381l0.087,0.385l0.089,0.385l0.189,0.771l0.411,1.539l0.455,1.538l0.497,1.546l4.007,0.229l0.67-1.476
	l0.63-1.479l0.584-1.486l0.274-0.739l0.134-0.371l0.128-0.372l4.156,0.093l0.112,0.379l0.117,0.374l0.238,0.757l0.518,1.505
	l0.563,1.505l0.604,1.507l4.014-0.054l0.564-1.52l0.523-1.519l0.481-1.518l0.221-0.764l0.107-0.379l0.103-0.377l4.152-0.199
	l0.139,0.368l0.144,0.367l0.292,0.737l0.618,1.467l0.668,1.461l0.706,1.456l3.999-0.331l0.462-1.553l0.414-1.551l0.372-1.551
	l0.169-0.771l0.08-0.388l0.079-0.389l4.126-0.484l0.165,0.358l0.167,0.358l0.345,0.713l0.724,1.42l0.766,1.412l0.806,1.403
	l3.966-0.607l0.349-1.582l0.31-1.579l0.262-1.571l0.115-0.782l0.054-0.392l0.049-0.388l4.083-0.773l0.189,0.346l0.192,0.345
	l0.391,0.686l0.823,1.366l0.863,1.358l0.901,1.346l3.913-0.887l0.238-1.602l0.196-1.595l0.152-1.589l0.061-0.79l0.026-0.39
	l0.022-0.393l4.017-1.058l0.213,0.332l0.219,0.328l0.438,0.659l0.912,1.308l0.955,1.29l0.996,1.28l3.843-1.153l0.126-1.617
	l0.084-1.604l0.042-1.592l0.007-0.792l-0.003-0.393l-0.007-0.397l3.937-1.333l0.236,0.315l0.238,0.315l0.484,0.626l1.002,1.237
	l1.044,1.224l1.081,1.204l3.755-1.42l0.009-1.618l-0.026-1.604l-0.068-1.594l-0.05-0.789l-0.03-0.394l-0.033-0.392l3.834-1.606
	l0.255,0.3l0.263,0.295l0.526,0.594l1.085,1.164l1.128,1.148l1.161,1.126l3.645-1.678l-0.1-1.619l-0.139-1.598l-0.18-1.586
	l-0.105-0.782l-0.057-0.392l-0.061-0.388l3.712-1.868l0.274,0.279l0.283,0.279l0.567,0.551l1.163,1.087l1.2,1.068l1.238,1.044
	l3.521-1.93l-0.215-1.605l-0.249-1.589l-0.292-1.564l-0.159-0.776l-0.087-0.385l-0.087-0.386l3.573-2.123l0.295,0.261l0.302,0.257
	l0.604,0.513l1.237,1.008l1.274,0.974l1.307,0.956l3.379-2.169l-0.328-1.586l-0.358-1.564l-0.397-1.545l-0.216-0.761l-0.11-0.378
	l-0.112-0.377l3.413-2.368l0.314,0.238l0.315,0.235l0.638,0.471l1.307,0.915l1.339,0.889l1.37,0.863l3.218-2.401l-0.436-1.563
	l-0.467-1.535l-0.505-1.513l-0.269-0.746l-0.136-0.367l-0.139-0.368l3.242-2.6l0.328,0.215l0.333,0.212l0.669,0.425l1.364,0.822
	l1.399,0.793l1.43,0.763l3.041-2.617l-0.544-1.527l-0.574-1.5l-0.61-1.473l-0.317-0.727l-0.164-0.358l-0.164-0.358l3.054-2.818
	l0.342,0.192l0.348,0.192l0.696,0.375l1.42,0.723l1.449,0.694l1.479,0.662l2.853-2.825l-0.646-1.486l-0.681-1.452l-0.713-1.427
	l-0.367-0.703l-0.188-0.348l-0.188-0.345l2.849-3.024l0.358,0.168l0.354,0.166l0.723,0.325l1.466,0.623l1.492,0.592l1.522,0.557
	l2.647-3.018l-0.75-1.438l-0.779-1.402l-0.806-1.374l-0.418-0.676l-0.21-0.332l-0.211-0.331l2.629-3.218l0.368,0.143l0.369,0.141
	l0.743,0.274l1.505,0.518l1.533,0.487l1.554,0.451l2.432-3.193l-0.849-1.38l-0.876-1.348l-0.902-1.313l-0.461-0.644l-0.231-0.318
	l-0.235-0.318l2.397-3.39l0.378,0.116l0.378,0.116l0.761,0.218l1.538,0.416l1.562,0.377l1.583,0.343l2.202-3.357l-0.942-1.32
	l-0.965-1.279l-0.991-1.251l-0.505-0.607l-0.255-0.301l-0.259-0.299l2.159-3.552l0.382,0.093l0.384,0.086l0.777,0.169l1.561,0.302
	l1.587,0.27l1.601,0.229l1.963-3.502l-1.03-1.248l-1.052-1.213l-1.078-1.174l-0.547-0.571l-0.276-0.285l-0.274-0.278l1.904-3.694
	l0.388,0.066l0.389,0.06l0.785,0.112l1.579,0.195l1.602,0.156l1.615,0.116l1.712-3.629l-1.118-1.174l-1.135-1.138l-1.153-1.095
	l-0.587-0.533l-0.295-0.262l-0.295-0.259l1.641-3.821l0.395,0.04l0.392,0.03l0.79,0.06l1.592,0.083l1.604,0.046l1.618,0.003
	l1.456-3.74l-1.197-1.092l-1.21-1.055l-1.23-1.015l-0.62-0.491l-0.313-0.239l-0.313-0.238l1.372-3.923l0.395,0.009l0.395,0.008
	h0.792l1.592-0.023l1.605-0.069l1.616-0.11l1.194-3.83l-1.271-1.009l-1.284-0.968l-1.297-0.926l-0.653-0.447l-0.328-0.219
	l-0.329-0.217l1.095-4.006l0.396-0.02l0.392-0.023l0.789-0.05l1.589-0.136l1.595-0.183l1.605-0.223l0.925-3.906l-1.34-0.916
	l-1.347-0.875l-1.355-0.829l-0.685-0.401l-0.344-0.195l-0.341-0.193l0.813-4.075l0.39-0.046l0.393-0.051l0.782-0.105l1.575-0.249
	l1.579-0.289l1.585-0.334l0.646-3.96l-1.396-0.82l-1.407-0.782l-1.412-0.736l-0.71-0.352l-0.354-0.169l-0.355-0.17l0.527-4.119
	l0.385-0.072l0.388-0.08l0.776-0.159l1.553-0.358l1.556-0.401l1.559-0.44l0.37-3.996l-1.451-0.725l-1.456-0.679l-1.459-0.634
	l-0.734-0.302l-0.364-0.146l-0.367-0.146l0.238-4.146L472.346,296.882z M343.903,142.038l6.533-3.516l10.271,4.151l9.956,4.85
	l9.603,5.528l9.192,6.18l8.746,6.8l8.254,7.389l7.723,7.943l7.157,8.455l6.553,8.931l5.921,9.364l-2.295,7.057l-102.456,46.55
	l-9.194-1.84l-3.453-8.714L343.903,142.038z M212.177,152.29l9.651-5.441l10.002-4.761l10.309-4.059l10.559-3.335l10.77-2.595
	l10.925-1.848l11.024-1.087l11.074-0.323l11.07,0.445l11.012,1.211l4.086,6.192l-27.485,109.129l-7.17,6.039l-8.965-2.734
	l-68.185-89.529L212.177,152.29z M308.139,288.955c0,6.923-5.614,12.534-12.537,12.534c-6.921,0-12.535-5.611-12.535-12.534
	s5.614-12.535,12.535-12.535C302.525,276.42,308.139,282.032,308.139,288.955z M138.502,258.034l2.515-10.789l3.253-10.59
	l3.98-10.34l4.683-10.039l5.366-9.689l6.026-9.298l6.649-8.858l7.251-8.376l7.811-7.855l7.388,0.665l68.182,89.53l0.253,9.37
	l-7.728,5.306l-112.508-2.513l-4.885-5.586L138.502,258.034z M188.341,400.363l-7.413,0.335l-7.452-8.195l-6.869-8.692l-6.248-9.147
	l-5.603-9.558l-4.927-9.921l-4.232-10.237l-3.513-10.508l-2.779-10.723l-2.03-10.888l-1.27-11.004l5.127-5.367l112.51,2.515
	l7.485,5.645l-0.674,9.353L188.341,400.363z M311.469,448.281l-11.054,0.713l-11.078-0.046l-11.048-0.815l-10.964-1.579
	l-10.828-2.335l-10.643-3.074l-10.404-3.806l-10.115-4.517l-9.781-5.199l-9.395-5.87l-1-7.354l72.117-86.394l9.077-2.335
	l6.896,6.358l22.583,110.246L311.469,448.281z M423.73,384.978l-6.946,8.63l-7.528,8.126l-8.069,7.588l-8.572,7.016l-9.041,6.4
	l-9.464,5.765l-9.836,5.097l-10.166,4.398l-10.447,3.688l-6.368-3.806l-22.585-110.246l3.84-8.55l9.264-1.43l100.277,51.082
	l1.977,7.154L423.73,384.978z M455.048,303.592l-1.394,10.988l-2.153,10.869l-2.895,10.688l-3.629,10.471l-6.947,2.606
	l-100.274-51.081l-4.295-8.334l4.66-8.133l102.46-46.553l6.824,2.917l3.157,10.618l2.415,10.812l1.661,10.952l0.902,11.041
	l0.136,11.077L455.048,303.592z"/>
<path id="Gear_16" fill="#E6E6E6" stroke="#000000" stroke-width="0.1" stroke-linecap="round" stroke-linejoin="round" stroke-miterlimit="10" d="
	M329.93,289.17l-0.601-0.323l-0.604-0.29l-0.607-0.258l-0.605-0.221l-0.607-0.182l-0.61-0.138l-0.604-0.073l-0.305-0.034
	l-0.302-0.068l-0.152-0.054l-0.156-0.072l-0.156-0.109l-0.169-0.304l-0.431-3.414l0.09-0.335l0.123-0.145l0.133-0.109l0.132-0.088
	l0.278-0.143l0.285-0.11l0.568-0.221l0.554-0.282l0.544-0.326l0.53-0.368l0.523-0.398l0.512-0.434l0.503-0.46l0.492-0.492
	l-1.205-3.603l-0.687-0.099l-0.677-0.069l-0.669-0.036l-0.66-0.007l-0.645,0.028l-0.633,0.064l-0.61,0.106l-0.587,0.162
	l-0.292,0.083l-0.309,0.055l-0.161,0.01l-0.17-0.008l-0.187-0.04l-0.271-0.217l-1.705-2.989l-0.049-0.344l0.06-0.182l0.079-0.149
	l0.093-0.136l0.202-0.236l0.22-0.209l0.441-0.424l0.404-0.473l0.375-0.51l0.352-0.543l0.331-0.568l0.31-0.594l0.284-0.619
	l0.265-0.644l-2.486-2.868l-0.674,0.172l-0.654,0.198l-0.633,0.22l-0.61,0.246l-0.583,0.275l-0.561,0.3l-0.524,0.331l-0.48,0.377
	l-0.238,0.189l-0.262,0.165l-0.146,0.071l-0.163,0.059l-0.186,0.033l-0.335-0.095l-2.72-2.109l-0.175-0.3l-0.015-0.189l0.018-0.17
	l0.033-0.158l0.093-0.299l0.125-0.276l0.243-0.56l0.192-0.59l0.152-0.617l0.119-0.633l0.09-0.654l0.052-0.666l0.031-0.684v-0.693
	l-3.399-1.697l-0.554,0.418l-0.528,0.431l-0.5,0.445l-0.472,0.462l-0.435,0.477l-0.4,0.49l-0.358,0.51l-0.299,0.527l-0.148,0.268
	l-0.18,0.256l-0.106,0.121l-0.129,0.114l-0.159,0.103l-0.346,0.04l-3.319-0.907l-0.274-0.211l-0.087-0.17l-0.05-0.163l-0.034-0.159
	l-0.023-0.31l0.008-0.306l0.013-0.608l-0.049-0.62l-0.093-0.627l-0.133-0.632l-0.169-0.636l-0.206-0.64l-0.232-0.64l-0.265-0.641
	l-3.791-0.269l-0.355,0.597l-0.321,0.603l-0.289,0.603l-0.259,0.605l-0.222,0.607l-0.179,0.607l-0.136,0.607l-0.077,0.604
	l-0.033,0.303l-0.069,0.303l-0.054,0.155l-0.072,0.154l-0.106,0.155l-0.306,0.169l-3.412,0.432l-0.338-0.087l-0.144-0.125
	l-0.109-0.133l-0.089-0.135l-0.143-0.276l-0.11-0.286l-0.223-0.566l-0.28-0.554l-0.325-0.544l-0.369-0.533l-0.397-0.521
	l-0.431-0.513l-0.464-0.503l-0.492-0.49l-3.602,1.202l-0.1,0.688l-0.066,0.679l-0.036,0.669l-0.007,0.658l0.027,0.646l0.066,0.631
	l0.105,0.611l0.162,0.59l0.084,0.291l0.052,0.307l0.01,0.163l-0.006,0.169l-0.043,0.188l-0.213,0.272l-2.991,1.705l-0.344,0.048
	l-0.18-0.062l-0.153-0.079l-0.133-0.09l-0.239-0.203l-0.208-0.221l-0.422-0.439l-0.475-0.404l-0.51-0.376l-0.541-0.352l-0.569-0.33
	l-0.595-0.309l-0.62-0.286l-0.641-0.267l-2.868,2.489l0.173,0.674l0.195,0.651l0.223,0.634l0.244,0.61l0.272,0.587l0.302,0.558
	l0.336,0.523l0.374,0.481l0.189,0.238l0.166,0.264l0.069,0.145l0.057,0.162l0.036,0.186l-0.097,0.336l-2.109,2.719l-0.301,0.174
	l-0.189,0.015l-0.169-0.016l-0.159-0.033l-0.295-0.095l-0.279-0.125l-0.557-0.243l-0.594-0.192l-0.613-0.152l-0.638-0.117
	l-0.649-0.089l-0.671-0.057l-0.68-0.027h-0.692l-1.699,3.397l0.415,0.556l0.432,0.528l0.448,0.5l0.461,0.47l0.475,0.435l0.492,0.402
	l0.51,0.357l0.528,0.301l0.267,0.147l0.256,0.179l0.123,0.109l0.112,0.125l0.103,0.16l0.039,0.346l-0.905,3.32l-0.212,0.274
	l-0.169,0.087l-0.162,0.049l-0.159,0.032l-0.313,0.024l-0.305-0.008l-0.607-0.012l-0.62,0.05l-0.626,0.093l-0.635,0.135
	l-0.634,0.169l-0.639,0.204l-0.641,0.233l-0.644,0.265l-0.269,3.79l0.6,0.354l0.598,0.322l0.606,0.292l0.607,0.257l0.607,0.22
	l0.605,0.183l0.607,0.135l0.604,0.075l0.306,0.034l0.301,0.068l0.155,0.055l0.153,0.071l0.159,0.109l0.165,0.304l0.433,3.412
	l-0.087,0.339l-0.126,0.143l-0.133,0.107l-0.133,0.091l-0.278,0.142l-0.286,0.109l-0.566,0.222l-0.554,0.282l-0.541,0.328
	l-0.533,0.365l-0.523,0.399l-0.512,0.431l-0.501,0.463l-0.491,0.493l1.201,3.601l0.688,0.099l0.679,0.066l0.67,0.04l0.656,0.007
	l0.647-0.027l0.629-0.066l0.61-0.105l0.589-0.166l0.29-0.08l0.31-0.057l0.162-0.01l0.169,0.01l0.187,0.041l0.275,0.215l1.704,2.992
	l0.047,0.345l-0.06,0.179l-0.08,0.153l-0.089,0.132l-0.203,0.239l-0.223,0.206l-0.44,0.424l-0.4,0.471l-0.379,0.511l-0.352,0.541
	l-0.328,0.573l-0.309,0.595l-0.289,0.62l-0.266,0.64l2.491,2.869l0.669-0.173l0.658-0.199l0.629-0.219l0.611-0.245l0.583-0.272
	l0.562-0.301l0.523-0.336l0.481-0.374l0.238-0.189l0.266-0.166l0.142-0.073l0.164-0.056l0.185-0.034l0.336,0.098l2.72,2.108
	l0.175,0.299l0.015,0.192l-0.015,0.166l-0.033,0.159l-0.096,0.298l-0.123,0.279l-0.246,0.557l-0.192,0.591l-0.151,0.616l-0.12,0.634
	l-0.087,0.653l-0.055,0.666l-0.03,0.684v0.693l3.399,1.698l0.554-0.418l0.53-0.431l0.497-0.448l0.472-0.461l0.434-0.475l0.402-0.494
	l0.358-0.508l0.298-0.53l0.15-0.265l0.178-0.256l0.11-0.119l0.125-0.116l0.159-0.104l0.346-0.039l3.32,0.908l0.274,0.205
	l0.087,0.174l0.054,0.162l0.028,0.163l0.023,0.309l-0.006,0.305l-0.013,0.606l0.049,0.624l0.093,0.623l0.136,0.634l0.169,0.633
	l0.202,0.641l0.233,0.644l0.269,0.641l3.787,0.268l0.355-0.601l0.321-0.596l0.292-0.604l0.256-0.606l0.221-0.607l0.183-0.61
	l0.133-0.603l0.077-0.607l0.033-0.303l0.069-0.305l0.053-0.152l0.072-0.156l0.11-0.155l0.302-0.17l3.413-0.431l0.338,0.09
	l0.143,0.123l0.109,0.132l0.089,0.133l0.144,0.278l0.109,0.282l0.222,0.57l0.282,0.554l0.325,0.541l0.368,0.534l0.398,0.523
	l0.431,0.511l0.464,0.504l0.491,0.492l3.602-1.205l0.101-0.687l0.066-0.68l0.039-0.67l0.003-0.657l-0.026-0.644l-0.063-0.629
	l-0.105-0.614l-0.167-0.587l-0.082-0.292l-0.054-0.309l-0.009-0.162l0.009-0.173l0.041-0.185l0.215-0.272l2.989-1.704l0.344-0.047
	l0.18,0.06l0.153,0.079l0.133,0.09l0.238,0.203l0.208,0.222l0.421,0.438l0.475,0.401l0.512,0.378l0.541,0.352l0.569,0.332
	l0.594,0.308l0.621,0.286l0.639,0.265l2.87-2.487l-0.174-0.673l-0.195-0.653l-0.223-0.634l-0.244-0.61l-0.273-0.584l-0.301-0.557
	l-0.332-0.527l-0.378-0.481l-0.189-0.238l-0.166-0.262l-0.069-0.146l-0.057-0.159l-0.033-0.189l0.095-0.331l2.107-2.72l0.303-0.179
	l0.189-0.014l0.169,0.02l0.159,0.03l0.295,0.097l0.279,0.126l0.561,0.242l0.59,0.192l0.613,0.152l0.638,0.115l0.651,0.09
	l0.668,0.057l0.68,0.026h0.697l1.697-3.396l-0.418-0.558l-0.431-0.526l-0.448-0.501l-0.458-0.467l-0.478-0.438l-0.49-0.401
	l-0.51-0.354l-0.532-0.303l-0.265-0.146l-0.256-0.179l-0.119-0.109l-0.115-0.126l-0.104-0.159l-0.039-0.347l0.908-3.32l0.21-0.277
	l0.169-0.084l0.166-0.052l0.155-0.03l0.313-0.024l0.305,0.009l0.61,0.012l0.617-0.048l0.626-0.097l0.633-0.133l0.638-0.169
	l0.641-0.202l0.64-0.236l0.641-0.267l0.269-3.789L329.93,289.17z M295.602,301.489c-6.917,0-12.532-5.611-12.532-12.534
	s5.615-12.535,12.532-12.535c6.923,0,12.537,5.612,12.537,12.535S302.525,301.489,295.602,301.489z"/>
<path id="Gear_40" fill="#E6E6E6" stroke="#000000" stroke-width="0.1" stroke-linecap="round" stroke-linejoin="round" stroke-miterlimit="10" d="
	M489.354,290.667l-0.994-0.438l-0.995-0.396l-1.002-0.353l-1.002-0.306l-0.5-0.133l-0.249-0.061l-0.252-0.059l-0.119-4.273
	l0.245-0.071l0.246-0.076l0.493-0.16l0.981-0.362l0.979-0.41l0.972-0.452l0.969-0.492l0.965-0.535l-0.424-3.919l-1.051-0.317
	l-1.053-0.277l-1.044-0.234l-1.046-0.195l-1.033-0.144l-0.518-0.053l-0.256-0.021l-0.256-0.017l-0.788-4.204l0.231-0.11l0.232-0.112
	l0.461-0.235l0.911-0.511l0.902-0.557l0.892-0.601l0.88-0.64l0.866-0.677l-1.028-3.808l-1.088-0.146l-1.085-0.109l-1.072-0.07
	l-1.057-0.028l-1.048,0.019l-0.518,0.029l-0.256,0.019l-0.255,0.023l-1.436-4.028l0.211-0.142l0.213-0.149l0.418-0.306l0.822-0.647
	l0.803-0.69l0.786-0.731l0.767-0.77l0.752-0.803l-1.611-3.602l-1.102,0.026l-1.081,0.06l-1.071,0.1l-1.052,0.139l-1.027,0.184
	l-0.508,0.108l-0.252,0.059l-0.248,0.063l-2.048-3.755l0.187-0.176l0.186-0.179l0.368-0.367l0.71-0.77l0.683-0.807l0.664-0.846
	l0.641-0.879l0.612-0.911l-2.155-3.303l-1.082,0.195l-1.061,0.23l-1.041,0.265l-1.016,0.301l-0.987,0.342l-0.484,0.187l-0.243,0.099
	l-0.235,0.1l-2.61-3.386l0.159-0.203l0.156-0.205l0.303-0.422l0.582-0.869l0.551-0.905l0.521-0.938l0.495-0.969l0.464-0.996
	l-2.643-2.927l-1.041,0.365l-1.013,0.393l-0.984,0.424l-0.956,0.457l-0.925,0.492l-0.451,0.261l-0.219,0.134l-0.218,0.136
	l-3.109-2.937l0.126-0.225l0.123-0.229l0.233-0.461l0.44-0.95l0.402-0.98l0.367-1.01l0.335-1.033l0.301-1.059l-3.066-2.474
	l-0.969,0.521l-0.941,0.548l-0.906,0.573l-0.872,0.601l-0.836,0.63l-0.401,0.327l-0.195,0.167l-0.195,0.169l-3.529-2.414
	l0.087-0.242l0.085-0.244l0.159-0.492l0.286-1.009l0.241-1.031l0.206-1.053l0.169-1.074l0.133-1.091l-3.419-1.966l-0.872,0.667
	l-0.843,0.688l-0.806,0.708l-0.77,0.729l-0.728,0.753l-0.344,0.386l-0.169,0.196l-0.166,0.196l-3.864-1.833l0.05-0.251l0.043-0.254
	l0.083-0.512l0.123-1.04l0.079-1.056l0.036-1.073v-1.086l-0.036-1.101l-3.685-1.406l-0.76,0.796l-0.723,0.811l-0.686,0.826
	l-0.646,0.841l-0.6,0.857l-0.282,0.436l-0.136,0.219l-0.129,0.22l-4.106-1.205l0.011-0.257l0.003-0.257v-0.519l-0.039-1.046
	l-0.09-1.055l-0.13-1.066l-0.169-1.073l-0.209-1.081l-3.857-0.811l-0.627,0.904l-0.59,0.914l-0.547,0.924l-0.505,0.931l-0.458,0.939
	l-0.211,0.475l-0.1,0.239l-0.093,0.238l-4.242-0.549l-0.033-0.255l-0.033-0.255l-0.083-0.513l-0.206-1.026l-0.249-1.03l-0.295-1.031
	l-0.334-1.033l-0.379-1.035l-3.939-0.198l-0.475,0.991l-0.438,0.995l-0.397,0.997l-0.352,1l-0.309,1.002l-0.132,0.499l-0.061,0.251
	l-0.057,0.251l-4.274,0.121l-0.073-0.248l-0.072-0.247l-0.163-0.492l-0.362-0.982l-0.407-0.979l-0.454-0.973l-0.494-0.969
	l-0.534-0.961l-3.921,0.42l-0.313,1.054l-0.279,1.052l-0.235,1.045l-0.192,1.042l-0.146,1.038l-0.054,0.514l-0.019,0.259
	l-0.021,0.256l-4.202,0.79l-0.109-0.234l-0.112-0.232l-0.235-0.461l-0.511-0.914l-0.558-0.902l-0.601-0.888l-0.641-0.879
	l-0.677-0.869l-3.807,1.028l-0.146,1.091l-0.109,1.081l-0.072,1.071l-0.026,1.059l0.019,1.047l0.031,0.518l0.017,0.259l0.023,0.255
	l-4.031,1.437l-0.142-0.214l-0.148-0.211l-0.306-0.419l-0.647-0.822l-0.689-0.804l-0.733-0.785l-0.77-0.768l-0.802-0.75
	l-3.599,1.611l0.022,1.1l0.063,1.084l0.096,1.07l0.141,1.051l0.182,1.029l0.108,0.507l0.061,0.25l0.063,0.249l-3.753,2.05
	l-0.18-0.188l-0.177-0.185l-0.367-0.367l-0.771-0.711l-0.806-0.685l-0.846-0.663l-0.882-0.638l-0.907-0.615l-3.305,2.154
	l0.195,1.083l0.233,1.062l0.265,1.039l0.302,1.017l0.341,0.99l0.188,0.482l0.095,0.239l0.103,0.235l-3.389,2.612l-0.202-0.157
	l-0.206-0.156l-0.418-0.305l-0.873-0.58l-0.9-0.551l-0.943-0.521l-0.969-0.495l-0.994-0.466l-2.928,2.645l0.364,1.038l0.392,1.015
	l0.424,0.984l0.458,0.958l0.495,0.924l0.259,0.448l0.131,0.222l0.141,0.215l-2.939,3.11l-0.226-0.124l-0.229-0.122l-0.461-0.234
	l-0.948-0.441l-0.982-0.4l-1.008-0.369l-1.035-0.334l-1.059-0.304l-2.474,3.069l0.521,0.968l0.551,0.939l0.571,0.909l0.601,0.871
	l0.633,0.836l0.325,0.403l0.166,0.195l0.168,0.194l-2.414,3.529l-0.242-0.087l-0.241-0.085l-0.494-0.158l-1.01-0.285l-1.03-0.244
	l-1.052-0.205l-1.074-0.17l-1.091-0.136l-1.967,3.421l0.669,0.874l0.688,0.843l0.707,0.806l0.729,0.77l0.753,0.727l0.388,0.347
	l0.196,0.167l0.198,0.164l-1.833,3.866l-0.253-0.051l-0.255-0.045l-0.51-0.079l-1.039-0.124l-1.058-0.08l-1.071-0.037l-1.088,0.001
	l-1.099,0.036l-1.405,3.686l0.792,0.761l0.813,0.723l0.826,0.687l0.843,0.646l0.855,0.599l0.435,0.281l0.22,0.135l0.221,0.133
	l-1.207,4.103l-0.255-0.009l-0.259-0.004l-0.518,0.001l-1.048,0.042l-1.056,0.086l-1.064,0.129l-1.074,0.171l-1.081,0.209
	l-0.813,3.858l0.905,0.627l0.915,0.589l0.922,0.55l0.933,0.504l0.938,0.459l0.475,0.209l0.238,0.1l0.238,0.096l-0.549,4.241
	l-0.253,0.033l-0.256,0.034l-0.514,0.081l-1.025,0.204l-1.03,0.252l-1.032,0.295l-1.034,0.337l-1.035,0.375l-0.195,3.938l0.99,0.478
	l0.996,0.438l0.995,0.397l1.002,0.354l1.001,0.306l0.497,0.133l0.253,0.06l0.252,0.058l0.119,4.275l-0.248,0.071l-0.246,0.074
	l-0.491,0.161l-0.985,0.361l-0.974,0.409l-0.977,0.454l-0.964,0.493l-0.966,0.533l0.422,3.921l1.054,0.318l1.049,0.276l1.048,0.235
	l1.041,0.192l1.038,0.146l0.515,0.053l0.258,0.021l0.256,0.02l0.789,4.205l-0.232,0.106l-0.231,0.113l-0.461,0.238l-0.916,0.511
	l-0.898,0.557l-0.893,0.598l-0.879,0.64l-0.869,0.677l1.032,3.812l1.088,0.146l1.084,0.109l1.068,0.069l1.062,0.026l1.045-0.02
	l0.517-0.026l0.259-0.021l0.256-0.022l1.436,4.029l-0.213,0.144l-0.212,0.148l-0.417,0.305l-0.822,0.646l-0.803,0.694l-0.786,0.729
	l-0.77,0.771l-0.753,0.802l1.615,3.599l1.097-0.023l1.086-0.06l1.07-0.1l1.048-0.139l1.032-0.183l0.508-0.109l0.252-0.06l0.248-0.06
	l2.046,3.754l-0.189,0.173l-0.182,0.179l-0.367,0.368l-0.71,0.767l-0.688,0.809l-0.659,0.846l-0.64,0.879l-0.615,0.912l2.153,3.304
	l1.084-0.195l1.062-0.232l1.038-0.267l1.02-0.301l0.987-0.342l0.484-0.186l0.238-0.1l0.239-0.1l2.606,3.386l-0.156,0.203
	l-0.154,0.206l-0.306,0.421l-0.581,0.872l-0.551,0.902l-0.521,0.941l-0.494,0.969l-0.465,0.994l2.645,2.926l1.041-0.365l1.011-0.391
	l0.986-0.425l0.954-0.457l0.926-0.491l0.448-0.259l0.218-0.133l0.22-0.139l3.107,2.938l-0.123,0.226l-0.123,0.226l-0.231,0.464
	l-0.44,0.949l-0.402,0.981l-0.367,1.009l-0.335,1.031l-0.306,1.059l3.071,2.474l0.969-0.521l0.938-0.547l0.908-0.57l0.873-0.604
	l0.836-0.63l0.4-0.324l0.196-0.167l0.195-0.172l3.529,2.415l-0.087,0.241l-0.086,0.242l-0.159,0.498l-0.285,1.005l-0.243,1.031
	l-0.205,1.055l-0.169,1.071l-0.136,1.091l3.419,1.967l0.876-0.667l0.842-0.687l0.807-0.709l0.77-0.728l0.726-0.756l0.346-0.385
	l0.169-0.198l0.162-0.196l3.867,1.835l-0.05,0.251l-0.047,0.253l-0.079,0.511l-0.123,1.041l-0.078,1.054l-0.041,1.075v1.088
	l0.041,1.102l3.684,1.403l0.76-0.793l0.723-0.813l0.687-0.826l0.644-0.842l0.6-0.856l0.282-0.438l0.136-0.219l0.131-0.219
	l4.105,1.206l-0.01,0.256l-0.007,0.259l0.003,0.518l0.04,1.044l0.087,1.059l0.129,1.064l0.172,1.075l0.21,1.081l3.857,0.809
	l0.626-0.902l0.587-0.915l0.548-0.922l0.508-0.932l0.457-0.938l0.209-0.479l0.099-0.234l0.097-0.242l4.242,0.551l0.03,0.255
	l0.036,0.255l0.083,0.511l0.202,1.028l0.252,1.028l0.295,1.034l0.335,1.032l0.374,1.034l3.94,0.196l0.479-0.988l0.438-0.995
	l0.397-0.998l0.352-0.998l0.305-1.002l0.133-0.501l0.063-0.248l0.057-0.253l4.275-0.119l0.069,0.245l0.076,0.245l0.162,0.494
	l0.363,0.982l0.407,0.979l0.454,0.972l0.494,0.969l0.531,0.964l3.922-0.424l0.315-1.051l0.276-1.053l0.238-1.047l0.192-1.042
	l0.146-1.038l0.052-0.514l0.021-0.258l0.021-0.257l4.201-0.785l0.109,0.231l0.113,0.232l0.235,0.461l0.511,0.912l0.559,0.902
	l0.6,0.889l0.639,0.882l0.677,0.866l3.809-1.027l0.146-1.092l0.108-1.082l0.073-1.071l0.026-1.058l-0.021-1.048l-0.029-0.518
	l-0.017-0.259l-0.023-0.251l4.029-1.44l0.144,0.213l0.148,0.212l0.306,0.418l0.646,0.822l0.689,0.806l0.734,0.787l0.77,0.766
	l0.802,0.752l3.599-1.611l-0.022-1.101l-0.063-1.085l-0.098-1.068l-0.139-1.051l-0.182-1.031l-0.11-0.507l-0.06-0.253l-0.063-0.245
	l3.755-2.05l0.176,0.189l0.179,0.185l0.369,0.365l0.769,0.71l0.807,0.687l0.846,0.663l0.878,0.637l0.913,0.617l3.303-2.156
	l-0.199-1.084l-0.229-1.062l-0.265-1.038l-0.302-1.018l-0.343-0.989l-0.185-0.484l-0.101-0.238l-0.1-0.235l3.391-2.613l0.202,0.159
	l0.201,0.155l0.422,0.306l0.869,0.58l0.905,0.551l0.938,0.523l0.969,0.491l0.998,0.465l2.926-2.644l-0.365-1.038l-0.391-1.015
	l-0.425-0.985l-0.459-0.958l-0.49-0.923l-0.262-0.447l-0.133-0.223l-0.136-0.215l2.936-3.108l0.225,0.123l0.229,0.123l0.462,0.231
	l0.952,0.441l0.978,0.401l1.01,0.368l1.033,0.335l1.059,0.306l2.474-3.072l-0.521-0.968l-0.546-0.942l-0.574-0.904l-0.6-0.873
	l-0.631-0.836l-0.328-0.401l-0.166-0.195l-0.17-0.196l2.415-3.528l0.241,0.09l0.243,0.083l0.494,0.159l1.008,0.284l1.031,0.243
	l1.051,0.205l1.076,0.169l1.09,0.137l1.968-3.42l-0.668-0.875l-0.689-0.843l-0.706-0.806l-0.729-0.771l-0.754-0.723l-0.387-0.349
	l-0.195-0.169l-0.197-0.165l1.832-3.864l0.252,0.051l0.256,0.046l0.51,0.079l1.041,0.126l1.055,0.08l1.075,0.036h1.085l1.1-0.036
	l1.407-3.688l-0.797-0.757l-0.808-0.726l-0.827-0.687l-0.842-0.644l-0.858-0.6l-0.436-0.282l-0.219-0.133l-0.223-0.133l1.208-4.103
	l0.256,0.011l0.259,0.002h0.518l1.048-0.043l1.054-0.085l1.064-0.13l1.074-0.17l1.082-0.208l0.813-3.86l-0.905-0.628l-0.912-0.587
	l-0.921-0.547l-0.936-0.507l-0.938-0.458l-0.475-0.209l-0.24-0.1l-0.238-0.097l0.551-4.241l0.255-0.029l0.256-0.037l0.51-0.083
	l1.025-0.203l1.032-0.25l1.031-0.295l1.03-0.337l1.036-0.374l0.199-3.94L489.354,290.667z M339.986,273.436l1.207-4.54l1.51-4.449
	l1.81-4.336l2.097-4.204l2.377-4.053l2.647-3.881l2.902-3.694l3.147-3.489l3.376-3.267l3.592-3.031l3.785-2.781l3.966-2.519
	l4.129-2.244l4.269-1.959l4.394-1.666l4.498-1.364l4.576-1.057l4.64-0.744l4.681-0.428l2.368,2.383l-2.45,48.709l-2.661,3.39
	l-2.179,1.201l-1.966,1.524l-1.715,1.807l-1.417,2.048l-3.638,2.303l-48.708-2.449l-2.136-2.597L339.986,273.436z M399.255,355.302
	l-2.597,2.132l-4.612-0.898l-4.541-1.204l-4.447-1.509l-4.335-1.812l-4.206-2.096l-4.053-2.378l-3.879-2.646l-3.696-2.905
	l-3.488-3.147l-3.267-3.377l-3.032-3.588l-2.783-3.788l-2.517-3.967l-2.246-4.125l-1.959-4.272l-1.665-4.395l-1.364-4.493
	l-1.057-4.581l-0.743-4.638l-0.428-4.679l2.381-2.368l48.708,2.451l3.39,2.657l1.204,2.179l1.522,1.97l1.808,1.715l2.046,1.413
	l2.305,3.642L399.255,355.302z M407.568,295.225c-3.463,0-6.27-2.81-6.27-6.269c0-3.461,2.807-6.269,6.27-6.269
	c3.458,0,6.268,2.808,6.268,6.269S411.031,295.225,407.568,295.225z M475.149,304.479l-1.203,4.537l-1.513,4.45l-1.81,4.334
	l-2.097,4.206l-2.379,4.05l-2.647,3.884l-2.901,3.694l-3.15,3.485l-3.373,3.271l-3.592,3.03l-3.787,2.779l-3.964,2.521l-4.128,2.246
	l-4.27,1.96l-4.395,1.665l-4.498,1.363l-4.576,1.058l-4.64,0.742l-4.68,0.428l-2.367-2.381l2.45-48.711l2.659-3.39l2.179-1.199
	l1.968-1.526l1.715-1.805l1.416-2.048l3.638-2.304l48.708,2.451l2.133,2.597L475.149,304.479z M474.409,287.345l-48.706-2.451
	l-3.391-2.657l-1.205-2.18l-1.521-1.969l-1.805-1.711l-2.05-1.417l-2.302-3.64l2.45-48.709l2.594-2.133l4.614,0.896l4.54,1.205
	l4.45,1.51l4.336,1.81l4.202,2.097l4.053,2.378l3.883,2.647l3.696,2.904l3.488,3.146l3.264,3.378l3.03,3.588l2.783,3.789
	l2.518,3.965l2.245,4.127l1.959,4.271l1.666,4.393l1.366,4.496l1.056,4.578l0.741,4.638l0.433,4.681L474.409,287.345z"/>
<path id="Gear_10" fill="#808080" stroke="#000000" stroke-width="0.1" stroke-linecap="round" stroke-linejoin="round" stroke-miterlimit="10" d="
	M429.469,289.405l-0.384-0.257l-0.388-0.241l-0.392-0.218l-0.396-0.196l-0.392-0.174l-0.397-0.149l-0.391-0.125l-0.395-0.096
	l-0.395-0.059l-0.389,0.011l-0.388,0.007l-0.2-0.018l-0.197-0.029l-0.197-0.048l-0.1-0.035l-0.103-0.043l-0.1-0.053l-0.103-0.071
	l-0.105-0.102l-0.126-0.275l-0.243-1.565l-0.388-1.536l0.008-0.301l0.056-0.134l0.065-0.107l0.074-0.087l0.076-0.08l0.08-0.071
	l0.161-0.121l0.17-0.105l0.176-0.09l0.358-0.149l0.364-0.143l0.339-0.205l0.324-0.245l0.319-0.268l0.302-0.294l0.295-0.313
	l0.285-0.334l0.274-0.354l0.262-0.371l0.256-0.39l0.243-0.404l-1.769-3.118h-0.471l-0.465,0.017l-0.453,0.036l-0.444,0.054
	l-0.433,0.072l-0.424,0.093l-0.404,0.109l-0.395,0.132l-0.375,0.153l-0.353,0.187l-0.311,0.237l-0.313,0.234l-0.166,0.103
	l-0.179,0.091l-0.188,0.076l-0.101,0.031l-0.105,0.025l-0.112,0.016l-0.128,0.006l-0.145-0.02l-0.263-0.151l-1.117-1.124
	l-1.217-1.014l-0.173-0.247l-0.033-0.145l-0.006-0.124l0.006-0.115l0.013-0.109l0.023-0.103l0.061-0.195l0.076-0.184l0.086-0.177
	l0.205-0.331l0.213-0.328l0.148-0.368l0.123-0.387l0.097-0.404l0.077-0.415l0.052-0.429l0.033-0.438l0.015-0.447l-0.005-0.458
	l-0.022-0.463l-0.044-0.47l-3.263-1.484l-0.382,0.277l-0.364,0.286l-0.349,0.295l-0.325,0.306l-0.309,0.312l-0.287,0.321
	l-0.267,0.329l-0.238,0.338l-0.213,0.347l-0.179,0.354l-0.11,0.374l-0.115,0.373l-0.072,0.181l-0.09,0.179l-0.109,0.173
	l-0.064,0.084l-0.069,0.083l-0.082,0.08l-0.103,0.076l-0.126,0.07l-0.302,0.034l-1.563-0.256l-1.583-0.103l-0.284-0.1l-0.113-0.098
	l-0.076-0.098l-0.063-0.098l-0.054-0.095l-0.043-0.097l-0.066-0.192l-0.047-0.194l-0.033-0.193l-0.028-0.389l-0.021-0.389
	l-0.093-0.387l-0.13-0.385l-0.162-0.385l-0.183-0.38l-0.206-0.376l-0.231-0.376l-0.253-0.37l-0.272-0.365l-0.29-0.361l-0.313-0.357
	l-3.509,0.717l-0.146,0.449l-0.129,0.445l-0.106,0.443l-0.085,0.439l-0.066,0.434l-0.044,0.43l-0.021,0.422l0.005,0.415l0.028,0.405
	l0.066,0.393l0.134,0.366l0.122,0.368l0.047,0.191l0.033,0.196l0.013,0.206v0.105l-0.01,0.106l-0.018,0.115l-0.036,0.119
	l-0.063,0.133l-0.225,0.202l-1.418,0.713l-1.338,0.848l-0.289,0.086l-0.146-0.014l-0.12-0.031l-0.108-0.041l-0.097-0.048
	l-0.093-0.054l-0.166-0.117l-0.152-0.13l-0.14-0.138l-0.252-0.297l-0.249-0.3l-0.302-0.259l-0.331-0.236l-0.352-0.217l-0.371-0.199
	l-0.393-0.182l-0.407-0.166l-0.418-0.152l-0.438-0.136l-0.448-0.122l-0.459-0.105l-2.418,2.644l0.145,0.449l0.159,0.437l0.174,0.421
	l0.188,0.406l0.203,0.39l0.219,0.373l0.231,0.354l0.246,0.331l0.262,0.311l0.286,0.278l0.318,0.221l0.318,0.224l0.148,0.128
	l0.144,0.141l0.133,0.156l0.06,0.086l0.056,0.093l0.054,0.104l0.039,0.118l0.027,0.144l-0.061,0.298l-0.726,1.407l-0.587,1.473
	l-0.183,0.24l-0.126,0.073l-0.117,0.047l-0.112,0.029l-0.105,0.02l-0.105,0.01l-0.202,0.004l-0.203-0.014l-0.192-0.028l-0.382-0.094
	l-0.374-0.098l-0.395-0.031l-0.409,0.002l-0.414,0.033l-0.418,0.059l-0.425,0.081l-0.424,0.104l-0.432,0.126l-0.431,0.144
	l-0.435,0.168l-0.435,0.185l-0.405,3.56l0.382,0.279l0.388,0.257l0.389,0.24l0.388,0.217l0.395,0.198l0.395,0.174l0.395,0.15
	l0.396,0.122l0.395,0.098l0.392,0.056l0.391-0.01l0.389-0.005l0.198,0.015l0.196,0.03l0.198,0.05l0.1,0.033l0.1,0.043l0.103,0.053
	l0.104,0.069l0.106,0.104l0.122,0.275l0.242,1.566l0.388,1.536l-0.003,0.302l-0.059,0.137l-0.07,0.104l-0.07,0.09l-0.075,0.079
	l-0.08,0.069l-0.163,0.123l-0.169,0.106l-0.172,0.089l-0.361,0.148l-0.364,0.143l-0.339,0.207l-0.325,0.242l-0.315,0.271
	l-0.305,0.294l-0.295,0.313l-0.282,0.334l-0.276,0.354l-0.265,0.371l-0.256,0.389l-0.238,0.404l1.764,3.118h0.475l0.461-0.018
	l0.454-0.036l0.445-0.053l0.434-0.073l0.423-0.09l0.407-0.109l0.391-0.132l0.379-0.156l0.351-0.183l0.309-0.239l0.313-0.234
	l0.166-0.104l0.18-0.089l0.188-0.077l0.103-0.033l0.107-0.025l0.112-0.014l0.126-0.004l0.146,0.018l0.262,0.151l1.115,1.125
	l1.221,1.012l0.172,0.248l0.03,0.143l0.007,0.126l-0.004,0.112l-0.016,0.113l-0.023,0.1l-0.06,0.195l-0.076,0.187l-0.087,0.176
	l-0.205,0.332l-0.21,0.328l-0.149,0.368l-0.123,0.384l-0.098,0.405l-0.074,0.418l-0.053,0.424l-0.033,0.438l-0.017,0.447
	l0.006,0.458l0.023,0.464l0.04,0.469l3.264,1.484l0.385-0.278l0.361-0.285l0.349-0.295l0.328-0.306l0.31-0.312l0.287-0.321
	l0.267-0.328l0.238-0.339l0.213-0.348l0.175-0.354l0.109-0.372l0.116-0.375l0.076-0.179l0.09-0.179l0.11-0.173l0.062-0.086
	l0.069-0.08l0.084-0.079l0.1-0.08l0.129-0.069l0.298-0.03l1.565,0.252l1.582,0.103l0.286,0.097l0.108,0.1l0.08,0.096l0.063,0.097
	l0.054,0.096l0.039,0.097l0.066,0.192l0.046,0.195l0.033,0.192l0.03,0.388l0.023,0.392l0.093,0.385l0.13,0.385l0.159,0.385
	l0.183,0.381l0.208,0.375l0.232,0.379l0.249,0.368l0.271,0.367l0.292,0.358l0.311,0.359l3.514-0.718l0.145-0.451l0.128-0.443
	l0.108-0.444l0.086-0.438l0.067-0.438l0.043-0.428l0.019-0.421l-0.003-0.415l-0.033-0.405l-0.066-0.391l-0.129-0.368l-0.125-0.371
	l-0.047-0.189l-0.033-0.195l-0.015-0.206v-0.106l0.011-0.105l0.02-0.113l0.036-0.12l0.062-0.132l0.229-0.206l1.412-0.709l1.34-0.85
	l0.289-0.086l0.146,0.014l0.122,0.033l0.107,0.039l0.1,0.046l0.088,0.054l0.17,0.119l0.153,0.127l0.139,0.139l0.253,0.299
	l0.244,0.299l0.303,0.258l0.331,0.239l0.353,0.212l0.374,0.203l0.392,0.182l0.404,0.17l0.422,0.148l0.434,0.14l0.451,0.119
	l0.461,0.106l2.418-2.644l-0.146-0.448l-0.159-0.438l-0.172-0.421l-0.189-0.408l-0.205-0.388l-0.216-0.375l-0.229-0.351
	l-0.248-0.333l-0.264-0.312l-0.284-0.278l-0.322-0.219l-0.315-0.226l-0.152-0.126l-0.139-0.141l-0.133-0.158l-0.06-0.087
	l-0.056-0.092l-0.051-0.103l-0.044-0.118l-0.025-0.144l0.059-0.296l0.728-1.409l0.587-1.474l0.183-0.239l0.126-0.076l0.115-0.044
	l0.112-0.029l0.107-0.019l0.105-0.012l0.202-0.003l0.2,0.015l0.195,0.03l0.377,0.091l0.379,0.098l0.397,0.031l0.405-0.004
	l0.412-0.032l0.42-0.058l0.421-0.081l0.429-0.104l0.428-0.125l0.434-0.144l0.436-0.167l0.431-0.184l0.404-3.561L429.469,289.405z
	 M407.568,295.044c-3.36,0-6.086-2.728-6.086-6.088c0-3.363,2.726-6.088,6.086-6.088c3.363,0,6.086,2.725,6.086,6.088
	S410.931,295.044,407.568,295.044z"/>
<path id="Gear_48" fill="#808080" stroke="#000000" stroke-width="0.1" stroke-linecap="round" stroke-linejoin="round" stroke-miterlimit="10" d="
	M383.957,296.375l0.241-0.041l0.487-0.096l0.979-0.222l0.975-0.257l0.979-0.293l0.982-0.325l0.979-0.356l0.159-3.776l-0.946-0.437
	l-0.951-0.407l-0.952-0.373l-0.952-0.338l-0.954-0.304l-0.479-0.135l-0.238-0.063l-0.239-0.062l-0.097-4.037l0.24-0.073l0.234-0.073
	l0.469-0.157l0.94-0.347l0.936-0.383l0.936-0.42l0.929-0.45l0.925-0.481l-0.334-3.765l-0.999-0.31l-0.991-0.279l-0.995-0.245
	l-0.987-0.21l-0.986-0.176l-0.49-0.072l-0.246-0.031l-0.245-0.031l-0.62-3.988l0.226-0.103l0.223-0.106l0.448-0.217l0.885-0.466
	l0.879-0.503l0.869-0.535l0.861-0.569l0.856-0.599l-0.826-3.688l-1.028-0.18l-1.021-0.146l-1.016-0.114l-1.01-0.082l-1-0.042
	l-0.497-0.008h-0.244l-0.246,0.002l-1.138-3.875l0.205-0.13l0.21-0.132l0.415-0.276l0.818-0.576l0.807-0.613l0.789-0.646
	l0.782-0.676l0.77-0.705l-1.3-3.549l-1.041-0.041l-1.032-0.012l-1.025,0.019l-1.008,0.051l-0.997,0.088l-0.495,0.058l-0.245,0.032
	l-0.242,0.034l-1.635-3.691l0.192-0.157l0.189-0.16l0.374-0.325l0.736-0.68l0.717-0.711l0.703-0.744l0.687-0.772l0.669-0.8
	l-1.75-3.348l-1.039,0.093l-1.024,0.123l-1.013,0.152l-0.994,0.183l-0.978,0.217l-0.481,0.122l-0.238,0.063l-0.239,0.066
	l-2.104-3.448l0.169-0.181l0.166-0.184l0.329-0.37l0.64-0.771l0.621-0.801l0.6-0.829l0.577-0.854l0.561-0.881l-2.173-3.092
	l-1.018,0.229l-0.998,0.257l-0.981,0.281l-0.966,0.313l-0.938,0.341l-0.461,0.184l-0.229,0.095l-0.226,0.096l-2.535-3.144
	l0.144-0.201l0.144-0.204l0.274-0.409l0.533-0.847l0.511-0.875l0.485-0.9l0.464-0.924l0.441-0.945l-2.561-2.784l-0.979,0.362
	l-0.959,0.383l-0.938,0.41l-0.912,0.435l-0.89,0.461l-0.431,0.241l-0.215,0.123l-0.213,0.126l-2.921-2.788l0.116-0.218l0.112-0.22
	l0.223-0.443l0.416-0.91l0.393-0.934l0.365-0.955l0.339-0.976l0.311-0.995l-2.896-2.425l-0.926,0.486l-0.9,0.506l-0.874,0.527
	l-0.849,0.551l-0.822,0.573l-0.397,0.296l-0.195,0.151l-0.197,0.152l-3.26-2.383l0.087-0.229l0.082-0.233l0.163-0.469l0.298-0.955
	l0.267-0.977l0.235-0.996l0.208-1.011l0.18-1.028l-3.187-2.023l-0.854,0.601l-0.828,0.618l-0.8,0.639l-0.77,0.655l-0.74,0.676
	l-0.354,0.344l-0.174,0.176l-0.172,0.176l-3.546-1.935l0.057-0.24l0.054-0.243l0.096-0.486l0.169-0.986l0.139-1.002l0.104-1.016
	l0.072-1.031l0.046-1.042l-3.43-1.59l-0.767,0.706l-0.735,0.722l-0.71,0.737l-0.68,0.75l-0.644,0.766l-0.308,0.389l-0.149,0.196
	l-0.15,0.197l-3.766-1.456l0.022-0.246l0.023-0.245l0.033-0.496l0.039-1l0.003-1.012l-0.026-1.022l-0.063-1.03l-0.09-1.041
	l-3.604-1.13l-0.669,0.802l-0.641,0.811l-0.607,0.823l-0.574,0.833l-0.536,0.844l-0.256,0.428l-0.123,0.213l-0.118,0.216
	l-3.928-0.953l-0.01-0.248l-0.01-0.247l-0.03-0.496l-0.093-0.998l-0.126-1.002l-0.166-1.01l-0.192-1.015l-0.229-1.021l-3.722-0.646
	l-0.557,0.882l-0.527,0.887l-0.493,0.895l-0.462,0.902l-0.425,0.905l-0.199,0.458l-0.093,0.228l-0.093,0.228l-4.014-0.432
	l-0.039-0.243l-0.046-0.243l-0.093-0.488l-0.223-0.977l-0.256-0.979l-0.295-0.978l-0.325-0.979l-0.354-0.98l-3.777-0.158
	l-0.438,0.947l-0.408,0.95l-0.371,0.95l-0.339,0.956l-0.301,0.953l-0.136,0.477l-0.063,0.241l-0.063,0.24l-4.035,0.093l-0.074-0.233
	l-0.072-0.237l-0.159-0.471l-0.346-0.938l-0.384-0.936l-0.418-0.934l-0.451-0.928l-0.481-0.927l-3.764,0.335l-0.31,0.999
	l-0.277,0.993l-0.246,0.993l-0.212,0.988l-0.176,0.985l-0.073,0.492l-0.029,0.244l-0.03,0.246l-3.99,0.622l-0.103-0.224
	l-0.105-0.224l-0.216-0.446l-0.469-0.886l-0.5-0.879l-0.536-0.869l-0.571-0.863l-0.598-0.854l-3.688,0.824l-0.18,1.029l-0.146,1.022
	l-0.112,1.015l-0.082,1.008l-0.044,1.002l-0.006,0.496v0.247l0.003,0.247l-3.876,1.137l-0.13-0.209l-0.134-0.208l-0.274-0.414
	l-0.577-0.817l-0.614-0.806l-0.644-0.791l-0.677-0.784l-0.705-0.77l-3.55,1.3l-0.039,1.042l-0.013,1.033l0.02,1.022l0.05,1.011
	l0.09,0.997l0.056,0.492l0.033,0.246l0.033,0.244l-3.69,1.633l-0.156-0.191l-0.164-0.187l-0.323-0.376l-0.682-0.735l-0.713-0.717
	l-0.743-0.702l-0.769-0.687l-0.8-0.671l-3.349,1.752l0.093,1.038l0.123,1.026l0.151,1.012l0.183,0.995l0.22,0.978l0.118,0.48
	l0.066,0.239l0.066,0.239l-3.452,2.1l-0.18-0.168l-0.182-0.166l-0.372-0.33l-0.769-0.641l-0.8-0.62l-0.828-0.597l-0.856-0.58
	l-0.879-0.561l-3.091,2.173l0.23,1.018l0.254,1.002l0.282,0.982l0.313,0.961l0.341,0.94l0.182,0.462l0.097,0.229l0.095,0.226
	l-3.143,2.534l-0.203-0.145l-0.202-0.14l-0.412-0.278l-0.846-0.534l-0.875-0.509l-0.899-0.486l-0.925-0.462l-0.944-0.441
	l-2.78,2.557l0.359,0.979l0.384,0.96l0.408,0.937l0.436,0.914l0.459,0.887l0.243,0.435l0.123,0.214l0.129,0.211l-2.789,2.923
	l-0.218-0.116l-0.22-0.115l-0.444-0.22l-0.91-0.42l-0.931-0.391l-0.956-0.363l-0.978-0.34l-0.996-0.312l-2.42,2.899l0.48,0.926
	l0.509,0.9l0.526,0.874l0.551,0.849l0.574,0.821l0.295,0.397l0.153,0.198l0.152,0.192l-2.381,3.262l-0.231-0.088l-0.233-0.083
	l-0.471-0.163l-0.956-0.295l-0.975-0.268l-0.995-0.237l-1.015-0.207l-1.028-0.181l-2.023,3.191l0.603,0.851l0.617,0.828l0.636,0.799
	l0.657,0.772l0.676,0.735l0.349,0.358l0.172,0.173l0.177,0.172l-1.938,3.545l-0.239-0.057l-0.238-0.053l-0.487-0.098l-0.988-0.17
	l-1.002-0.136l-1.015-0.104l-1.032-0.075l-1.041-0.045l-1.592,3.428l0.71,0.769l0.72,0.737l0.736,0.71l0.753,0.678l0.762,0.644
	l0.392,0.308l0.195,0.15l0.2,0.148l-1.459,3.767l-0.246-0.022l-0.246-0.022l-0.494-0.034l-1-0.04l-1.012-0.004l-1.022,0.03
	l-1.031,0.06l-1.038,0.091l-1.131,3.607l0.803,0.668l0.813,0.639l0.823,0.607l0.833,0.573l0.842,0.538l0.425,0.255l0.216,0.123
	l0.215,0.122l-0.952,3.924l-0.249,0.008l-0.246,0.012l-0.498,0.029l-0.995,0.094l-1.005,0.129l-1.012,0.161l-1.012,0.194
	l-1.018,0.226l-0.649,3.725l0.882,0.557l0.885,0.527l0.896,0.494l0.901,0.461l0.907,0.423l0.457,0.197l0.229,0.095l0.229,0.091
	l-0.435,4.018l-0.242,0.039l-0.243,0.044l-0.487,0.095l-0.975,0.22l-0.979,0.259l-0.981,0.293l-0.979,0.323l-0.98,0.358
	l-0.161,3.776l0.953,0.439l0.946,0.406l0.954,0.371l0.952,0.34l0.956,0.302l0.477,0.135l0.239,0.064l0.24,0.06l0.093,4.038
	l-0.236,0.071l-0.236,0.075l-0.471,0.16l-0.938,0.345l-0.938,0.385l-0.931,0.417l-0.93,0.45l-0.925,0.482l0.338,3.765l0.997,0.313
	l0.995,0.278l0.992,0.245l0.988,0.209l0.984,0.175l0.492,0.074l0.246,0.029l0.245,0.03l0.62,3.989l-0.226,0.104l-0.221,0.105
	l-0.445,0.216l-0.885,0.468l-0.879,0.501l-0.872,0.537l-0.863,0.567l-0.852,0.597l0.821,3.688l1.032,0.179l1.021,0.146l1.015,0.116
	l1.009,0.083l0.998,0.04l0.497,0.01h0.249l0.246-0.003l1.138,3.873l-0.209,0.133l-0.208,0.133l-0.415,0.275l-0.815,0.573
	l-0.807,0.613l-0.792,0.648l-0.779,0.672l-0.769,0.707l1.297,3.548l1.044,0.044l1.032,0.013l1.021-0.02l1.012-0.05l0.995-0.09
	l0.495-0.057l0.244-0.033l0.246-0.033l1.633,3.692l-0.189,0.155l-0.189,0.163l-0.375,0.325l-0.736,0.68l-0.716,0.713l-0.704,0.743
	l-0.687,0.772l-0.669,0.8l1.751,3.346l1.038-0.093l1.025-0.123l1.011-0.151l0.996-0.183l0.978-0.22l0.481-0.118l0.238-0.066
	l0.239-0.067l2.099,3.449l-0.169,0.18l-0.165,0.186l-0.328,0.372l-0.641,0.769l-0.62,0.8l-0.597,0.828l-0.58,0.856l-0.561,0.879
	l2.171,3.091l1.02-0.229l1-0.256l0.982-0.285l0.963-0.309l0.941-0.341l0.461-0.187l0.229-0.093l0.226-0.096l2.535,3.144
	l-0.146,0.202l-0.141,0.202l-0.274,0.412l-0.538,0.846l-0.507,0.875l-0.487,0.899l-0.461,0.926l-0.441,0.94l2.558,2.787l0.978-0.361
	l0.958-0.385l0.94-0.408l0.915-0.436l0.885-0.46l0.435-0.242l0.215-0.126l0.208-0.123l2.925,2.786l-0.116,0.219l-0.113,0.219
	l-0.221,0.444l-0.422,0.909l-0.387,0.932l-0.369,0.956l-0.334,0.978l-0.315,0.991l2.897,2.425l0.925-0.484l0.902-0.504l0.873-0.53
	l0.849-0.551l0.823-0.57l0.397-0.298l0.195-0.149l0.192-0.153l3.26,2.382l-0.087,0.229l-0.083,0.235l-0.162,0.468l-0.295,0.955
	l-0.266,0.979l-0.236,0.995l-0.208,1.012l-0.179,1.028l3.187,2.022l0.856-0.6l0.826-0.62l0.799-0.637l0.769-0.654l0.74-0.68
	l0.354-0.345l0.177-0.173l0.172-0.179l3.542,1.937l-0.057,0.238l-0.053,0.246l-0.101,0.484l-0.169,0.988l-0.136,1.001l-0.103,1.015
	l-0.077,1.032l-0.041,1.042l3.425,1.592l0.77-0.707l0.737-0.723l0.708-0.736l0.682-0.749l0.643-0.771l0.309-0.384l0.148-0.199
	l0.146-0.199l3.768,1.46l-0.022,0.242l-0.023,0.248l-0.033,0.494l-0.041,0.998l-0.003,1.015l0.03,1.021l0.06,1.032l0.09,1.038
	l3.608,1.128l0.667-0.797l0.641-0.813l0.605-0.826l0.574-0.832l0.538-0.842l0.254-0.428l0.123-0.213l0.123-0.216l3.924,0.955
	l0.006,0.242l0.015,0.249l0.029,0.494l0.089,0.998l0.131,1.005l0.161,1.009l0.195,1.015l0.226,1.019l3.725,0.646l0.559-0.879
	l0.523-0.889l0.497-0.896l0.461-0.899l0.421-0.908l0.199-0.454l0.093-0.229l0.093-0.231l4.017,0.435l0.04,0.242l0.044,0.245
	l0.095,0.484l0.219,0.978l0.261,0.979l0.295,0.979l0.323,0.979l0.355,0.981l3.777,0.159l0.438-0.948l0.405-0.949l0.374-0.951
	l0.339-0.952l0.302-0.955l0.136-0.478l0.063-0.238l0.06-0.239l4.04-0.096l0.069,0.235l0.076,0.239l0.159,0.471l0.346,0.935
	l0.385,0.938l0.418,0.932l0.451,0.93l0.484,0.929l3.761-0.338l0.311-0.996l0.279-0.994l0.245-0.992l0.213-0.991l0.172-0.981
	l0.072-0.492l0.03-0.245l0.03-0.245l3.992-0.624l0.1,0.227l0.107,0.225l0.219,0.445l0.464,0.889l0.502,0.875l0.536,0.869
	l0.566,0.866l0.602,0.852l3.688-0.822l0.176-1.028l0.149-1.021l0.115-1.018l0.081-1.009l0.042-0.998l0.007-0.497v-0.246
	l-0.002-0.249l3.873-1.138l0.133,0.21l0.132,0.208l0.276,0.415l0.576,0.815l0.613,0.807l0.644,0.793l0.677,0.779l0.707,0.769
	l3.548-1.297l0.044-1.044l0.01-1.032l-0.016-1.021l-0.054-1.013l-0.087-0.997l-0.057-0.492l-0.033-0.244l-0.036-0.246l3.694-1.632
	l0.156,0.189l0.159,0.189l0.328,0.374l0.68,0.736l0.714,0.717l0.743,0.703l0.77,0.687l0.798,0.67l3.351-1.748l-0.096-1.041
	l-0.123-1.025l-0.149-1.012l-0.186-0.995l-0.216-0.978l-0.123-0.481l-0.063-0.238l-0.066-0.239l3.448-2.103l0.18,0.169l0.187,0.169
	l0.372,0.328l0.769,0.641l0.8,0.62l0.828,0.597l0.854,0.581l0.882,0.56l3.091-2.171l-0.229-1.019l-0.255-1.002l-0.281-0.981
	l-0.315-0.966l-0.341-0.938l-0.183-0.461l-0.097-0.229l-0.093-0.226l3.144-2.534l0.199,0.143l0.205,0.144l0.412,0.274l0.845,0.538
	l0.873,0.507l0.902,0.487l0.921,0.462l0.945,0.44l2.783-2.561l-0.361-0.979l-0.381-0.959l-0.412-0.935l-0.435-0.916l-0.461-0.889
	l-0.241-0.431l-0.123-0.216l-0.126-0.208l2.786-2.926l0.219,0.116l0.218,0.115l0.445,0.22l0.908,0.421l0.936,0.388l0.956,0.365
	l0.975,0.338l0.994,0.312l2.425-2.898l-0.487-0.921l-0.505-0.902l-0.527-0.877l-0.55-0.849l-0.573-0.819l-0.295-0.397l-0.15-0.195
	l-0.155-0.192l2.385-3.264l0.229,0.086l0.235,0.087l0.469,0.158l0.954,0.298l0.979,0.267l0.995,0.235l1.011,0.208l1.029,0.18
	l2.022-3.19l-0.6-0.85l-0.62-0.828l-0.638-0.8l-0.657-0.769l-0.676-0.74l-0.345-0.352l-0.177-0.176l-0.176-0.176l1.938-3.542
	l0.238,0.056l0.243,0.054l0.484,0.099l0.987,0.17l1.002,0.132l1.018,0.107l1.028,0.072l1.046,0.046l1.587-3.425l-0.705-0.767
	l-0.724-0.74l-0.732-0.713l-0.754-0.677l-0.766-0.644l-0.388-0.305l-0.2-0.152l-0.194-0.149l1.456-3.764l0.245,0.022l0.246,0.021
	l0.497,0.033l0.998,0.039l1.012,0.004l1.021-0.027l1.032-0.059l1.041-0.093l1.128-3.606l-0.8-0.669l-0.813-0.641l-0.823-0.606
	l-0.836-0.574l-0.843-0.537l-0.423-0.252l-0.216-0.126l-0.213-0.119l0.952-3.927l0.245-0.008l0.246-0.013l0.497-0.029l0.995-0.09
	l1.005-0.13l1.012-0.162l1.011-0.195l1.018-0.229l0.651-3.721l-0.883-0.558l-0.886-0.527L386,301.698l-0.899-0.46l-0.905-0.423
	l-0.459-0.198l-0.229-0.093l-0.228-0.094l0.431-4.016L383.957,296.375z M266.28,214.575l5.241-1.856l5.36-1.489l5.448-1.113
	l5.513-0.733l5.548-0.347l5.562,0.04l5.547,0.425l5.501,0.811l5.433,1.19l5.334,1.566L325.98,215l5.067,2.292l1.005,3.686
	l-27.62,43.524l-4.383,1.633l-3.472-0.408l-3.493,0.117l-4.228-1.996l-23.883-45.682L266.28,214.575z M307.552,288.955
	c0,6.6-5.35,11.95-11.95,11.95c-6.596,0-11.948-5.351-11.948-11.95c0-6.599,5.353-11.949,11.948-11.949
	C302.202,277.006,307.552,282.356,307.552,288.955z M217.54,271.69l1.389-5.383l1.758-5.275l2.123-5.14l2.474-4.98l2.817-4.796
	l3.14-4.591l3.453-4.359l3.748-4.107l4.022-3.837l4.283-3.551l4.517-3.243l3.699,0.974l23.878,45.684l-0.776,4.611l-2.089,2.803
	l-1.645,3.084l-3.845,2.666l-51.502-2.157l-2.451-2.931L217.54,271.69z M249.615,350.877l-3.765,0.659l-4.232-3.611l-3.966-3.891
	l-3.688-4.161l-3.392-4.409l-3.075-4.632l-2.746-4.837l-2.404-5.014l-2.047-5.168l-1.684-5.3l-1.313-5.406l-0.933-5.479
	l-0.549-5.535l2.689-2.715l51.503,2.159l3.604,2.979l1.384,3.212l1.848,2.965l0.388,4.663L249.615,350.877z M324.928,363.334
	l-5.244,1.857l-5.355,1.492l-5.449,1.114l-5.513,0.73l-5.548,0.348l-5.563-0.04l-5.545-0.428l-5.503-0.809l-5.432-1.191
	l-5.334-1.565l-5.217-1.934l-5.067-2.288l-1.005-3.688l27.62-43.523l4.381-1.636l3.473,0.409l3.496-0.116l4.228,1.996l23.883,45.683
	L324.928,363.334z M373.668,306.219l-1.39,5.383l-1.761,5.28l-2.123,5.138l-2.471,4.98l-2.815,4.793l-3.142,4.591l-3.453,4.36
	l-3.747,4.109l-4.022,3.838l-4.281,3.549l-4.519,3.243l-3.694-0.972l-23.882-45.684l0.776-4.612l2.089-2.803l1.646-3.081l3.843-2.67
	l51.503,2.159l2.455,2.929L373.668,306.219z M372.699,286.532l-51.506-2.159l-3.602-2.977l-1.384-3.211l-1.851-2.967l-0.385-4.661
	l27.62-43.524l3.765-0.66l4.229,3.61l3.969,3.894l3.688,4.162l3.39,4.408l3.075,4.633l2.745,4.837l2.405,5.013l2.05,5.17
	l1.682,5.299l1.313,5.404l0.936,5.48l0.547,5.535L372.699,286.532z"/>
</svg>
